<svg width="364" height="364" viewBox="0 0 364 364" fill="none" xmlns="http://www.w3.org/2000/svg">
<path d="M121.212 135.117C122.668 133.006 124.342 130.967 126.235 129.147C126.454 128.929 126.672 128.783 126.963 128.71C127.764 128.565 128.274 129.584 128.347 130.458C129.075 135.772 128.419 141.159 126.381 146.182C124.561 150.623 123.178 155.501 118.81 158.194C118.155 158.631 117.427 158.85 116.626 158.777C115.752 158.486 115.097 157.758 115.024 156.884C114.442 153.899 110.656 156.811 111.384 153.899C112.476 149.604 115.388 145.818 117.354 141.887C118.446 139.412 119.756 137.228 121.212 135.117Z" fill="#011B94"/>
<path d="M142.615 48.9215L135.554 97.8431L113.932 206.679L121.285 211.994L229.903 212.503L246.355 97.8431L252.762 53.1439L247.302 48.9215H142.615Z" fill="#011B94"/>
<path d="M229.902 213.086L121.285 212.576C121.139 212.576 121.066 212.503 120.921 212.43L113.568 207.116C113.35 206.97 113.277 206.752 113.35 206.461L135.044 97.6248L142.033 48.776C142.106 48.4848 142.324 48.2664 142.615 48.2664H247.302C247.447 48.2664 247.593 48.3392 247.666 48.412L253.126 52.6344C253.271 52.78 253.417 52.9984 253.344 53.2168L230.558 212.576C230.485 212.867 230.194 213.086 229.902 213.086ZM121.503 211.411L229.393 211.921L252.106 53.508L247.083 49.6496H143.125L136.209 97.9888L114.587 206.461L121.503 211.411Z" fill="#231F20"/>
<path d="M240.313 97.8431H129.511L136.5 48.9215H247.302L240.313 97.8431Z" fill="#011B94"/>
<path d="M240.313 98.4983H129.511C129.147 98.4983 128.856 98.2071 128.856 97.9159C128.856 97.8431 128.856 97.8431 128.856 97.7703L135.845 48.8487C135.918 48.5575 136.136 48.3391 136.427 48.3391H247.229C247.593 48.3391 247.884 48.6303 247.884 48.9215C247.884 48.9943 247.884 48.9943 247.884 49.0671L240.895 97.9887C240.822 98.2799 240.604 98.4983 240.313 98.4983ZM130.239 97.2607H239.73L246.574 49.5767H137.082L130.239 97.2607Z" fill="#231F20"/>
<path d="M240.313 97.8431H129.511L113.932 206.679H224.661L240.313 97.8431Z" fill="white"/>
<path d="M224.661 207.262H113.932C113.568 207.262 113.277 206.97 113.277 206.679C113.277 206.606 113.277 206.606 113.277 206.534L128.856 97.6976C128.929 97.4064 129.147 97.188 129.438 97.188H240.24C240.604 97.188 240.895 97.4792 240.895 97.7704C240.895 97.8432 240.895 97.8432 240.895 97.916L225.316 206.752C225.243 207.043 225.025 207.262 224.661 207.262ZM114.587 206.024H224.151L239.585 98.4256H130.021L114.587 206.024Z" fill="#231F20"/>
<path d="M231.504 86.7776H141.45L145.163 61.152H235.144L231.504 86.7776Z" fill="white"/>
<path d="M231.504 87.36H141.45C141.086 87.36 140.795 87.0688 140.795 86.7776C140.795 86.7048 140.795 86.7048 140.795 86.632L144.435 61.0792C144.508 60.788 144.726 60.5696 145.018 60.5696H235.144C235.508 60.5696 235.799 60.8608 235.799 61.152C235.799 61.2248 235.799 61.2248 235.799 61.2976L232.159 86.8504C232.086 87.1416 231.795 87.36 231.504 87.36ZM142.178 86.1224H230.994L234.489 61.8072H145.673L142.178 86.1224Z" fill="#231F20"/>
<path d="M151.351 126.09H138.611C137.082 126.162 135.772 124.925 135.772 123.396C135.772 123.178 135.772 123.032 135.845 122.814L136.864 115.534C137.155 113.714 138.757 112.33 140.577 112.258H153.317C154.846 112.185 156.156 113.422 156.156 114.951C156.156 115.17 156.156 115.315 156.083 115.534L155.064 122.814C154.773 124.706 153.244 126.09 151.351 126.09Z" fill="#D1D3D4"/>
<path d="M175.23 126.09H162.49C160.961 126.162 159.65 124.925 159.65 123.396C159.65 123.178 159.65 123.032 159.723 122.814L160.742 115.534C161.034 113.714 162.635 112.33 164.455 112.258H177.195C178.724 112.185 180.034 113.422 180.034 114.951C180.034 115.17 180.034 115.315 179.962 115.534L178.942 122.814C178.724 124.706 177.122 126.09 175.23 126.09Z" fill="#D1D3D4"/>
<path d="M199.108 126.09H186.368C184.839 126.162 183.529 124.925 183.529 123.396C183.529 123.178 183.529 123.032 183.602 122.814L184.621 115.534C184.912 113.714 186.514 112.33 188.406 112.258H201.146C202.675 112.185 203.986 113.422 203.986 114.951C203.986 115.17 203.986 115.315 203.913 115.534L202.894 122.814C202.602 124.706 201.001 126.09 199.108 126.09Z" fill="#D1D3D4"/>
<path d="M223.059 126.09H210.319C208.79 126.162 207.48 124.925 207.48 123.396C207.48 123.178 207.48 123.032 207.553 122.814L208.572 115.534C208.863 113.714 210.465 112.33 212.285 112.258H225.025C226.554 112.185 227.864 113.422 227.864 114.951C227.864 115.17 227.864 115.315 227.791 115.534L226.772 122.814C226.481 124.706 224.952 126.09 223.059 126.09Z" fill="#D1D3D4"/>
<path d="M148.949 142.688H136.209C134.68 142.761 133.37 141.523 133.37 139.994C133.37 139.776 133.37 139.63 133.442 139.412L134.462 132.132C134.753 130.312 136.354 128.929 138.174 128.856H150.914C152.443 128.783 153.754 130.021 153.754 131.55C153.754 131.768 153.754 131.914 153.681 132.132L152.662 139.412C152.443 141.232 150.842 142.615 148.949 142.688Z" fill="#D1D3D4"/>
<path d="M172.9 142.688H160.16C158.631 142.761 157.321 141.523 157.321 139.994C157.321 139.776 157.321 139.63 157.394 139.412L158.413 132.132C158.704 130.312 160.306 128.929 162.126 128.856H174.866C176.394 128.783 177.705 130.021 177.705 131.55C177.705 131.768 177.705 131.914 177.632 132.132L176.613 139.412C176.322 141.232 174.72 142.615 172.9 142.688Z" fill="#D1D3D4"/>
<path d="M196.778 142.688H184.038C182.51 142.761 181.199 141.523 181.199 139.994C181.199 139.776 181.199 139.63 181.272 139.412L182.291 132.132C182.582 130.312 184.184 128.929 186.004 128.856H198.744C200.273 128.783 201.583 130.021 201.583 131.55C201.583 131.768 201.583 131.914 201.51 132.132L200.491 139.412C200.2 141.232 198.671 142.615 196.778 142.688Z" fill="#D1D3D4"/>
<path d="M220.657 142.688H207.917C206.388 142.761 205.078 141.523 205.078 139.994C205.078 139.776 205.078 139.63 205.15 139.412L206.17 132.132C206.461 130.312 208.062 128.929 209.882 128.856H222.622C224.151 128.783 225.462 130.021 225.462 131.55C225.462 131.768 225.462 131.914 225.389 132.132L224.37 139.412C224.151 141.232 222.55 142.615 220.657 142.688Z" fill="#D1D3D4"/>
<path d="M146.619 159.214H133.879C132.35 159.286 131.04 158.049 131.04 156.52C131.04 156.302 131.04 156.156 131.113 155.938L132.132 148.658C132.423 146.838 134.025 145.454 135.845 145.382H148.585C150.114 145.309 151.424 146.546 151.424 148.075C151.424 148.294 151.424 148.439 151.351 148.658L150.332 155.938C150.041 157.758 148.512 159.141 146.619 159.214Z" fill="#D1D3D4"/>
<path d="M170.498 159.214H157.758C156.229 159.286 154.918 158.049 154.918 156.52C154.918 156.302 154.918 156.156 154.991 155.938L156.01 148.658C156.302 146.838 157.903 145.454 159.723 145.382H172.463C173.992 145.309 175.302 146.546 175.302 148.075C175.302 148.294 175.302 148.439 175.23 148.658L174.21 155.938C173.992 157.758 172.39 159.141 170.498 159.214Z" fill="#D1D3D4"/>
<path d="M194.376 159.214H181.709C180.18 159.286 178.87 158.049 178.87 156.52C178.87 156.302 178.87 156.156 178.942 155.938L179.962 148.658C180.253 146.838 181.854 145.454 183.674 145.382H196.414C197.943 145.309 199.254 146.546 199.254 148.075C199.254 148.294 199.254 148.439 199.181 148.658L198.162 155.938C197.87 157.758 196.269 159.141 194.376 159.214Z" fill="#D1D3D4"/>
<path d="M218.327 159.214H205.587C204.058 159.286 202.748 158.049 202.748 156.52C202.748 156.302 202.748 156.156 202.821 155.938L203.84 148.658C204.131 146.838 205.733 145.454 207.553 145.382H220.293C221.822 145.309 223.132 146.546 223.132 148.075C223.132 148.294 223.132 148.439 223.059 148.658L222.04 155.938C221.749 157.758 220.147 159.141 218.327 159.214Z" fill="#D1D3D4"/>
<path d="M144.217 175.739H131.477C129.948 175.812 128.638 174.574 128.638 173.046C128.638 172.827 128.638 172.682 128.71 172.463L129.73 165.183C130.021 163.363 131.622 161.98 133.443 161.907H146.183C147.711 161.834 149.022 163.072 149.022 164.601C149.022 164.819 149.022 164.965 148.949 165.183L147.93 172.463C147.711 174.283 146.11 175.666 144.217 175.739Z" fill="#D1D3D4"/>
<path d="M168.168 175.739H155.428C153.899 175.812 152.589 174.574 152.589 173.046C152.589 172.827 152.589 172.682 152.662 172.463L153.681 165.183C153.972 163.363 155.574 161.98 157.394 161.907H170.134C171.662 161.834 172.973 163.072 172.973 164.601C172.973 164.819 172.973 164.965 172.9 165.183L171.881 172.463C171.59 174.283 170.061 175.666 168.168 175.739Z" fill="#D1D3D4"/>
<path d="M192.046 175.739H179.306C177.778 175.812 176.467 174.574 176.467 173.046C176.467 172.827 176.467 172.682 176.54 172.463L177.559 165.183C177.85 163.363 179.452 161.98 181.272 161.907H194.012C195.541 161.834 196.851 163.072 196.851 164.601C196.851 164.819 196.851 164.965 196.778 165.183L195.759 172.463C195.468 174.283 193.939 175.666 192.046 175.739Z" fill="#D1D3D4"/>
<path d="M215.925 175.739H203.185C201.656 175.812 200.346 174.574 200.346 173.046C200.346 172.827 200.346 172.682 200.418 172.463L201.438 165.183C201.729 163.363 203.33 161.98 205.15 161.907H217.89C219.419 161.834 220.73 163.072 220.73 164.601C220.73 164.819 220.73 164.965 220.657 165.183L219.638 172.463C219.347 174.283 217.818 175.666 215.925 175.739Z" fill="#D1D3D4"/>
<path d="M167.731 178.433H131.113C129.22 178.506 127.691 179.889 127.4 181.709L126.381 188.989C126.09 190.518 127.109 191.974 128.638 192.192C128.856 192.192 129.002 192.265 129.22 192.265H165.838C167.731 192.192 169.26 190.809 169.551 188.989L170.57 181.709C170.862 180.18 169.842 178.724 168.314 178.506C168.168 178.433 167.95 178.433 167.731 178.433Z" fill="#D1D3D4"/>
<path d="M189.644 192.265H176.904C175.375 192.338 174.065 191.1 174.065 189.571C174.065 189.353 174.065 189.207 174.138 188.989L175.157 181.709C175.448 179.889 177.05 178.506 178.87 178.433H191.61C193.139 178.36 194.449 179.598 194.449 181.126C194.449 181.345 194.449 181.49 194.376 181.709L193.357 188.989C193.139 190.809 191.537 192.192 189.644 192.265Z" fill="#D1D3D4"/>
<path d="M213.595 192.265H200.855C199.327 192.338 198.016 191.1 198.016 189.571C198.016 189.353 198.016 189.207 198.089 188.989L199.108 181.709C199.399 179.889 201.001 178.506 202.821 178.433H215.561C217.09 178.36 218.4 179.598 218.4 181.126C218.4 181.345 218.4 181.49 218.327 181.709L217.308 188.989C217.017 190.809 215.415 192.192 213.595 192.265Z" fill="#D1D3D4"/>
<path d="M219.565 66.5392H222.55C223.351 66.5392 224.079 66.8304 224.515 67.4128C225.025 67.9952 225.243 68.796 225.098 69.524L224.006 77.0224C223.86 77.8232 223.496 78.624 222.841 79.1336C222.259 79.716 221.458 80.0072 220.584 80.0072H217.672C216.871 80.0072 216.143 79.716 215.707 79.1336C215.197 78.5512 214.979 77.7504 215.124 77.0224L216.216 69.524C216.362 68.7232 216.726 67.9224 217.381 67.4128C217.963 66.8304 218.764 66.5392 219.565 66.5392ZM222.186 69.3056C222.186 68.6504 221.676 68.068 221.021 68.068C220.948 68.068 220.948 68.068 220.875 68.068C220.439 68.068 220.075 68.2136 219.783 68.5048C219.492 68.796 219.274 69.16 219.201 69.524L218.473 74.62L222.186 69.3056ZM218.109 77.3136C218.109 77.6776 218.255 77.9688 218.473 78.26C218.764 78.4784 219.055 78.624 219.419 78.5512C220.293 78.5512 221.021 77.896 221.167 77.0224L221.895 71.9264L218.109 77.3136Z" fill="#D1D3D4"/>
<path d="M229.902 213.086C229.757 213.086 229.538 213.013 229.466 212.867L224.224 207.043C224.006 206.825 224.006 206.388 224.297 206.17C224.588 205.951 224.952 205.951 225.17 206.242L230.412 212.066C230.63 212.285 230.63 212.722 230.339 212.94C230.194 213.086 230.048 213.086 229.902 213.086Z" fill="#231F20"/>
<path d="M141.669 118.737C141.669 118.737 123.032 139.339 113.932 149.531C110.146 153.826 108.399 163.654 115.825 163.654C123.25 163.654 137.155 151.424 141.669 146.692C146.182 141.96 141.669 118.737 141.669 118.737Z" fill="#011B94"/>
<path d="M184.184 288.652L191.173 305.032L201.874 301.538L195.905 285.23L184.184 288.652Z" fill="white"/>
<path d="M191.173 305.614C190.955 305.614 190.736 305.469 190.591 305.25L183.602 288.943C183.529 288.798 183.529 288.579 183.602 288.434C183.675 288.288 183.82 288.142 183.966 288.07L195.687 284.648C195.978 284.575 196.342 284.721 196.415 285.012L202.384 301.392C202.457 301.538 202.457 301.683 202.384 301.902C202.311 302.047 202.166 302.193 202.02 302.193L191.391 305.614C191.319 305.614 191.246 305.614 191.173 305.614ZM184.985 289.089L191.537 304.304L201.074 301.246L195.541 286.104L184.985 289.089Z" fill="#231F20"/>
<path d="M191.173 305.032C191.173 305.032 193.721 313.768 194.667 313.841C195.614 313.914 216.871 309.036 215.998 306.779C215.124 304.522 201.874 301.61 201.874 301.61L191.173 305.032Z" fill="#231F20"/>
<path d="M194.667 314.423C194.231 314.423 193.357 314.35 190.663 305.178C190.591 304.886 190.736 304.522 191.027 304.45L201.656 300.955C201.729 300.955 201.875 300.955 201.947 300.955C205.151 301.61 215.561 304.086 216.507 306.488C216.653 306.852 216.58 307.216 216.362 307.58C214.469 310.201 195.759 314.423 194.667 314.423ZM191.974 305.396C192.993 308.745 194.303 312.385 194.813 313.113C197.215 312.822 214.251 308.672 215.343 306.779C214.615 305.542 207.917 303.43 201.875 302.12L191.974 305.396Z" fill="#231F20"/>
<path d="M131.404 281.154L127.182 298.407L137.738 302.047L142.834 285.449L131.404 281.154Z" fill="white"/>
<path d="M137.738 302.702C137.665 302.702 137.592 302.702 137.519 302.702L126.963 299.062C126.672 298.99 126.526 298.626 126.599 298.334L130.822 281.081C130.894 280.935 130.967 280.79 131.113 280.717C131.258 280.644 131.477 280.644 131.622 280.717L143.052 285.085C143.343 285.23 143.489 285.522 143.416 285.813L138.32 302.411C138.247 302.557 138.174 302.702 138.029 302.775C137.883 302.702 137.81 302.702 137.738 302.702ZM127.91 297.97L137.374 301.246L142.106 285.813L131.914 281.954L127.91 297.97Z" fill="#231F20"/>
<path d="M127.182 298.407C127.182 298.407 123.978 306.925 124.634 307.507C125.289 308.09 145.236 317.044 145.891 314.714C146.546 312.385 137.738 302.12 137.738 302.12L127.182 298.407Z" fill="#231F20"/>
<path d="M145.018 315.661C140.577 315.661 124.925 308.526 124.197 307.944C123.833 307.653 123.178 307.143 126.526 298.116C126.672 297.825 126.963 297.679 127.327 297.752L137.883 301.392C137.956 301.392 138.102 301.465 138.174 301.538C140.286 304.013 147.202 312.239 146.474 314.714C146.328 315.078 146.037 315.37 145.673 315.442C145.454 315.588 145.236 315.661 145.018 315.661ZM125.143 307.07C127.254 308.308 143.343 315.224 145.309 314.423C145.454 313.04 141.378 307.289 137.374 302.63L127.546 299.208C126.308 302.484 125.143 306.124 125.143 307.07Z" fill="#231F20"/>
<path d="M177.341 182.946C177.341 182.946 196.706 262.59 201.51 292.874L186.732 299.718C186.732 299.718 165.474 246.792 158.122 228.082C158.122 228.082 151.57 278.606 143.343 293.238L127.254 290.836C127.254 290.836 134.826 252.98 136.136 222.841C137.446 192.702 137.01 185.713 137.01 185.713L177.341 182.946Z" fill="#231F20"/>
<path d="M186.805 300.373C186.586 300.373 186.295 300.227 186.222 300.009C186.004 299.499 166.421 250.723 158.413 230.558C157.03 240.75 151.133 280.717 143.853 293.602C143.707 293.821 143.489 293.966 143.198 293.894L127.109 291.491C126.963 291.491 126.818 291.346 126.672 291.2C126.599 291.054 126.526 290.909 126.599 290.763C126.672 290.399 134.17 252.543 135.481 222.914C136.791 193.284 136.354 185.931 136.354 185.858C136.354 185.494 136.573 185.203 136.937 185.203L177.268 182.364C177.559 182.364 177.85 182.51 177.923 182.801C178.142 183.602 197.361 262.808 202.093 292.802C202.166 293.093 202.02 293.311 201.729 293.457L186.95 300.3C186.95 300.373 186.878 300.373 186.805 300.373ZM158.122 227.5C158.34 227.5 158.631 227.646 158.704 227.864C165.547 245.336 184.766 293.02 187.096 298.917L200.928 292.51C196.196 263.463 178.578 190.372 176.904 183.602L137.665 186.368C137.738 188.625 137.81 197.725 136.718 222.914C135.554 250.578 128.929 285.23 127.91 290.326L142.979 292.656C150.987 277.878 157.394 228.592 157.466 228.082C157.539 227.791 157.685 227.573 157.976 227.573L158.122 227.5Z" fill="#231F20"/>
<path d="M205.15 131.55C205.15 131.55 209.664 126.454 210.101 126.017C210.538 125.58 210.902 121.867 213.013 120.702C213.959 120.12 214.978 119.683 216.07 119.465C216.07 119.465 222.04 113.714 222.841 114.733C223.642 115.752 219.492 120.338 219.492 120.338C219.492 120.338 221.603 123.687 220.511 126.672C219.419 129.657 217.745 131.622 215.925 131.986C214.105 132.35 209.154 139.703 209.154 139.703L205.15 131.55Z" fill="white"/>
<path d="M209.082 140.358C208.791 140.358 208.645 140.213 208.499 139.994L204.495 131.841C204.423 131.622 204.423 131.331 204.568 131.186C205.005 130.676 209.082 126.017 209.591 125.653L209.81 124.852C210.174 123.469 210.902 121.212 212.649 120.266C213.595 119.683 214.687 119.246 215.707 118.955C217.381 117.354 221.167 114.005 222.623 114.078C222.914 114.078 223.132 114.223 223.351 114.442C224.224 115.534 222.259 118.3 220.22 120.484C220.803 121.503 222.04 124.342 221.021 126.963C219.783 130.239 218.036 132.205 215.998 132.714C214.906 133.006 211.557 137.228 209.591 140.14C209.519 140.213 209.3 140.358 209.082 140.358ZM205.879 131.622L209.227 138.466C210.683 136.354 214.105 131.768 215.779 131.404C217.454 131.04 218.837 129.293 219.929 126.454C220.948 123.833 219.055 120.702 218.983 120.702C218.837 120.484 218.837 120.193 219.055 119.974C220.73 118.154 222.113 116.189 222.331 115.388C221.312 115.752 218.619 117.936 216.507 119.974C216.435 120.047 216.289 120.12 216.143 120.12C215.124 120.338 214.178 120.775 213.304 121.285C211.994 122.013 211.411 123.978 211.047 125.143C210.975 125.653 210.756 126.09 210.465 126.526C210.174 126.745 207.626 129.657 205.879 131.622Z" fill="#231F20"/>
<path d="M148.439 112.622C146.11 113.568 143.562 113.859 141.086 113.422C139.994 113.277 138.902 112.767 138.102 112.039C137.301 111.238 137.082 110.001 137.592 108.982C136.354 109.054 135.117 108.545 134.316 107.526C133.515 106.579 133.006 105.414 132.86 104.177C132.569 102.575 132.787 100.755 134.025 99.736C132.787 99.0808 131.477 98.28 131.113 96.9696C130.967 96.3144 131.04 95.5864 131.258 94.9312C131.622 93.6208 132.059 92.3104 132.642 91.1456C132.933 90.4904 133.442 89.7624 134.17 89.7624C133.151 87.2872 133.661 84.448 135.481 82.4824C136.354 81.4632 137.519 80.808 138.757 80.5896C140.14 80.5896 141.45 80.6624 142.834 80.8808C143.998 79.2792 146.619 77.896 148.585 78.1872C150.332 78.4784 151.788 79.6432 152.37 81.3176C153.899 81.0992 155.428 81.2448 156.957 81.6816C158.413 82.1184 159.65 83.2104 160.233 84.6664C160.742 86.1224 160.233 87.7968 158.922 88.7432C160.742 89.0344 162.053 90.636 161.98 92.5288C161.834 94.3488 160.597 95.9504 158.85 96.46C158.631 96.5328 158.34 96.6056 158.194 96.7512C157.976 96.9696 157.903 97.2608 157.83 97.6248C157.539 98.5712 156.666 99.008 156.229 99.8088C155.719 101.046 155.355 102.284 155.064 103.594C154.627 104.832 154.19 105.997 153.681 107.162C153.098 108.472 152.807 110.001 151.934 111.166C151.206 112.185 150.332 112.185 149.167 112.622L148.294 112.913L148.439 112.622Z" fill="white"/>
<path d="M143.271 114.223C142.47 114.223 141.742 114.15 140.941 114.005C139.703 113.859 138.539 113.277 137.592 112.403C136.864 111.602 136.5 110.583 136.646 109.491C135.554 109.273 134.535 108.763 133.807 107.89C132.933 106.87 132.423 105.56 132.278 104.25C131.914 102.721 132.205 101.192 133.079 99.8816C131.987 99.2264 130.895 98.4256 130.603 97.1152C130.458 96.3144 130.531 95.5136 130.749 94.7856C131.113 93.4024 131.55 92.092 132.132 90.8544C132.351 90.1992 132.787 89.6896 133.37 89.3256C132.642 86.7776 133.224 84.0112 134.971 82.0456C135.918 80.9536 137.228 80.2256 138.611 79.9344C139.922 79.8616 141.232 79.9344 142.543 80.1528C143.853 78.5512 146.474 77.168 148.658 77.532C150.478 77.8232 152.007 78.988 152.735 80.5896C154.191 80.444 155.719 80.5896 157.103 81.0264C158.777 81.536 160.087 82.7736 160.743 84.448C161.179 85.8312 160.961 87.2872 160.087 88.452C161.616 89.18 162.635 90.7816 162.563 92.5288C162.417 94.64 160.961 96.3872 158.995 97.0424C158.85 97.0424 158.704 97.1152 158.559 97.188C158.486 97.3336 158.486 97.4064 158.413 97.552L158.34 97.7704C158.122 98.3528 157.758 98.9352 157.321 99.2992C157.103 99.5176 156.884 99.8088 156.739 100.1C156.375 100.901 156.083 101.702 155.938 102.502C155.792 102.939 155.719 103.376 155.574 103.74C155.137 104.978 154.7 106.215 154.191 107.38C153.972 107.817 153.827 108.254 153.681 108.69C153.39 109.637 152.953 110.583 152.371 111.457C151.788 112.185 150.987 112.694 150.114 112.84C149.895 112.913 149.604 112.986 149.386 113.058L148.512 113.35C146.765 114.005 144.945 114.369 143.125 114.369L143.271 114.223ZM137.519 108.326C137.738 108.326 137.956 108.472 138.029 108.618C138.175 108.836 138.175 109.054 138.029 109.273C137.665 110.074 137.811 111.02 138.466 111.602C139.194 112.258 140.14 112.694 141.159 112.84C143.562 113.204 145.964 112.986 148.221 112.112L149.022 111.821C149.313 111.748 149.604 111.602 149.823 111.53C150.478 111.457 151.06 111.093 151.424 110.583C151.934 109.855 152.298 108.982 152.516 108.181C152.662 107.671 152.88 107.234 153.026 106.725C153.535 105.56 153.972 104.395 154.409 103.23C154.555 102.866 154.627 102.43 154.773 102.066C154.991 101.119 155.283 100.246 155.719 99.372C155.938 99.008 156.229 98.644 156.52 98.3528C156.811 98.0616 157.103 97.6976 157.248 97.3336L157.321 97.188C157.394 96.824 157.539 96.5328 157.758 96.2416C157.976 96.0232 158.267 95.8776 158.631 95.8048C160.16 95.368 161.252 93.9848 161.398 92.3832C161.471 90.8544 160.379 89.544 158.85 89.2528C158.486 89.18 158.267 88.8888 158.267 88.5976C158.267 88.3792 158.413 88.2336 158.559 88.1608C159.578 87.4328 160.015 86.0496 159.578 84.812C159.068 83.5744 157.976 82.5552 156.666 82.1912C155.283 81.7544 153.827 81.6816 152.371 81.9C152.079 81.9 151.788 81.7544 151.715 81.4632C151.206 80.0072 149.895 78.988 148.367 78.7696C146.619 78.5512 144.144 79.8616 143.198 81.2448C143.052 81.4632 142.688 81.536 142.397 81.3904C141.159 81.2448 139.922 81.172 138.684 81.172C137.519 81.3904 136.5 82.0456 135.772 82.9192C134.171 84.7392 133.661 87.2872 134.607 89.544C134.753 89.8352 134.607 90.1992 134.316 90.3448C134.243 90.3448 134.171 90.4176 134.098 90.4176C133.734 90.4176 133.37 91 133.151 91.4368C132.569 92.6016 132.132 93.8392 131.841 95.1496C131.623 95.732 131.623 96.3144 131.695 96.8968C131.914 97.9888 133.151 98.644 134.243 99.2264C134.535 99.372 134.68 99.736 134.535 100.027C134.462 100.1 134.462 100.173 134.389 100.246C133.151 101.265 133.297 103.303 133.443 104.104C133.588 105.196 134.025 106.288 134.753 107.162C135.481 107.89 136.5 108.326 137.519 108.326Z" fill="#231F20"/>
<path d="M158.777 97.3336C158.777 97.3336 163.873 101.119 163.582 102.357C163.29 103.594 160.742 103.74 160.742 103.74" fill="white"/>
<path d="M160.743 104.395C160.379 104.322 160.16 104.031 160.16 103.74C160.16 103.449 160.451 103.23 160.743 103.158C161.543 103.085 162.854 102.794 162.999 102.211C162.999 101.629 160.888 99.5904 158.486 97.8432C158.195 97.6248 158.122 97.2608 158.34 96.9696C158.559 96.6784 158.923 96.6056 159.214 96.824C161.252 98.3528 164.601 101.046 164.237 102.502C163.727 104.177 161.107 104.395 160.743 104.395Z" fill="#231F20"/>
<path d="M153.754 86.8503C154.118 86.9231 154.482 87.0687 154.7 87.3599C155.646 88.3063 156.374 89.4711 156.957 90.7087C158.049 93.1111 159.068 95.5863 159.869 98.0615C161.034 101.338 162.126 104.686 163.145 108.035C163.8 110.146 158.413 112.185 157.248 111.894L161.106 119.829C161.106 119.829 158.777 121.503 153.681 121.066C148.585 120.63 148.148 119.61 148.148 119.61L145.018 110.001C145.018 110.001 148.585 108.69 149.167 103.74C149.24 102.939 149.022 101.847 149.24 101.119C149.531 100.246 150.332 99.7359 150.405 98.6439C150.478 97.6247 150.041 96.6783 149.24 96.0231C149.094 95.8775 148.876 95.7319 148.876 95.5135C148.949 95.3679 149.022 95.2951 149.094 95.2223C150.114 94.1303 150.041 92.3831 148.949 91.3639C150.332 90.8543 150.696 89.1799 150.914 87.7239C150.842 88.1607 153.098 87.0687 153.098 87.0687C153.39 86.8503 153.535 86.8503 153.754 86.8503Z" fill="white"/>
<path d="M155.355 121.794C154.846 121.794 154.263 121.794 153.608 121.722C148.876 121.285 147.784 120.411 147.566 119.902L144.435 110.219C144.362 109.928 144.508 109.637 144.799 109.491C144.945 109.418 148.003 108.254 148.512 103.74C148.512 103.449 148.512 103.085 148.512 102.794C148.439 102.211 148.512 101.556 148.658 100.974C148.803 100.537 149.022 100.173 149.313 99.8088C149.604 99.4448 149.75 99.0808 149.823 98.644C149.895 97.8432 149.531 97.0424 148.949 96.5328C148.585 96.3144 148.367 95.8776 148.439 95.4408C148.512 95.2224 148.585 95.004 148.803 94.8584C149.167 94.4216 149.386 93.912 149.386 93.3296C149.386 92.7472 149.095 92.2376 148.731 91.8736C148.439 91.6552 148.439 91.2912 148.658 91C148.731 90.9272 148.803 90.8544 148.949 90.7816C149.968 90.4176 150.332 88.8888 150.551 87.6512C150.623 87.2872 150.915 87.0688 151.206 87.1416H151.279C151.351 87.1416 151.424 87.1416 151.497 87.2144C152.007 87.0688 152.589 86.8504 153.026 86.5592L153.244 86.4864C153.463 86.4136 153.754 86.4136 153.972 86.4136C154.482 86.4864 154.919 86.7048 155.283 87.0688C156.302 88.088 157.103 89.2528 157.685 90.5632C158.704 92.7472 159.651 95.004 160.379 97.3336L160.67 98.0616C161.835 101.338 162.927 104.686 163.946 108.035C164.164 108.836 163.873 109.71 163.291 110.219C161.907 111.457 160.233 112.33 158.413 112.622L161.835 119.683C161.98 119.974 161.907 120.266 161.616 120.484C161.398 120.484 159.432 121.867 155.355 121.794ZM148.731 119.392C148.876 119.538 149.895 120.193 153.754 120.557C157.321 120.848 159.432 120.12 160.306 119.683L156.739 112.258C156.666 112.039 156.666 111.821 156.811 111.602C156.957 111.384 157.175 111.311 157.467 111.384C158.049 111.53 161.034 110.583 162.271 109.273C162.635 108.909 162.781 108.545 162.708 108.254C161.689 104.905 160.597 101.556 159.432 98.28L159.141 97.552C158.413 95.2952 157.539 93.1112 156.52 90.9272C156.011 89.7624 155.355 88.6704 154.409 87.724C154.118 87.4328 153.972 87.36 153.827 87.36C153.754 87.36 153.681 87.36 153.535 87.4328C152.953 87.724 152.298 87.9424 151.643 88.1608C151.497 89.3256 150.987 90.4904 150.114 91.2912C150.478 91.8008 150.623 92.3832 150.696 92.9656C150.769 93.8392 150.478 94.7128 149.895 95.2952C150.842 96.096 151.279 97.2608 151.279 98.4984C151.206 99.1536 150.987 99.8088 150.551 100.318C150.332 100.537 150.187 100.828 150.114 101.119C150.041 101.556 150.041 101.993 150.041 102.502C150.041 102.866 150.041 103.303 150.041 103.667C149.604 107.817 147.129 109.637 146.037 110.219L148.949 119.246L148.731 119.392Z" fill="#231F20"/>
<path d="M162.198 105.706C160.451 106.725 158.194 106.361 156.884 104.832L162.198 105.706Z" fill="white"/>
<path d="M160.16 106.87C158.777 106.87 157.466 106.288 156.52 105.196C156.302 104.978 156.302 104.541 156.52 104.322C156.738 104.104 157.175 104.104 157.394 104.322C159.65 106.579 161.834 105.196 161.907 105.123C162.198 104.978 162.562 105.05 162.781 105.342C162.926 105.633 162.854 105.924 162.635 106.142C161.834 106.652 161.034 106.87 160.16 106.87Z" fill="#231F20"/>
<path d="M153.244 101.702C152.88 100.901 152.225 100.246 151.497 99.8088C150.987 99.372 150.405 99.008 149.75 98.7168C149.094 98.4256 148.366 98.4983 147.784 98.7895C147.274 99.1535 146.983 99.6632 146.838 100.318C146.765 100.901 146.838 101.556 146.983 102.066C147.784 104.614 149.895 106.579 152.516 107.162L152.225 107.016" fill="white"/>
<path d="M152.589 107.817C152.516 107.817 152.516 107.817 152.443 107.817C149.604 107.162 147.347 105.05 146.474 102.284C146.255 101.629 146.183 100.901 146.255 100.246C146.328 99.4448 146.765 98.7896 147.42 98.3528C148.221 97.916 149.095 97.8432 149.895 98.2072C150.551 98.4984 151.206 98.8624 151.788 99.372C152.662 99.8816 153.317 100.682 153.754 101.556C153.899 101.847 153.754 102.211 153.463 102.357C153.171 102.502 152.807 102.357 152.662 102.066C152.662 101.993 152.662 101.993 152.589 101.92C152.225 101.265 151.715 100.682 151.06 100.246C150.623 99.8088 150.041 99.5176 149.459 99.2992C149.022 99.0808 148.439 99.0808 148.003 99.372C147.639 99.5904 147.42 100.027 147.347 100.464C147.275 100.974 147.347 101.483 147.493 101.993C148.148 104.177 149.895 105.851 152.079 106.506C152.225 106.506 152.371 106.506 152.516 106.579L152.807 106.725C153.099 106.87 153.244 107.234 153.099 107.526C153.026 107.671 152.807 107.817 152.589 107.817Z" fill="#231F20"/>
<path d="M157.248 111.966C157.248 111.966 154.118 112.112 152.152 110.656C152.152 110.656 154.19 115.606 158.995 115.461L157.248 111.966Z" fill="#231F20"/>
<path d="M158.85 116.116C153.826 116.116 151.715 111.093 151.642 110.874C151.497 110.583 151.642 110.292 151.861 110.146C152.079 110.001 152.37 110.001 152.589 110.146C154.409 111.457 157.321 111.384 157.321 111.384C157.539 111.384 157.83 111.53 157.903 111.748L159.65 115.315C159.796 115.606 159.65 115.97 159.359 116.116C159.286 116.189 159.214 116.189 159.068 116.189L158.85 116.116ZM153.754 112.112C154.773 113.568 156.302 114.514 158.049 114.878L156.957 112.622C155.865 112.549 154.773 112.403 153.754 112.112Z" fill="#231F20"/>
<path d="M155.733 96.615C156.001 96.5288 156.048 95.9315 155.839 95.2808C155.629 94.6302 155.242 94.1727 154.975 94.2589C154.707 94.3451 154.659 94.9425 154.869 95.5931C155.078 96.2437 155.465 96.7013 155.733 96.615Z" fill="#231F20"/>
<path d="M165.474 116.407C163.946 115.315 146.401 111.02 141.596 118.664C136.791 126.308 131.331 176.977 134.316 189.207L179.67 182.874C179.743 182.946 173.992 122.45 165.474 116.407Z" fill="#011B94"/>
<path d="M163.436 141.523C163.436 141.523 172.754 154.554 184.548 154.045C196.342 153.535 214.469 135.772 214.469 135.772L207.48 127.618C207.48 127.618 196.633 137.155 190.008 136.209C180.69 134.898 167.95 118.737 167.95 118.737L163.436 141.523Z" fill="#011B94"/>
<path d="M184.475 154.991C179.743 154.991 174.502 152.953 168.896 148.949C165.11 146.182 161.616 142.979 158.486 139.412C158.267 139.194 158.267 138.757 158.486 138.538C158.704 138.32 159.141 138.32 159.359 138.538L159.432 138.611C159.578 138.83 176.322 158.558 189.935 152.589C203.986 146.401 210.756 138.32 210.829 138.247C211.047 138.029 211.484 138.029 211.702 138.247C211.921 138.466 211.921 138.757 211.775 139.048C211.484 139.412 204.859 147.42 190.445 153.754C188.552 154.627 186.514 154.991 184.475 154.991Z" fill="#231F20"/>
<path d="M185.494 134.826C185.422 134.826 185.276 134.826 185.203 134.753C182.874 133.588 171.298 124.561 168.459 120.63C165.984 117.208 163.072 116.771 163.072 116.771C162.708 116.698 162.562 116.334 162.635 116.043C162.708 115.752 162.926 115.534 163.29 115.534C163.436 115.534 166.712 115.97 169.551 119.902C172.245 123.614 183.82 132.569 185.858 133.588C186.15 133.734 186.295 134.098 186.15 134.389C185.931 134.753 185.713 134.898 185.494 134.826Z" fill="#231F20"/>
<path d="M134.753 177.195C134.462 177.195 134.17 176.977 134.17 176.613C132.496 159.359 136.718 130.094 136.718 129.73C136.791 129.366 137.082 129.147 137.374 129.22H137.446C137.81 129.293 138.029 129.584 137.956 129.948C137.883 130.239 133.661 159.432 135.408 176.467C135.408 176.831 135.19 177.122 134.826 177.122L134.753 177.195Z" fill="#231F20"/>
<path d="M117.645 145.964C117.499 145.964 117.354 145.891 117.208 145.818C116.99 145.6 116.917 145.236 117.135 144.945L127.982 132.86C128.201 132.642 128.565 132.569 128.856 132.787C129.147 133.006 129.147 133.37 128.929 133.661L118.082 145.746C117.936 145.891 117.79 145.964 117.645 145.964Z" fill="#231F20"/>
</svg>
