<svg width="364" height="364" viewBox="0 0 364 364" fill="none" xmlns="http://www.w3.org/2000/svg">
<path d="M166.457 65.1415L162.075 65.7312L69.7788 75.166L69.8006 173.977L69.9463 174.32L198.416 204.204V202.217L293.544 191.704L335.382 192.243L335.273 81.3613L293.442 80.6188L166.457 65.1415Z" fill="#011B94"/>
<path d="M69.524 174.429L30.6707 165.882V116.72L51.8773 91.7645L69.575 89.4713L69.524 174.429Z" fill="#EBA70D"/>
<path d="M69.3129 100.013L52.2049 96.5911L36.1743 116.043L69.5531 120.783L69.3129 100.013Z" fill="#011B94"/>
<path d="M197.004 109.484L198.14 192.046L198.038 192.148V192.046L198.14 192.148L216.587 191.122L275.031 182.255L278.329 138.349L234.627 131.339L226.896 105.465L202.158 106.288L197.004 109.484Z" fill="#BBB0FF"/>
<path d="M197.266 91.3204L292.743 80.6989L293.049 80.9173V191.209L293.005 191.704L210.567 200.87L213.624 188.632L273.175 181.942L273.255 148.723L238.245 139.084L224.391 140.104L224.428 114.769L197.339 110.736L197.266 91.3204Z" fill="#000001"/>
<path d="M245.816 214.192C246.472 217.818 247.593 221.436 249.769 224.413C251.939 227.391 255.288 229.655 258.971 229.866C262.408 230.063 265.785 228.454 268.253 226.044C270.714 223.634 272.352 220.497 273.539 217.264C275.402 212.197 276.247 206.752 276.021 201.358L262.837 202.661L262.116 212.023L245.816 214.192Z" fill="#000001"/>
<path d="M67.208 175.531C67.994 162.938 61.9232 152.311 53.6484 151.795C45.3736 151.278 38.0283 161.068 37.2423 173.661C36.4563 186.253 42.5271 196.88 50.8019 197.397C59.0767 197.914 66.422 188.124 67.208 175.531Z" fill="#000001"/>
<path d="M147.471 102.888L120.287 100.588L100.202 129.941L119.545 132.438L101.622 162.672L147.34 125.274L131.171 122.501L147.471 102.888Z" fill="#BBB0FF"/>
<path d="M198.322 204.612C198.293 204.612 198.263 204.612 198.242 204.604L69.4075 174.684C69.24 174.647 69.1235 174.502 69.1235 174.327V75.0714C69.1235 74.8821 69.2619 74.7293 69.4511 74.7074L166.464 64.7629C166.494 64.7629 166.515 64.7629 166.545 64.7629L293.224 80.3203L335.521 80.8008C335.717 80.8008 335.877 80.9682 335.877 81.1648L335.717 192.127C335.717 192.221 335.681 192.316 335.608 192.389C335.535 192.454 335.419 192.483 335.346 192.491L293.333 191.85C293.129 191.85 292.969 191.682 292.976 191.479C292.984 191.275 293.173 191.115 293.348 191.122L334.989 191.755L335.149 81.5215L293.173 81.0483L166.501 65.4909L70.5577 75.3262L197.273 91.2039C197.455 91.2257 197.586 91.3786 197.594 91.5606L198.693 204.24C198.693 204.35 198.642 204.459 198.555 204.524C198.482 204.583 198.402 204.612 198.322 204.612ZM69.8515 174.036L197.95 203.782L196.858 91.8809L69.8515 75.9741V174.036Z" fill="#000001"/>
<path d="M183.034 102.015C182.917 102.015 182.808 101.964 182.735 101.862C182.619 101.702 182.655 101.469 182.823 101.352L197.019 91.2111C197.186 91.0946 197.412 91.1311 197.528 91.2985C197.645 91.4587 197.608 91.6916 197.441 91.8081L183.245 101.949C183.187 101.993 183.107 102.015 183.034 102.015Z" fill="#000001"/>
<path d="M209.402 204.248C209.22 204.248 209.06 204.109 209.038 203.92C209.016 203.724 209.162 203.542 209.358 203.52C209.358 203.52 229.182 201.379 249.012 199.246C258.928 198.184 268.85 197.121 276.29 196.334C285.682 195.337 288.099 195.082 288.776 195.119L288.783 195.06C289.394 195.104 289.962 195.606 290.159 196.283C290.326 196.859 290.239 197.456 290.13 197.965C289.846 199.326 289.271 200.2 288.433 200.542C288.404 200.557 288.368 200.564 288.332 200.571L262.968 203.127C262.779 203.148 262.589 203.003 262.568 202.799C262.546 202.603 262.691 202.42 262.895 202.399L288.208 199.843C288.783 199.574 289.198 198.89 289.424 197.805C289.518 197.361 289.584 196.895 289.467 196.48C289.373 196.152 289.089 195.803 288.739 195.781C287.028 195.854 210.217 204.16 209.445 204.24C209.431 204.248 209.416 204.248 209.402 204.248Z" fill="#000001"/>
<path d="M207.858 209.417C207.676 209.417 207.516 209.278 207.494 209.096C207.473 208.9 207.618 208.718 207.815 208.696L236.017 205.471C236.214 205.449 236.396 205.595 236.418 205.791C236.44 205.988 236.294 206.17 236.097 206.192L207.895 209.417C207.887 209.417 207.873 209.417 207.858 209.417Z" fill="#000001"/>
<path d="M236.345 215.437C236.258 215.437 236.17 215.408 236.105 215.343C236.025 215.27 235.981 215.175 235.981 215.066L236.134 202.792C236.134 202.61 236.28 202.457 236.462 202.435L262.83 199.785C262.939 199.771 263.041 199.814 263.114 199.88C263.187 199.945 263.23 200.055 263.223 200.164L262.648 211.972C262.641 212.147 262.502 212.292 262.328 212.314L236.374 215.437C236.374 215.437 236.36 215.437 236.345 215.437ZM236.862 203.127L236.716 214.658L261.956 211.622L262.495 200.542L236.862 203.127Z" fill="#000001"/>
<path d="M242.344 212.103C242.336 212.103 242.322 212.103 242.315 212.103C242.111 212.088 241.965 211.914 241.98 211.71C242.154 209.562 242.264 207.385 242.315 205.23C242.322 205.027 242.482 204.874 242.686 204.874C242.89 204.881 243.043 205.048 243.043 205.245C242.992 207.414 242.882 209.606 242.708 211.768C242.693 211.957 242.533 212.103 242.344 212.103Z" fill="#000001"/>
<path d="M246.486 210.618C246.384 210.618 246.231 210.596 246.1 210.472C245.962 210.334 245.926 210.145 245.984 209.912C246.239 208.922 246.624 207.968 247.127 207.072C247.425 206.548 247.673 206.053 247.469 205.726C247.345 205.515 247.032 205.442 246.799 205.442C246.479 205.456 246.144 205.595 245.816 205.733C245.634 205.806 245.416 205.726 245.336 205.536C245.256 205.354 245.343 205.136 245.532 205.056C245.896 204.903 246.311 204.728 246.763 204.706C247.338 204.692 247.84 204.925 248.088 205.347C248.524 206.075 248.059 206.89 247.753 207.429C247.316 208.201 246.974 209.023 246.741 209.875L249.566 209.664C249.762 209.642 249.944 209.802 249.959 209.999C249.973 210.203 249.82 210.378 249.624 210.392L246.566 210.618C246.552 210.611 246.522 210.618 246.486 210.618Z" fill="#000001"/>
<path d="M253.402 210.741C253.249 210.741 253.104 210.647 253.06 210.494C252.995 210.305 253.104 210.101 253.293 210.035C253.948 209.817 254.48 209.62 254.807 209.213C254.975 209.002 255.062 208.681 255.011 208.419C254.989 208.295 254.931 208.135 254.771 208.041C254.727 208.019 254.684 207.997 254.64 207.975C254.436 207.873 254.13 207.728 254.065 207.371C254.014 207.116 254.123 206.898 254.232 206.737C254.312 206.614 254.4 206.497 254.487 206.373C254.633 206.177 254.778 205.995 254.858 205.791C254.96 205.565 254.96 205.245 254.8 205.121C254.684 205.027 254.472 205.019 254.254 205.019C253.723 205.027 253.184 205.085 252.652 205.194C252.456 205.238 252.259 205.107 252.223 204.91C252.186 204.714 252.31 204.517 252.507 204.481C253.082 204.357 253.664 204.299 254.247 204.291C254.567 204.291 254.953 204.313 255.251 204.553C255.725 204.932 255.725 205.609 255.528 206.082C255.404 206.359 255.237 206.592 255.069 206.81C254.989 206.912 254.909 207.021 254.836 207.131C254.785 207.211 254.778 207.24 254.778 207.247C254.793 207.24 254.895 207.283 254.96 207.32C255.026 207.349 255.084 207.378 255.142 207.415C255.448 207.597 255.659 207.91 255.732 208.288C255.819 208.761 255.681 209.293 255.382 209.671C254.895 210.276 254.138 210.523 253.533 210.727C253.475 210.734 253.439 210.741 253.402 210.741Z" fill="#000001"/>
<path d="M214.061 189.025C213.879 189.025 213.719 188.887 213.697 188.705C213.675 188.508 213.821 188.326 214.017 188.305L272.789 181.636L272.847 149.211L198.198 156.957C198.001 156.971 197.819 156.833 197.798 156.629C197.776 156.425 197.921 156.251 198.125 156.229L273.189 148.432C273.291 148.425 273.393 148.454 273.473 148.527C273.553 148.599 273.597 148.694 273.597 148.796L273.531 181.949C273.531 182.131 273.393 182.291 273.211 182.313L214.119 189.018C214.09 189.025 214.076 189.025 214.061 189.025Z" fill="#000001"/>
<path d="M235.53 186.091C235.326 186.091 235.166 185.931 235.166 185.727V153.259L224.093 148.629L198.111 151.315C197.914 151.329 197.732 151.191 197.71 150.987C197.688 150.791 197.834 150.609 198.038 150.587L224.115 147.893C224.173 147.886 224.239 147.893 224.297 147.922L235.675 152.683C235.814 152.742 235.901 152.873 235.901 153.018V185.727C235.894 185.924 235.734 186.091 235.53 186.091Z" fill="#000001"/>
<path d="M224.34 148.49C224.136 148.49 223.976 148.33 223.976 148.126V114.908L197.71 111.319C197.514 111.289 197.368 111.107 197.397 110.911C197.426 110.714 197.608 110.576 197.805 110.598L224.384 114.231C224.566 114.252 224.697 114.413 224.697 114.595V148.134C224.704 148.33 224.537 148.49 224.34 148.49Z" fill="#000001"/>
<path d="M197.572 117.841C197.39 117.841 197.23 117.703 197.208 117.514C197.186 117.317 197.339 117.135 197.535 117.121L223.86 114.616C224.057 114.595 224.239 114.74 224.26 114.944C224.282 115.141 224.129 115.323 223.933 115.337L197.608 117.841C197.594 117.841 197.579 117.841 197.572 117.841Z" fill="#000001"/>
<path d="M208.856 127.684C208.768 127.684 208.681 127.655 208.615 127.589L205.296 124.619L202.34 127.458C202.231 127.56 202.078 127.589 201.94 127.531C201.801 127.473 201.721 127.335 201.721 127.189L201.911 117.601C201.918 117.397 202.078 117.237 202.282 117.244C202.486 117.252 202.646 117.412 202.639 117.616L202.464 126.33L205.026 123.869C205.165 123.738 205.376 123.731 205.521 123.862L208.455 126.483L208.062 116.706L197.295 114.078C197.099 114.027 196.982 113.83 197.026 113.641C197.069 113.452 197.266 113.328 197.463 113.371L208.499 116.065C208.659 116.101 208.768 116.24 208.776 116.407L209.212 127.313C209.22 127.458 209.132 127.597 209.001 127.655C208.958 127.669 208.907 127.684 208.856 127.684Z" fill="#000001"/>
<path d="M211.171 165.358C211.127 165.358 211.084 165.351 211.04 165.336C210.902 165.285 210.814 165.154 210.807 165.009L210.559 155.53L200.309 151.235C200.127 151.155 200.033 150.944 200.113 150.762C200.193 150.58 200.404 150.485 200.586 150.565L211.055 154.955C211.186 155.013 211.273 155.137 211.28 155.283L211.506 164.128L213.908 161.623C214.039 161.485 214.258 161.471 214.403 161.594L217.075 163.851L217.192 154.824L208.244 150.347C208.062 150.259 207.99 150.041 208.084 149.859C208.172 149.677 208.39 149.604 208.572 149.699L217.723 154.278C217.847 154.343 217.927 154.467 217.927 154.605L217.803 164.637C217.803 164.776 217.716 164.907 217.592 164.965C217.461 165.023 217.315 165.001 217.206 164.914L214.207 162.373L211.433 165.263C211.368 165.314 211.273 165.358 211.171 165.358Z" fill="#000001"/>
<path d="M250.731 161.034C250.687 161.034 250.643 161.026 250.599 161.012C250.454 160.961 250.367 160.822 250.367 160.67L250.425 151.417L224.304 144.093C224.108 144.042 223.998 143.838 224.049 143.642C224.1 143.452 224.304 143.336 224.501 143.387L250.891 150.783C251.051 150.827 251.16 150.973 251.16 151.133L251.102 159.68L253.089 157.408C253.213 157.263 253.439 157.241 253.592 157.364L256.576 159.723V151.024L224.595 141.028C224.406 140.97 224.297 140.766 224.355 140.57C224.413 140.38 224.617 140.271 224.814 140.329L257.05 150.405C257.202 150.448 257.304 150.594 257.304 150.754V160.473C257.304 160.611 257.224 160.742 257.101 160.801C256.977 160.859 256.824 160.844 256.715 160.757L253.417 158.151L251.014 160.903C250.927 160.983 250.832 161.034 250.731 161.034Z" fill="#000001"/>
<path d="M101.621 163.036C101.534 163.036 101.454 163.006 101.381 162.948C101.25 162.832 101.214 162.635 101.308 162.49L118.948 132.736L100.158 130.305C100.034 130.29 99.9251 130.21 99.8742 130.094C99.8232 129.977 99.8377 129.846 99.9033 129.737L119.989 100.384C120.062 100.275 120.193 100.216 120.316 100.224L147.5 102.524C147.638 102.539 147.755 102.619 147.806 102.75C147.857 102.874 147.835 103.019 147.747 103.121L131.855 122.246L147.398 124.91C147.536 124.932 147.653 125.041 147.689 125.18C147.726 125.318 147.675 125.464 147.565 125.551L101.847 162.948C101.782 163.006 101.701 163.036 101.621 163.036ZM100.835 129.657L119.588 132.081C119.712 132.096 119.814 132.176 119.872 132.285C119.923 132.394 119.923 132.525 119.858 132.627L102.983 161.085L146.488 125.493L131.113 122.857C130.982 122.835 130.88 122.748 130.836 122.624C130.792 122.501 130.814 122.362 130.894 122.268L146.75 103.194L120.469 100.974L100.835 129.657Z" fill="#000001"/>
<path d="M37.7031 168.008C37.6739 168.008 37.6521 168.008 37.623 168.001L30.6123 166.421C30.4449 166.384 30.3284 166.239 30.3284 166.064L30.2556 116.604C30.2556 116.516 30.2847 116.429 30.343 116.364L51.6079 91.5533C51.6661 91.4805 51.7535 91.4369 51.8408 91.4296L69.109 89.3912C69.3128 89.3693 69.4875 89.5077 69.5167 89.7115C69.5458 89.9153 69.4002 90.0901 69.1963 90.1192L52.0738 92.1357L30.9909 116.735L31.0637 165.773L37.7904 167.294C37.987 167.338 38.1107 167.535 38.0671 167.731C38.0161 167.891 37.8705 168.008 37.7031 168.008Z" fill="#000001"/>
<path d="M69.2981 174.771C69.269 174.771 69.2399 174.771 69.2108 174.764L67.5873 174.371C67.3908 174.327 67.2743 174.123 67.318 173.934C67.3617 173.745 67.5582 173.621 67.7548 173.664L69.3782 174.058C69.5748 174.101 69.6913 174.305 69.6476 174.494C69.6112 174.662 69.4656 174.771 69.2981 174.771Z" fill="#000001"/>
<path d="M68.9634 121.176C68.9488 121.176 68.927 121.176 68.9124 121.168L35.8321 116.196C35.7011 116.174 35.5919 116.087 35.5482 115.963C35.5045 115.839 35.5264 115.701 35.6137 115.599L51.8044 96.4164C51.8845 96.3144 52.0156 96.2708 52.1466 96.2926L69.3565 99.3502C69.5531 99.3866 69.6841 99.5759 69.6477 99.7724C69.6113 99.969 69.422 100.1 69.2255 100.064L52.2194 97.0424L36.582 115.57L69.0216 120.448C69.2182 120.477 69.3565 120.666 69.3274 120.863C69.291 121.045 69.1381 121.176 68.9634 121.176Z" fill="#000001"/>
<path d="M34.9221 163.502C34.7183 163.502 34.5581 163.334 34.5581 163.138L34.8129 118.009C34.8129 117.812 34.9803 117.645 35.1769 117.645C35.3807 117.645 35.5409 117.812 35.5409 118.009L35.2861 163.138C35.2861 163.334 35.1259 163.502 34.9221 163.502Z" fill="#000001"/>
<path d="M68.8979 95.2953C68.8833 95.2953 68.8615 95.2953 68.8469 95.2953L53.8065 93.1258C53.6099 93.0967 53.4716 92.9147 53.5007 92.7109C53.5298 92.5143 53.7118 92.376 53.9157 92.4051L68.9561 94.5746C69.1527 94.6037 69.291 94.7857 69.2619 94.9895C69.2328 95.1642 69.0726 95.2953 68.8979 95.2953Z" fill="#000001"/>
<path d="M65.3307 131.309C65.3088 131.309 65.2943 131.309 65.2724 131.302L55.0076 129.642C54.8547 129.62 54.731 129.497 54.7091 129.344L54.0685 125.391C54.0394 125.194 54.1704 125.005 54.367 124.976C54.5635 124.939 54.7528 125.078 54.7819 125.274L55.3789 128.965L65.0613 130.53L66.1242 126.701C66.1751 126.505 66.379 126.395 66.5755 126.446C66.7721 126.497 66.8813 126.701 66.8303 126.898L65.6801 131.04C65.6364 131.2 65.4908 131.309 65.3307 131.309Z" fill="#000001"/>
<path d="M291.782 191.486C291.702 191.486 291.622 191.471 291.542 191.45L273.546 185.247C273.167 185.116 272.964 184.701 273.095 184.322C273.226 183.944 273.641 183.74 274.019 183.871L292.015 190.074C292.394 190.205 292.598 190.62 292.467 190.998C292.372 191.297 292.088 191.486 291.782 191.486Z" fill="white"/>
<path d="M259.401 221.254C258.185 221.254 256.926 220.97 255.746 220.409C253.824 219.492 252.106 217.847 250.781 215.656C250.57 215.313 250.687 214.862 251.029 214.658C251.371 214.447 251.822 214.564 252.026 214.906C253.206 216.857 254.705 218.305 256.38 219.099C258.258 219.994 260.427 220.031 262.051 219.186C263.47 218.444 264.358 217.155 264.854 216.209C265.574 214.826 265.945 213.253 266.193 212.045C266.71 209.482 266.965 206.861 266.95 204.255C266.95 203.855 267.27 203.527 267.671 203.52C267.671 203.52 267.671 203.52 267.678 203.52C268.079 203.52 268.406 203.84 268.406 204.24C268.421 206.949 268.159 209.664 267.627 212.321C267.365 213.624 266.957 215.328 266.149 216.871C265.298 218.502 264.118 219.747 262.735 220.468C261.709 220.992 260.573 221.254 259.401 221.254Z" fill="white"/>
<path d="M50.8581 188.414C50.7708 188.414 50.6907 188.414 50.6033 188.406C48.6159 188.283 46.8832 186.732 45.7112 184.046C44.6119 181.52 44.1241 178.229 44.3425 174.793C44.8012 167.411 48.2883 161.813 52.2486 162.067C56.2235 162.315 58.9753 168.292 58.5094 175.681C58.2983 179.117 57.4028 182.313 55.9978 184.686C54.5709 187.103 52.7509 188.414 50.8581 188.414ZM45.7985 174.888C45.602 178.098 46.046 181.148 47.0507 183.463C47.9898 185.626 49.2856 186.863 50.698 186.95C52.1176 187.045 53.5517 185.968 54.7456 183.944C56.0342 181.767 56.8568 178.797 57.0534 175.586C57.4465 169.238 55.2043 163.713 52.154 163.516C49.1255 163.356 46.1916 168.539 45.7985 174.888Z" fill="white"/>
<path d="M168.634 220.606V293.428H60.0235L28.4429 271.114V197.834H137.242L168.634 220.606Z" fill="#BBB0FF"/>
<path d="M154.008 210.152H46.0896V237.219L41.7288 227.973L38.1252 231.664V204.888H146.423L154.008 210.152Z" fill="#011B94"/>
<path d="M77.3644 227.282V225.891H72.1665L69.2545 230.266H72.5159L68.8759 234.809L69.9315 231.227H66.6482L69.7277 225.906H63.7217C63.7217 225.906 63.7217 227.507 63.7872 227.595C63.7362 229.582 63.9474 231.577 64.3041 233.535C64.4788 234.482 64.6754 235.435 65.0539 236.323C65.5344 237.459 66.2988 238.478 67.2962 239.199C68.2935 239.92 69.5311 240.313 70.7687 240.233C72.1519 240.145 73.1347 239.789 74.183 238.893C74.9038 238.282 75.8574 236.789 76.2433 235.763C77.2989 232.953 77.4518 230.536 77.3644 227.282Z" fill="#000001"/>
<path d="M79.2136 234.795C79.6359 234.947 80.0945 234.715 80.4439 234.445C80.8007 234.176 81.1647 233.855 81.6087 233.812C82.3877 233.746 83.0356 234.562 83.8219 234.503C84.579 234.452 85.1177 233.586 85.8894 233.586C86.6975 233.579 87.2726 234.533 88.0734 234.518C88.7431 234.503 89.2091 233.826 89.8424 233.601C91.131 233.149 92.4632 234.685 93.7809 234.314C94.2687 234.176 94.6618 233.783 95.1423 233.615C95.5718 233.462 96.0814 233.499 96.4891 233.732C96.8239 233.914 97.1151 234.219 97.501 234.227C97.9815 234.234 98.3236 233.761 98.7823 233.644C99.5175 233.455 100.165 234.205 100.915 234.321C101.061 234.343 101.243 234.329 101.316 234.198C101.374 234.103 101.359 233.994 101.33 233.885C100.719 231.147 98.8623 228.738 96.4454 227.34C94.0139 225.928 91.0436 225.374 88.3136 226.037C86.9814 226.357 84.7464 227.333 83.2395 228.577C80.4148 230.9 79.4757 233.688 79.2136 234.795Z" fill="#000001"/>
<path d="M90.7888 246.253C90.7961 247.192 90.8543 248.19 91.4149 248.932C91.5459 249.114 91.7061 249.267 91.9099 249.362C92.0846 249.442 92.2594 249.486 92.4486 249.515C92.8345 249.558 93.2203 249.529 93.5916 249.427C93.8901 249.347 94.1958 249.202 94.3924 248.954C94.589 248.707 94.6545 248.394 94.7054 248.088C94.7855 247.52 94.8001 246.938 94.7491 246.355C94.7491 246.355 95.7538 246.268 95.761 246.362C95.7756 247.09 95.7902 247.826 95.6082 248.517C95.4262 249.216 94.9966 249.886 94.3487 250.206C93.9265 250.41 93.4314 250.461 92.9655 250.447C92.4122 250.432 91.8517 250.33 91.3421 250.104C90.8398 249.871 90.3884 249.493 90.1263 249.005C89.9516 248.678 89.8642 248.314 89.8133 247.95C89.7623 247.615 89.7332 247.272 89.7696 246.93C89.7914 246.705 89.8424 246.464 89.7405 246.261V232.989H90.7306L90.7888 246.253Z" fill="#000001"/>
<path d="M76.2433 251.065H64.5225L70.3392 247.833L76.2433 251.065Z" fill="#000001"/>
<path d="M70.798 239.039H69.8516V248.947H70.798V239.039Z" fill="#000001"/>
<path d="M60.0236 293.733H168.634C168.816 293.733 168.947 293.595 168.947 293.42V220.606C168.947 220.511 168.896 220.409 168.816 220.351L137.425 197.579C137.366 197.536 137.301 197.514 137.243 197.514H28.4429C28.2609 197.514 28.1299 197.652 28.1299 197.827V271.107C28.1299 271.202 28.1808 271.304 28.2609 271.369L59.8416 293.675C59.8998 293.719 59.958 293.733 60.0236 293.733ZM168.321 293.107H60.1182L28.756 270.947V198.147H137.141L168.321 220.766V293.107Z" fill="#000001"/>
<path d="M59.6741 292.605C59.8561 292.605 59.9872 292.467 59.9872 292.292V221.043H166.21C166.392 221.043 166.523 220.904 166.523 220.73C166.523 220.555 166.384 220.417 166.21 220.417H59.6741C59.4921 220.417 59.3611 220.555 59.3611 220.73V292.285C59.3611 292.459 59.5067 292.605 59.6741 292.605Z" fill="#000001"/>
<path d="M59.7031 220.904C59.7978 220.904 59.8997 220.861 59.9652 220.773C60.0599 220.635 60.0307 220.431 59.8924 220.329L47.298 211.302C47.1597 211.207 46.9559 211.236 46.8539 211.375C46.7593 211.513 46.7884 211.717 46.9267 211.819L59.5212 220.846C59.5721 220.882 59.6376 220.904 59.7031 220.904Z" fill="#000001"/>
<path d="M37.4993 204.794C37.5939 204.794 37.6886 204.75 37.7541 204.67C37.8487 204.532 37.8269 204.328 37.6885 204.226L28.7706 197.681C28.6322 197.586 28.4357 197.608 28.3265 197.747C28.2318 197.885 28.2537 198.089 28.392 198.191L37.3027 204.743C37.3755 204.779 37.441 204.794 37.4993 204.794Z" fill="#000001"/>
<path d="M46.0896 237.539C46.1115 237.539 46.1333 237.539 46.1551 237.532C46.3007 237.503 46.4027 237.379 46.4027 237.219V210.465H154.001C154.183 210.465 154.314 210.327 154.314 210.152C154.314 209.977 154.176 209.839 154.001 209.839H46.0896C45.9076 209.839 45.7766 209.977 45.7766 210.152V235.821L42.0128 227.849C41.9691 227.755 41.8818 227.697 41.7799 227.667C41.6852 227.653 41.576 227.682 41.5032 227.755L38.4311 230.885V205.201H146.415C146.597 205.201 146.728 205.063 146.728 204.888C146.728 204.714 146.59 204.575 146.415 204.575H38.1253C37.9433 204.575 37.8123 204.714 37.8123 204.888V231.664C37.8123 231.788 37.8851 231.912 38.0088 231.955C38.1326 232.006 38.2709 231.97 38.351 231.89L41.6488 228.527L45.813 237.364C45.8639 237.466 45.9731 237.539 46.0896 237.539Z" fill="#000001"/>
<path d="M44.8884 209.897C44.9831 209.897 45.0923 209.846 45.1505 209.759C45.2452 209.613 45.2088 209.417 45.0632 209.329L39.7633 205.827C39.6177 205.733 39.4212 205.769 39.3338 205.915C39.2464 206.06 39.2756 206.257 39.4212 206.344L44.721 209.846C44.7647 209.875 44.8302 209.897 44.8884 209.897Z" fill="#000001"/>
<path d="M189.003 120.142C189.003 120.142 139.201 120.142 139.099 120.098C136.005 120.338 133.005 118.336 131.513 115.606C130.821 114.34 130.399 112.833 130.814 111.45C131.222 110.066 132.671 108.938 134.076 109.266H150.834C150.834 109.266 157.037 95.6374 157.248 95.6374C159.155 95.135 161.157 95.2515 163.123 95.4044C168.459 95.8194 173.934 96.5328 178.593 99.1609C182.087 101.134 184.985 104.148 186.812 107.715C188.639 111.282 189.404 115.41 189.003 120.142Z" fill="#EBA70D"/>
<path d="M164.564 120.098C165.809 121.693 167.949 122.18 169.842 122.887C170.206 123.025 170.585 123.185 170.81 123.505C171.029 123.818 171.051 124.226 171.087 124.605C171.225 126.039 171.677 127.437 172.405 128.674C172.696 129.155 173.213 129.686 173.73 129.46C173.897 129.388 174.021 129.249 174.13 129.104C174.742 128.296 174.967 127.225 175.652 126.483C176.649 125.398 178.549 125.354 179.656 126.403C180.194 127.058 180.471 127.888 180.668 128.718C181.512 132.372 180.668 136.376 178.513 139.456C180.034 142.004 180.951 144.901 181.192 147.857C181.33 149.597 181.235 151.359 181.519 153.077C181.519 153.077 183.638 153.193 183.783 153.157C184.257 152.669 184.679 152.123 185.036 151.548L189.265 120.215L164.564 120.098Z" fill="#000001"/>
<path d="M147.274 120.047C147.485 121.714 148.06 123.338 148.956 124.757C149.218 123.258 149.356 121.729 149.349 120.2C149.349 120.142 149.349 120.084 149.305 120.047C149.262 120.004 149.196 120.004 149.131 120.004C148.592 120.018 148.046 120.047 147.274 120.047Z" fill="#000001"/>
<path d="M165.401 164.63L162.147 167.484C162.147 167.484 156.622 177.122 156.607 176.999C156.644 177.435 156.993 177.792 157.393 177.96C157.794 178.12 158.252 178.112 158.682 178.083C159.577 178.011 160.451 177.792 161.274 177.465C162.125 177.122 162.984 176.642 163.887 176.853C164.069 178.156 164.484 179.43 165.132 180.588C165.46 181.177 165.882 181.767 166.493 182.066C166.61 182.124 166.734 182.16 166.857 182.124C166.974 182.08 167.047 181.978 167.119 181.876C168.117 180.384 168.808 178.658 170.112 177.435C170.272 177.283 170.461 177.137 170.679 177.122C171.16 177.086 171.429 177.639 171.589 178.098C172.143 179.685 172.936 181.185 173.919 182.553C174.065 182.757 174.225 182.954 174.45 183.056C174.676 183.15 174.982 183.114 175.106 182.903C175.106 182.903 186.004 169.653 186.047 169.478C186.47 169.1 186.885 168.721 187.307 168.343C186.717 167.469 187.016 166.297 187.023 165.249C187.03 164.28 186.746 163.305 186.186 162.519C185.625 161.732 184.766 161.143 183.813 160.961L165.401 164.63Z" fill="#BBB0FF"/>
<path d="M164.681 120.186C162.584 114.42 157.015 110.074 150.914 109.455C150.914 109.455 157.131 95.419 157.357 95.4408C159.155 96.1324 160.633 97.4428 161.936 98.8551C163.509 100.544 164.899 102.444 165.736 104.599C166.639 106.921 166.858 109.469 166.712 111.959C166.566 114.449 166.064 116.902 165.569 119.348C165.525 119.559 165.474 119.785 165.336 119.945C165.183 120.098 164.906 120.156 164.681 120.186Z" fill="#BBB0FF"/>
<path d="M163.829 176.256L156.542 177.144C156.542 177.144 162.788 167.076 162.73 167.054C160.022 166.552 157.204 166.632 154.452 167.36C149.269 168.772 144.399 171.306 140.278 174.756L120.826 197.346L120.739 197.47H137.403L169.005 220.46V277.019C169.005 277.019 169.318 277.128 169.34 277.266C180.304 278.649 191.857 278.897 201.918 274.34C204.502 273.175 207.014 271.646 208.71 269.367C208.987 268.996 209.242 268.61 209.584 268.304C209.999 267.933 210.53 267.708 210.902 267.293C212.176 265.858 210.749 263.478 211.506 261.723C211.695 261.294 212.008 260.923 212.234 260.508C213.1 258.957 212.692 257.006 211.964 255.39C211.236 253.774 210.188 252.281 209.81 250.403C208.914 246.559 208.477 242.613 208.506 238.668L209.846 212.744C209.846 212.744 215.153 189.702 215.168 189.593C215.663 186.492 214.935 183.216 213.158 180.624C211.382 178.032 208.608 176.154 205.543 175.477L187.14 168.263L174.407 183.682L171.451 171.269L166.479 182.633L163.967 177.632L163.829 176.256Z" fill="#EBA70D"/>
<path d="M200.928 229.356C195.694 226.241 189.768 224.282 183.711 223.649L177.079 243.37L124.502 278.715C124.502 278.715 107.154 276.807 107.081 276.837C106.601 277.208 106.535 277.921 106.725 278.496C107.176 279.858 108.698 280.535 110.11 280.797C111.522 281.059 113.022 281.088 114.259 281.809C115.482 282.515 116.283 283.891 116.305 285.311C116.305 285.311 109.287 291.906 109.156 292.008C107.78 292.831 106.317 293.508 104.803 294.025C105.451 294.942 106.564 295.401 107.642 295.714C108.698 296.019 109.855 296.223 110.976 295.67C111.573 296.289 112.192 296.922 112.949 297.308C113.713 297.708 114.667 297.832 115.432 297.417C115.49 297.381 115.555 297.352 115.621 297.352C115.723 297.359 115.803 297.446 115.868 297.526C116.458 298.233 117.39 298.64 118.307 298.582C119.224 298.531 120.105 298.021 120.688 297.359C121.059 297.847 121.678 298.051 122.267 298.211C122.712 298.334 123.163 298.444 123.607 298.546C124.109 298.662 124.626 298.764 125.128 298.698C125.638 298.633 126.155 298.364 126.381 297.912L130.785 288.339C130.785 288.339 187.3 259.037 187.38 259.008C188.232 258.629 188.923 257.952 189.455 257.188C189.993 256.423 190.372 255.572 190.765 254.727L200.928 229.356Z" fill="white"/>
<path d="M156.141 101.767L159.657 101.971L156.644 104.65L159.053 105.08L154.103 107.693L154.707 104.847L153.506 104.708L156.141 101.767Z" fill="#EBA70D"/>
<path d="M149.298 120.105C148.788 127.866 149.087 135.685 150.179 143.387L150.783 144.166L145.876 148.898C145.876 148.898 151.271 147.012 151.351 147.223C152.006 151.096 153.084 154.897 154.569 158.529C155.02 159.636 155.537 160.764 156.469 161.507C157.16 162.053 158.02 162.337 158.879 162.49C161.077 162.89 163.407 162.497 165.358 161.405C165.358 161.405 165.656 169.85 165.926 169.93C165.969 170.381 166.02 170.854 166.297 171.204C166.595 171.582 167.083 171.75 167.556 171.844C168.648 172.056 169.777 171.968 170.891 171.888C170.949 171.881 171.007 171.874 171.058 171.844C171.124 171.801 171.153 171.721 171.182 171.648C171.342 171.248 171.611 170.891 172.186 170.563C175.593 168.75 179.015 166.923 182.051 164.528C182.888 163.858 183.769 163.028 183.82 161.958L183.558 153.208C183.558 153.208 181.672 153.237 181.832 153.026C181.316 150.674 181.323 148.235 181.002 145.855C180.682 143.474 179.954 141.021 178.411 139.194C180.398 137.476 181.017 134.658 181.17 132.037C181.235 130.953 181.235 129.853 180.981 128.791C180.726 127.728 180.18 126.716 179.313 126.061C178.804 125.682 178.192 125.42 177.559 125.442C176.802 125.464 176.088 125.879 175.572 126.439C175.055 127 174.713 127.691 174.421 128.397C174.247 128.82 174.065 129.271 173.671 129.504C173.278 129.737 172.638 129.54 172.448 129.002C171.575 127.553 171.509 125.769 171 124.153C170.941 123.964 170.876 123.775 170.738 123.622C170.563 123.432 170.315 123.338 170.068 123.25C168.663 122.741 167.287 122.151 165.955 121.481C165.321 121.161 164.622 120.717 164.542 120.011L149.298 120.105Z" fill="white"/>
<path d="M161.303 134.069C161.914 134.069 162.409 133.078 162.409 131.855C162.409 130.633 161.914 129.642 161.303 129.642C160.692 129.642 160.196 130.633 160.196 131.855C160.196 133.078 160.692 134.069 161.303 134.069Z" fill="#000001"/>
<path d="M152.618 133.428C153.229 133.428 153.724 132.437 153.724 131.215C153.724 129.992 153.229 129.002 152.618 129.002C152.007 129.002 151.511 129.992 151.511 131.215C151.511 132.437 152.007 133.428 152.618 133.428Z" fill="#000001"/>
<path d="M134.643 109.236C136.412 110.321 137.956 111.777 139.157 113.481C140.482 115.359 141.428 117.608 143.292 118.955C143.896 119.392 144.573 119.72 145.25 120.04C143.321 120.193 141.399 119.771 139.47 119.778C138.334 119.778 137.155 119.931 136.07 119.589C135.452 119.392 134.876 119.05 134.33 118.693C133.712 118.293 133.115 117.856 132.59 117.339C131.302 116.087 130.501 114.303 130.559 112.505C130.581 111.85 130.72 111.18 131.047 110.62C131.375 110.059 131.913 109.586 132.547 109.426C133.209 109.258 133.923 109.44 134.643 109.236Z" fill="#000001"/>
<path d="M198.475 235.479C198.475 235.479 201.015 229.182 201.139 229.313C202.355 230.012 203.294 231.096 204.109 232.239C204.371 232.611 204.626 232.989 204.765 233.419C204.896 233.848 204.896 234.343 204.663 234.722C204.342 235.246 203.687 235.45 203.097 235.603C201.598 236.003 199.945 236.389 198.475 235.479Z" fill="#000001"/>
<path d="M150.325 144.137C150.172 144.137 150.033 144.028 150.012 143.875C148.774 136.202 148.432 128.376 148.985 120.622C149 120.448 149.153 120.317 149.327 120.331C149.502 120.346 149.633 120.499 149.619 120.673C149.058 128.376 149.407 136.151 150.638 143.78C150.667 143.955 150.55 144.115 150.376 144.144C150.354 144.13 150.339 144.137 150.325 144.137Z" fill="#000001"/>
<path d="M144.26 149.888C144.137 149.888 144.027 149.822 143.976 149.706C143.904 149.553 143.962 149.378 144.1 149.298C150.507 145.513 154.998 138.56 155.828 131.171C155.843 130.996 156.01 130.873 156.178 130.894C156.352 130.909 156.476 131.076 156.462 131.244C155.712 137.891 152.086 144.188 146.779 148.25L160.16 143.045C160.32 142.979 160.502 143.059 160.567 143.227C160.633 143.387 160.553 143.569 160.385 143.634L144.384 149.866C144.34 149.888 144.297 149.888 144.26 149.888Z" fill="#000001"/>
<path d="M160.415 162.89C158.784 162.89 157.168 162.453 155.959 161.281C154.969 160.327 154.401 159.01 153.95 157.845C152.64 154.467 151.657 150.944 151.045 147.376C151.016 147.202 151.133 147.041 151.307 147.005C151.475 146.976 151.642 147.092 151.679 147.267C152.29 150.798 153.258 154.278 154.547 157.605C154.998 158.755 155.508 159.949 156.403 160.815C158.369 162.708 161.579 162.453 163.938 161.594C168.648 159.869 172.157 155.989 174.683 152.807C174.793 152.669 174.996 152.654 175.127 152.756C175.266 152.865 175.288 153.062 175.178 153.2C172.601 156.455 169.012 160.408 164.157 162.191C163.028 162.613 161.718 162.89 160.415 162.89Z" fill="#000001"/>
<path d="M168.219 172.339C167.797 172.339 167.353 172.303 166.938 172.165C166.377 171.983 165.736 171.524 165.562 170.803C165.423 170.534 165.198 169.282 165.198 161.47C165.198 161.296 165.343 161.157 165.511 161.157C165.678 161.157 165.824 161.303 165.824 161.47C165.824 165.409 165.918 169.821 166.086 170.447C166.122 170.49 166.151 170.541 166.159 170.6C166.232 171.014 166.61 171.386 167.127 171.56C167.637 171.728 168.212 171.713 168.765 171.684L170.483 171.619C170.49 171.619 170.498 171.619 170.498 171.619C170.665 171.619 170.811 171.75 170.811 171.924C170.818 172.099 170.68 172.245 170.505 172.252L168.787 172.318C168.612 172.332 168.416 172.339 168.219 172.339Z" fill="#000001"/>
<path d="M181.032 126.09C181.017 126.09 180.995 126.09 180.981 126.082C175.593 125.245 169.493 124.299 164.608 120.994C164.462 120.899 164.426 120.702 164.521 120.557C164.615 120.411 164.819 120.375 164.957 120.469C169.726 123.694 175.754 124.626 181.075 125.449C181.25 125.478 181.367 125.638 181.337 125.813C181.316 125.98 181.185 126.09 181.032 126.09Z" fill="#000001"/>
<path d="M177.086 139.987C177.057 139.987 177.035 139.987 177.006 139.987C176.14 139.958 175.288 139.448 174.472 138.466C174.363 138.335 174.378 138.131 174.516 138.022C174.654 137.912 174.851 137.927 174.96 138.065C175.659 138.902 176.351 139.332 177.028 139.354C178.535 139.405 179.452 137.461 179.692 136.871C180.58 134.68 180.915 132.27 180.675 129.919C180.493 128.164 179.925 126.956 178.993 126.337C178.375 125.929 177.574 125.835 176.773 126.075C175.979 126.315 175.361 126.847 175.077 127.524C175.004 127.706 174.946 127.895 174.887 128.084C174.793 128.39 174.705 128.703 174.538 129.002C174.218 129.562 173.548 130.014 172.893 129.781C172.39 129.599 172.143 129.111 171.968 128.659C171.386 127.189 171 125.653 170.811 124.088C170.789 123.913 170.913 123.753 171.087 123.738C171.247 123.724 171.415 123.84 171.437 124.015C171.619 125.529 171.997 127.014 172.551 128.434C172.682 128.776 172.842 129.096 173.104 129.191C173.417 129.3 173.795 129.031 173.985 128.696C174.116 128.463 174.196 128.194 174.283 127.917C174.349 127.706 174.407 127.495 174.494 127.298C174.851 126.439 175.615 125.784 176.591 125.485C177.566 125.187 178.571 125.311 179.343 125.828C180.442 126.556 181.097 127.91 181.308 129.868C181.57 132.321 181.214 134.833 180.282 137.126C179.918 137.978 178.899 139.987 177.086 139.987Z" fill="#000001"/>
<path d="M175.746 134.105C175.739 134.105 175.732 134.105 175.724 134.105C175.55 134.09 175.419 133.945 175.433 133.763C175.579 131.637 176.562 129.606 178.141 128.179C178.272 128.055 178.469 128.07 178.593 128.201C178.709 128.325 178.702 128.528 178.571 128.652C177.115 129.97 176.198 131.848 176.067 133.806C176.045 133.974 175.906 134.105 175.746 134.105Z" fill="#000001"/>
<path d="M177.348 135.612C177.319 135.612 177.29 135.605 177.261 135.597C177.093 135.554 176.999 135.372 177.042 135.204C177.217 134.593 177.399 133.967 177.384 133.348C177.37 132.7 177.13 132.132 176.737 131.826C176.598 131.717 176.576 131.521 176.686 131.382C176.795 131.244 176.991 131.222 177.13 131.331C177.683 131.761 178.011 132.496 178.025 133.341C178.04 134.061 177.836 134.76 177.654 135.386C177.61 135.517 177.486 135.612 177.348 135.612Z" fill="#000001"/>
<path d="M183.762 162.613C183.587 162.613 183.449 162.475 183.449 162.3L183.223 153.477L181.672 153.433C181.52 153.426 181.396 153.317 181.374 153.171C181.126 151.788 181.039 150.376 180.952 149.007C180.886 148.032 180.828 147.012 180.704 146.03C180.362 143.19 179.539 141.108 178.193 139.652C178.069 139.529 178.083 139.325 178.207 139.201C178.331 139.077 178.535 139.092 178.658 139.216C180.093 140.766 180.966 142.972 181.33 145.942C181.454 146.947 181.512 147.973 181.578 148.963C181.658 150.23 181.738 151.533 181.949 152.8L183.536 152.844C183.704 152.851 183.842 152.982 183.842 153.157L184.075 162.279C184.082 162.461 183.944 162.606 183.762 162.613C183.769 162.613 183.769 162.613 183.762 162.613Z" fill="#000001"/>
<path d="M154.503 127.975C154.402 127.975 154.3 127.924 154.241 127.83C153.892 127.298 153.339 126.905 152.72 126.745C152.101 126.592 151.431 126.665 150.863 126.963C150.711 127.043 150.521 126.985 150.441 126.832C150.361 126.679 150.419 126.49 150.572 126.41C151.271 126.039 152.108 125.937 152.88 126.141C153.644 126.337 154.336 126.832 154.766 127.487C154.86 127.633 154.824 127.83 154.671 127.924C154.627 127.953 154.569 127.975 154.503 127.975Z" fill="#000001"/>
<path d="M163.982 127.953C163.916 127.953 163.858 127.939 163.8 127.902C162.351 126.927 160.291 126.869 158.791 127.771C158.638 127.866 158.449 127.815 158.362 127.662C158.267 127.509 158.318 127.32 158.471 127.233C160.204 126.192 162.489 126.257 164.164 127.385C164.309 127.48 164.346 127.677 164.251 127.822C164.186 127.902 164.084 127.953 163.982 127.953Z" fill="#000001"/>
<path d="M163.8 149.378C163.429 149.378 163.065 149.313 162.715 149.189C161.9 148.883 161.492 148.133 161.623 147.18C161.638 147.1 161.674 147.027 161.74 146.976C162.854 146.08 163.851 145.054 164.725 143.933C164.914 143.693 165.096 143.452 165.351 143.285C165.7 143.052 166.115 143.016 166.435 143.176C166.683 143.3 166.836 143.54 166.93 143.7C167.316 144.37 167.462 145.214 167.353 146.051C167.2 147.143 166.639 148.126 165.802 148.73C165.198 149.153 164.492 149.378 163.8 149.378ZM162.235 147.384C162.169 148.141 162.577 148.454 162.934 148.592C163.72 148.883 164.695 148.738 165.416 148.214C166.108 147.711 166.588 146.874 166.719 145.964C166.814 145.258 166.69 144.566 166.377 144.006C166.326 143.911 166.246 143.78 166.144 143.729C166.02 143.664 165.831 143.714 165.7 143.802C165.533 143.911 165.394 144.093 165.249 144.282C164.346 145.44 163.334 146.481 162.235 147.384Z" fill="#000001"/>
<path d="M148.432 124.51C148.308 124.51 148.199 124.444 148.141 124.321C147.609 123.127 147.223 121.867 147.005 120.579C146.976 120.404 147.092 120.244 147.267 120.207C147.434 120.178 147.602 120.295 147.638 120.47C147.849 121.707 148.221 122.916 148.73 124.059C148.796 124.219 148.73 124.401 148.57 124.481C148.519 124.495 148.483 124.51 148.432 124.51Z" fill="#000001"/>
<path d="M189.003 120.462C145.665 120.462 139.936 120.44 139.121 120.411V120.426C136.056 120.666 132.889 118.795 131.229 115.774C130.632 114.675 130.013 113.022 130.501 111.377C130.931 109.921 132.474 108.61 134.105 108.967H150.623C156.258 96.5984 156.898 95.4554 157.161 95.3535C159.075 94.8439 161.077 94.9531 163.137 95.1133C168.11 95.4991 173.832 96.1397 178.746 98.9134C182.277 100.901 185.247 103.995 187.096 107.598C188.967 111.253 189.717 115.49 189.324 120.186C189.302 120.331 189.163 120.462 189.003 120.462ZM139.128 119.785C140.023 119.822 184.643 119.829 188.712 119.829C189.047 115.366 188.312 111.34 186.528 107.875C184.73 104.373 181.854 101.381 178.433 99.4521C173.635 96.7513 168 96.1179 163.094 95.7321C161.128 95.5792 159.221 95.4845 157.423 95.9286C156.898 96.8095 153.404 104.373 151.111 109.411C151.06 109.528 150.951 109.593 150.82 109.593H134.061C134.039 109.593 134.017 109.593 133.996 109.586C132.729 109.295 131.455 110.387 131.105 111.551C130.683 112.993 131.236 114.478 131.782 115.461C133.319 118.271 136.252 120.004 139.07 119.785C139.099 119.785 139.113 119.785 139.128 119.785Z" fill="#000001"/>
<path d="M164.542 120.12C164.419 120.12 164.31 120.055 164.251 119.931C161.973 114.711 157.08 110.831 151.482 109.812C151.307 109.782 151.191 109.615 151.227 109.44C151.264 109.266 151.431 109.149 151.599 109.186C157.408 110.248 162.475 114.267 164.834 119.676C164.899 119.836 164.826 120.018 164.674 120.091C164.623 120.113 164.586 120.12 164.542 120.12Z" fill="#000001"/>
<path d="M165.962 118.671C165.948 118.671 165.933 118.671 165.918 118.664C165.744 118.642 165.627 118.482 165.649 118.307C166.202 114.471 166.828 110.117 165.766 106.128C164.739 102.255 162.031 98.7824 158.529 96.8313C158.376 96.744 158.325 96.5547 158.405 96.4018C158.493 96.2489 158.682 96.198 158.835 96.2781C162.482 98.3092 165.3 101.927 166.377 105.96C167.469 110.081 166.836 114.493 166.282 118.395C166.253 118.555 166.115 118.671 165.962 118.671Z" fill="#000001"/>
<path d="M166.457 183.041C166.333 183.041 166.224 182.976 166.166 182.859L163.734 177.785C163.72 177.741 163.705 177.705 163.705 177.661L163.305 167.6C163.297 167.426 163.428 167.28 163.61 167.273C163.814 167.258 163.931 167.396 163.938 167.578L164.331 177.574L166.428 181.942C171.007 170.6 171.269 170.505 171.429 170.447C175.44 168.532 180.005 166.348 183.259 162.861C183.383 162.737 183.572 162.73 183.711 162.846C183.834 162.97 183.842 163.167 183.725 163.298C180.413 166.85 175.804 169.056 171.742 171C171.305 171.699 168.546 178.411 166.755 182.845C166.712 182.961 166.603 183.041 166.472 183.041C166.464 183.041 166.464 183.041 166.457 183.041Z" fill="#000001"/>
<path d="M174.451 184.14C174.429 184.14 174.407 184.14 174.385 184.133C174.261 184.104 174.174 184.009 174.152 183.893L171.473 171.779C171.429 171.604 171.539 171.437 171.713 171.4C171.895 171.364 172.055 171.466 172.092 171.641L174.633 183.099L185.662 169.165C185.771 169.027 185.975 169.005 186.106 169.115C186.244 169.224 186.266 169.42 186.157 169.559L174.713 184.017C174.647 184.097 174.552 184.14 174.451 184.14Z" fill="#000001"/>
<path d="M166.464 214.673C166.29 214.673 166.151 214.527 166.151 214.36V184.184C166.151 184.009 166.297 183.871 166.464 183.871C166.639 183.871 166.777 184.017 166.777 184.184V214.352C166.785 214.527 166.639 214.673 166.464 214.673Z" fill="#000001"/>
<path d="M188.989 206.65C188.974 206.65 188.945 206.65 188.93 206.643L171.844 202.828C171.699 202.792 171.611 202.661 171.648 202.53C171.684 202.391 171.822 202.311 171.961 202.34L189.047 206.155C189.192 206.192 189.28 206.323 189.243 206.454C189.214 206.57 189.112 206.65 188.989 206.65Z" fill="#000001"/>
<path d="M109.018 296.391C109.688 296.391 110.336 296.267 110.903 296.005C110.925 295.99 110.947 295.983 110.962 295.968L117.281 291.047C117.404 290.952 117.434 290.77 117.332 290.647C117.237 290.523 117.055 290.494 116.931 290.596L110.634 295.495C109.447 296.012 107.904 295.896 106.506 295.182C105.866 294.855 105.429 294.476 105.196 294.054C106.812 293.653 108.37 292.903 109.717 291.855C109.731 291.841 109.753 291.819 109.768 291.804C110.008 291.542 113.91 287.822 116.502 285.369C116.567 285.31 116.596 285.223 116.589 285.136C116.465 283.359 115.206 281.721 113.517 281.146C112.949 280.957 112.359 280.884 111.792 280.811C111.5 280.775 111.202 280.739 110.903 280.688C109.877 280.498 108.88 280.098 108.006 279.523C107.416 279.13 107.081 278.758 106.929 278.343C106.783 277.936 106.885 277.383 107.256 277.171C107.991 277.288 111.042 277.616 124.444 278.984C124.51 278.991 124.575 278.97 124.633 278.94L177.231 243.647C177.282 243.611 177.326 243.56 177.348 243.494L193.291 195.796C193.342 195.643 193.262 195.483 193.109 195.432C192.956 195.381 192.796 195.461 192.745 195.614L176.838 243.225L124.408 278.402C118.613 277.812 107.766 276.684 107.263 276.604C107.198 276.589 107.132 276.589 107.074 276.618C106.353 276.953 106.157 277.87 106.397 278.533C106.645 279.232 107.263 279.705 107.7 279.996C108.632 280.615 109.709 281.052 110.816 281.256C111.122 281.314 111.428 281.35 111.733 281.387C112.301 281.452 112.84 281.525 113.349 281.7C114.784 282.18 115.861 283.549 116.029 285.048C110.911 289.911 109.695 291.084 109.389 291.411L109.382 291.404C108.013 292.474 106.404 293.224 104.759 293.573C104.679 293.588 104.606 293.639 104.57 293.712C104.533 293.784 104.519 293.864 104.548 293.945C104.766 294.643 105.349 295.233 106.266 295.706C107.154 296.165 108.108 296.391 109.018 296.391Z" fill="#000001"/>
<path d="M114.121 298.167C114.703 298.167 115.25 297.919 115.563 297.497L121.044 292.758C121.168 292.656 121.175 292.467 121.073 292.35C120.972 292.226 120.782 292.219 120.666 292.321L115.162 297.082C115.148 297.097 115.126 297.119 115.118 297.133C114.878 297.483 114.354 297.657 113.844 297.555C113.408 297.468 112.971 297.221 112.461 296.776C112.308 296.645 112.163 296.5 112.01 296.362C111.733 296.099 111.449 295.823 111.122 295.59C110.998 295.495 110.816 295.524 110.721 295.655C110.627 295.779 110.656 295.968 110.787 296.056C111.078 296.267 111.34 296.514 111.617 296.784C111.77 296.929 111.923 297.075 112.075 297.213C112.447 297.541 113.022 297.992 113.728 298.131C113.852 298.152 113.99 298.167 114.121 298.167Z" fill="#000001"/>
<path d="M118.038 299.084C118.657 299.084 119.275 298.895 119.778 298.524L124.859 293.319C124.968 293.202 124.968 293.027 124.852 292.911C124.735 292.802 124.561 292.802 124.444 292.918L119.406 298.087C118.868 298.465 118.118 298.604 117.441 298.429C116.771 298.247 116.167 297.752 115.883 297.119C115.817 296.973 115.65 296.915 115.504 296.973C115.359 297.039 115.301 297.206 115.359 297.352C115.723 298.152 116.443 298.764 117.295 298.982C117.535 299.055 117.79 299.084 118.038 299.084Z" fill="#000001"/>
<path d="M124.575 299.237C124.67 299.237 124.757 299.23 124.859 299.223C125.587 299.15 126.213 298.749 126.475 298.182L130.923 288.71C144.311 281.751 187.504 259.306 187.7 259.161C189.222 257.996 190.408 256.445 191.144 254.669L201.088 229.619C201.146 229.466 201.073 229.306 200.928 229.247C200.782 229.189 200.615 229.262 200.557 229.407L190.619 254.458C189.935 256.132 188.807 257.603 187.365 258.702C186.732 259.073 131.149 287.953 130.581 288.252C130.523 288.281 130.479 288.324 130.457 288.383L125.966 297.941C125.784 298.32 125.332 298.604 124.808 298.655C124.269 298.706 123.723 298.553 123.25 298.393C122.406 298.102 121.59 297.738 120.819 297.286C120.68 297.206 120.506 297.25 120.426 297.388C120.346 297.526 120.389 297.701 120.528 297.781C121.328 298.247 122.187 298.64 123.068 298.931C123.512 299.084 124.037 299.237 124.575 299.237Z" fill="#000001"/>
<path d="M204.823 234.423C204.954 234.423 205.07 234.329 205.106 234.198L209.977 213.238C210.013 213.086 209.919 212.925 209.766 212.896C209.613 212.86 209.453 212.962 209.424 213.107L204.553 234.067C204.517 234.219 204.611 234.38 204.764 234.409C204.786 234.423 204.808 234.423 204.823 234.423Z" fill="#000001"/>
<path d="M123.913 296.311C123.978 296.311 124.051 296.289 124.102 296.238C124.168 296.187 124.197 296.107 124.197 296.027C124.197 295.357 124.248 294.665 124.357 293.996C124.379 293.843 124.277 293.69 124.117 293.668C123.964 293.646 123.811 293.748 123.789 293.908C123.694 294.498 123.636 295.102 123.629 295.699C123.265 295.634 122.923 295.524 122.588 295.371C122.442 295.306 122.275 295.364 122.209 295.517C122.144 295.663 122.202 295.83 122.355 295.896C122.835 296.121 123.359 296.267 123.891 296.318C123.898 296.311 123.905 296.311 123.913 296.311Z" fill="#000001"/>
<path d="M179.983 199.931C179.896 199.931 179.816 199.894 179.75 199.836C179.656 199.734 179.634 199.574 179.707 199.45L182.684 194.631L178.273 194.056C178.149 194.041 178.04 193.954 178.01 193.83C177.974 193.706 178.018 193.583 178.105 193.495L184.431 188.159C184.497 188.101 184.584 188.072 184.672 188.086L189.913 188.727C190.037 188.741 190.139 188.821 190.175 188.945C190.219 189.062 190.183 189.193 190.088 189.273L187.409 191.784L190.881 193.255C190.991 193.299 191.063 193.408 191.071 193.532C191.078 193.655 191.013 193.765 190.911 193.823L180.136 199.894C180.085 199.916 180.034 199.931 179.983 199.931ZM179.066 193.51L183.252 194.056C183.354 194.07 183.456 194.136 183.5 194.238C183.543 194.34 183.543 194.449 183.485 194.543L180.893 198.737L190.037 193.583L186.71 192.17C186.615 192.127 186.543 192.039 186.521 191.937C186.506 191.835 186.535 191.726 186.615 191.646L189.156 189.273L184.723 188.734L179.066 193.51Z" fill="#000001"/>
<path d="M198.817 191.682C198.795 191.682 198.773 191.683 198.751 191.675C198.576 191.639 198.467 191.471 198.511 191.304C199.537 186.463 202.668 182.029 206.883 179.43C207.036 179.336 207.225 179.387 207.32 179.532C207.414 179.685 207.363 179.874 207.218 179.969C203.141 182.473 200.12 186.754 199.137 191.428C199.093 191.581 198.962 191.682 198.817 191.682Z" fill="#000001"/>
<path d="M143.94 201.467C143.765 201.467 143.627 201.387 143.627 201.285V188.916C143.627 188.814 143.773 188.734 143.94 188.734C144.107 188.734 144.253 188.814 144.253 188.916V201.285C144.26 201.387 144.122 201.467 143.94 201.467Z" fill="#000001"/>
</svg>
