<svg width="364" height="227" viewBox="0 0 364 227" fill="none" xmlns="http://www.w3.org/2000/svg">
<g clip-path="url(#clip0_199_6214)">
<path d="M307.776 101.507C307.109 101.449 306.611 101.445 306.06 101.078C307.252 98.2409 310.521 95.1211 312.972 93.7375C320.195 89.6598 328.805 89.7283 336.58 92.555C339.696 93.6875 343.848 95.7936 345.631 97.6421C343.628 97.6595 341.621 97.6466 339.618 97.6481C336.05 97.6503 337.072 97.9412 334.602 96.4541C331.88 94.8152 328.596 93.7947 324.913 93.6437C319.301 93.4139 312.243 95.735 309.108 99.755C308.721 100.252 308.282 101.053 307.776 101.507ZM320.148 79.9959C325.443 79.3211 335.564 81.8009 340.735 83.83C342.662 84.586 344.769 85.7526 346.473 86.2855L346.473 89.1005C344.925 88.5694 342.221 87.0012 340.542 86.1908C334.725 83.3824 326.577 81.2467 320.148 79.9959ZM288.914 77.8423C289.034 77.132 291.528 65.6637 292.338 65.4482H310.671C311.355 65.5947 311.884 67.4227 312.277 68.419C316.905 80.1495 316.707 75.9682 314.278 80.3477C311.308 80.4659 308.117 80.3451 305.123 80.3314C300.443 80.3101 301.095 80.6305 298.934 77.7232L288.914 77.8423ZM282.94 79.4895C280.67 79.4907 280.628 79.1534 280.018 78.4486C279.193 77.496 280.234 78.1136 278.73 77.7863C276.666 77.3376 275.743 75.0617 276.523 72.7199L277.629 74.6597C277.551 73.2579 276.996 71.3576 277.928 70.8021C279.202 70.0429 280.558 70.864 281.136 71.5726C283.595 74.5841 280.565 76.5895 280.547 78.231C282.237 79.3962 283.636 78.3572 284.666 78.9296C284.271 79.587 283.916 79.489 282.94 79.4895ZM280.767 85.0981C269.795 85.5983 270.574 84.0082 270.577 73.8741C270.579 67.2094 268.93 61.0182 280.954 62.9059C276.296 64.486 275.2 62.7205 273.043 64.9699C271.187 66.9069 271.835 70.9124 271.835 73.8741C271.835 79.4841 270.817 84.1263 276.662 84.3432C278.281 84.4032 279.384 84.6676 280.767 85.0981ZM277.624 57.3226C276.229 56.4298 274.561 47.3917 259.513 42.5883C258.231 42.1789 251.834 40.3225 251.013 40.5917C259.397 39.3443 274.488 44.2685 281.466 50.3016C283.237 51.8334 286.818 55.2893 287.71 57.2873L277.624 57.3226ZM242.169 60.2103L239.371 60.2268L236.376 98.6043L277.98 98.6108C277.686 99.2572 277.447 99.5509 277.094 100.072C276.641 100.737 276.69 100.848 275.935 101.197L219.863 101.197L218.707 109.801L308.982 109.804C309.585 109.632 310.291 107.267 311.761 105.534C315.464 101.168 321.312 98.6692 327.308 100.137C334.414 101.876 339.7 107.629 339.541 116.245C342.676 115.967 344.792 114.599 346.695 113.197C348.853 111.608 350.126 109.228 350.14 106.385C350.158 102.944 350.68 88.5258 349.629 86.509C349.145 85.5812 347.839 84.4913 347.092 83.9821C344.008 81.8791 339.771 80.5464 336.077 79.5674C331.155 78.2629 323.757 76.7371 318.519 76.3535L312.328 63.7828C312.847 63.2761 313.318 62.8038 313.721 62.4046C309.218 58.9336 302.164 57.9132 295.575 56.6601C289.156 55.4391 292.93 56.0698 288.347 51.8567C285.769 49.4859 285.788 48.7767 282.037 46.1176C277.259 42.7311 272.719 40.1947 265.799 38.4785C261.81 37.489 247.915 35.6026 244.024 36.4898L242.169 60.2103Z" fill="#011B94"/>
<path d="M13.7148 42.4685L217.861 43.4686L217.134 49.3522L91.6418 50.4856C90.4965 50.4961 75.1189 50.3183 73.93 50.9391L216.262 56.0552L211.028 97.4862L103.532 102.397L216.835 104.313C217.443 103.038 222.469 61.1659 223.406 53.6832C224.112 48.0521 225.058 42.1478 225.565 36.4994C208 36.4994 190.061 37.3502 172.465 37.8645L40.0189 41.6559C31.5375 41.8947 22.0171 41.791 13.7148 42.4685Z" fill="#011B94"/>
<path d="M313.594 116.245C314.368 111.128 317.719 106.935 321.884 105.527C328.098 103.427 331.883 106.591 335.504 109.45C334.695 107.61 332.18 105.203 330.466 104.198C325.373 101.212 319.24 102.465 314.881 105.999C313.894 106.799 313.323 107.409 312.385 108.565L310.379 111.715L291.856 111.82C211.647 111.946 131.57 112.339 51.3579 112.969L14.8394 113.525C64.5158 113.949 114.231 114.767 163.918 115.382C213.797 115.999 263.705 116.245 313.594 116.245Z" fill="#011B94"/>
<path d="M226.115 14.1386C235.831 17.2396 232.089 34.519 231.139 40.9519C228.449 40.9519 229.172 39.7844 228.25 46.521C227.487 52.1012 221.194 96.5832 221.2 98.6108H233.209L239.782 40.9605L238.454 40.9519C239.561 33.6199 241.022 27.1364 238.829 19.6605C237.147 13.9296 233.008 8.95732 227.45 7.18359L226.115 14.1386Z" fill="#011B94"/>
<path d="M319.673 114.359C319.416 115.314 319.385 116.177 319.578 116.953C319.77 117.729 320.158 118.343 320.74 118.796C321.322 119.249 322.069 119.477 322.984 119.477C323.913 119.477 324.79 119.249 325.612 118.796C326.433 118.343 327.147 117.729 327.753 116.953C328.358 116.177 328.787 115.314 329.044 114.359C329.3 113.404 329.335 112.54 329.145 111.768C328.955 110.995 328.57 110.385 327.991 109.935C327.411 109.486 326.655 109.261 325.727 109.261C324.812 109.261 323.943 109.486 323.119 109.935C322.294 110.385 321.578 110.995 320.97 111.768C320.361 112.54 319.929 113.404 319.673 114.359ZM317.362 114.359C317.633 113.347 318.066 112.403 318.656 111.529C319.246 110.655 319.943 109.893 320.748 109.24C321.553 108.587 322.428 108.078 323.378 107.713C324.327 107.348 325.298 107.165 326.289 107.165C327.295 107.165 328.175 107.348 328.925 107.713C329.675 108.078 330.277 108.587 330.734 109.24C331.192 109.893 331.477 110.655 331.587 111.529C331.697 112.403 331.616 113.347 331.344 114.359C331.071 115.377 330.648 116.321 330.073 117.195C329.497 118.069 328.806 118.835 328.003 119.491C327.201 120.148 326.325 120.66 325.375 121.025C324.426 121.39 323.441 121.573 322.421 121.573C321.394 121.573 320.504 121.39 319.747 121.025C318.99 120.66 318.389 120.148 317.943 119.491C317.497 118.835 317.22 118.069 317.114 117.195C317.007 116.321 317.088 115.377 317.362 114.359Z" fill="#011B94"/>
<path d="M38.3358 69.773H32.5439V64.9653H49.6068V69.773H43.8334V89.1874H38.3358V69.773ZM57.7521 64.9653H63.2128L72.7923 89.1874H66.927L65.1618 84.3247H55.8215L54.038 89.1874H48.1542L57.7521 64.9653ZM57.6601 79.517H63.3416L60.5284 71.5714H60.4733L57.6601 79.517ZM74.7597 64.9653H83.5852C85.1419 64.9653 86.5455 65.2345 87.7958 65.7788C89.0461 66.3233 90.045 67.149 90.7866 68.2561C91.5283 69.3632 91.896 70.7517 91.896 72.4155C91.896 74.067 91.5283 75.4678 90.7866 76.6238C90.045 77.7799 89.0461 78.6607 87.7958 79.2662C86.5455 79.8717 85.1419 80.1775 83.5852 80.1775H80.2573V89.1874H74.7597V64.9653ZM80.2573 75.8469H82.0592C82.8068 75.8469 83.481 75.7368 84.0755 75.5166C84.67 75.2964 85.1419 74.9416 85.4975 74.4584C85.853 73.9753 86.0306 73.3391 86.0306 72.544C86.0306 71.7365 85.853 71.0942 85.4975 70.6232C85.1419 70.1522 84.67 69.8159 84.0755 69.6079C83.481 69.3999 82.8068 69.2959 82.0592 69.2959H80.2573V75.8469Z" fill="black"/>
<path d="M103.669 64.9655H109.167V84.3798H117.974V89.1876H103.669V64.9655Z" fill="black"/>
<path d="M171.466 64.9655H176.926L186.506 89.1876H180.64L178.875 84.3248H169.535L167.751 89.1876H161.868L171.466 64.9655ZM171.374 79.5171H177.055L174.242 71.5715H174.187L171.374 79.5171ZM188.492 64.9655H195.791C198.377 64.9655 200.522 65.4793 202.22 66.5129C203.918 67.5467 205.186 68.978 206.032 70.8008C206.878 72.6236 207.301 74.7094 207.301 77.0582C207.301 79.4193 206.878 81.511 206.032 83.3339C205.186 85.1566 203.918 86.5879 202.22 87.6278C200.522 88.6676 198.377 89.1876 195.791 89.1876H188.492V64.9655ZM193.971 69.8282V84.3248H195.295C196.68 84.3248 197.826 84.0067 198.733 83.3767C199.64 82.7467 200.326 81.8842 200.786 80.7894C201.246 79.6944 201.472 78.465 201.472 77.0948C201.472 75.7125 201.252 74.4708 200.804 73.3759C200.357 72.281 199.67 71.4186 198.751 70.7825C197.832 70.1464 196.68 69.8282 195.295 69.8282H193.971Z" fill="black"/>
<path d="M51.5361 119.514H55.0962C55.6195 119.514 56.089 119.621 56.5048 119.838C56.9206 120.055 57.2523 120.369 57.4976 120.782C57.7429 121.195 57.8643 121.694 57.8643 122.276C57.8643 122.855 57.7569 123.328 57.5419 123.698C57.327 124.069 57.0701 124.349 56.7688 124.535C56.4674 124.722 56.187 124.829 55.9301 124.857L58.2006 128.746H56.2244L54.1712 124.99H53.2811V128.746H51.5361V119.514ZM53.2811 123.759H54.4725C54.9163 123.759 55.2947 123.649 55.6054 123.43C55.9162 123.211 56.0703 122.843 56.0703 122.325C56.0703 121.808 55.9162 121.442 55.6077 121.23C55.2994 121.018 54.9256 120.913 54.4865 120.913H53.2811V123.759ZM59.7354 128.746V123.004H61.5084V128.746H59.7354ZM60.6464 121.521C60.352 121.521 60.1045 121.419 59.9012 121.213C59.6981 121.008 59.5952 120.763 59.5952 120.479C59.5952 120.195 59.6981 119.947 59.9036 119.738C60.1091 119.528 60.3567 119.423 60.6464 119.423C60.8379 119.423 61.0131 119.47 61.1719 119.565C61.3308 119.661 61.4593 119.789 61.5574 119.947C61.6554 120.106 61.7046 120.283 61.7046 120.479C61.7046 120.763 61.6018 121.008 61.3939 121.213C61.186 121.419 60.9361 121.521 60.6464 121.521ZM66.0493 131.816C65.6289 131.816 65.2271 131.776 64.8417 131.697C64.4563 131.618 64.1059 131.494 63.7928 131.327C63.4798 131.159 63.2182 130.939 63.008 130.669L64.0872 129.578C64.1852 129.704 64.3137 129.83 64.4703 129.958C64.6268 130.086 64.8254 130.193 65.0683 130.28C65.3112 130.366 65.6149 130.41 65.9793 130.41C66.3251 130.41 66.624 130.343 66.8739 130.21C67.1239 130.077 67.3179 129.89 67.4556 129.648C67.5934 129.406 67.6612 129.123 67.6612 128.802V128.641H69.4061V128.907C69.4061 129.541 69.2566 130.075 68.9577 130.508C68.6586 130.942 68.2568 131.268 67.7523 131.487C67.2477 131.707 66.6801 131.816 66.0493 131.816ZM67.6612 128.746V127.746C67.6192 127.848 67.5116 127.993 67.3388 128.179C67.1659 128.366 66.9347 128.534 66.6428 128.685C66.3507 128.837 66.0073 128.914 65.6149 128.914C65.0636 128.914 64.5754 128.781 64.1503 128.517C63.7251 128.254 63.3933 127.892 63.1529 127.433C62.9122 126.974 62.7907 126.457 62.7907 125.878C62.7907 125.3 62.9122 124.78 63.1529 124.321C63.3933 123.862 63.7251 123.5 64.1503 123.235C64.5754 122.969 65.0636 122.836 65.6149 122.836C65.998 122.836 66.332 122.899 66.6146 123.027C66.8972 123.155 67.1263 123.304 67.3014 123.475C67.4767 123.645 67.5887 123.799 67.6401 123.934V123.004H69.4061V128.746H67.6612ZM64.5357 125.878C64.5357 126.2 64.6081 126.482 64.753 126.727C64.8978 126.972 65.0894 127.163 65.3276 127.298C65.5658 127.433 65.8251 127.501 66.1055 127.501C66.3997 127.501 66.6614 127.431 66.8903 127.293C67.1192 127.156 67.3014 126.965 67.4345 126.72C67.5678 126.475 67.6331 126.195 67.6331 125.878C67.6331 125.561 67.5678 125.279 67.4345 125.034C67.3014 124.79 67.1192 124.598 66.8903 124.458C66.6614 124.319 66.3997 124.249 66.1055 124.249C65.8251 124.249 65.5658 124.316 65.3276 124.454C65.0894 124.591 64.8978 124.782 64.753 125.027C64.6081 125.272 64.5357 125.557 64.5357 125.878ZM74.6199 122.836C75.0123 122.836 75.3954 122.915 75.7691 123.076C76.1429 123.237 76.4513 123.493 76.6919 123.843C76.9326 124.193 77.0517 124.65 77.0517 125.214V128.746H75.2647V125.522C75.2647 125.051 75.1596 124.701 74.947 124.472C74.7344 124.244 74.4494 124.13 74.0943 124.13C73.8561 124.13 73.6295 124.193 73.4122 124.321C73.1949 124.449 73.0174 124.626 72.8796 124.853C72.7419 125.079 72.6718 125.337 72.6718 125.626V128.746H70.8847V119.122H72.6718V123.92C72.7185 123.761 72.833 123.598 73.0151 123.43C73.1973 123.263 73.4286 123.12 73.7089 123.006C73.9893 122.892 74.2928 122.836 74.6199 122.836ZM77.9698 123.004H79.0068V120.647H80.7729V123.004H82.1323V124.48H80.7729V126.557C80.7729 126.832 80.8173 127.044 80.906 127.195C80.9948 127.347 81.1349 127.424 81.3266 127.424C81.4713 127.424 81.5904 127.394 81.6839 127.335C81.7773 127.277 81.8334 127.237 81.8521 127.214L82.4827 128.487C82.4547 128.515 82.366 128.564 82.2141 128.634C82.0623 128.704 81.8684 128.767 81.6326 128.825C81.3966 128.883 81.1302 128.914 80.8359 128.914C80.308 128.914 79.8712 128.76 79.5255 128.454C79.1797 128.149 79.0068 127.676 79.0068 127.032V124.48H77.9698V123.004ZM87.052 119.514H92.1958V121.06H88.8039V123.347H91.9505V124.885H88.8039V128.746H87.052V119.514ZM93.7024 128.746V123.004H95.4753V128.746H93.7024ZM94.6134 121.521C94.319 121.521 94.0715 121.419 93.8682 121.213C93.665 121.008 93.5622 120.763 93.5622 120.479C93.5622 120.195 93.665 119.947 93.8706 119.738C94.0761 119.528 94.3237 119.423 94.6134 119.423C94.8049 119.423 94.9801 119.47 95.1389 119.565C95.2978 119.661 95.4262 119.789 95.5244 119.947C95.6224 120.106 95.6716 120.283 95.6716 120.479C95.6716 120.763 95.5688 121.008 95.3609 121.213C95.1529 121.419 94.9031 121.521 94.6134 121.521ZM96.6105 123.004H97.6477V120.647H99.4137V123.004H100.773V124.48H99.4137V126.557C99.4137 126.832 99.4581 127.044 99.5468 127.195C99.6357 127.347 99.7757 127.424 99.9673 127.424C100.112 127.424 100.231 127.394 100.325 127.335C100.418 127.277 100.474 127.237 100.493 127.214L101.124 128.487C101.096 128.515 101.007 128.564 100.855 128.634C100.703 128.704 100.509 128.767 100.273 128.825C100.037 128.883 99.771 128.914 99.4768 128.914C98.9488 128.914 98.512 128.76 98.1662 128.454C97.8205 128.149 97.6477 127.676 97.6477 127.032V124.48H96.6105V123.004ZM107.459 121.06H105.139V119.514H111.523V121.06H109.211V128.746H107.459V121.06ZM114.417 128.914C113.806 128.914 113.261 128.783 112.782 128.522C112.303 128.261 111.927 127.902 111.656 127.447C111.385 126.993 111.25 126.475 111.25 125.892C111.25 125.309 111.385 124.787 111.656 124.328C111.927 123.869 112.303 123.505 112.782 123.237C113.261 122.969 113.806 122.836 114.417 122.836C115.034 122.836 115.578 122.969 116.05 123.237C116.522 123.505 116.891 123.869 117.158 124.328C117.424 124.787 117.557 125.309 117.557 125.892C117.557 126.475 117.424 126.993 117.158 127.447C116.891 127.902 116.522 128.261 116.05 128.522C115.578 128.783 115.034 128.914 114.417 128.914ZM114.417 127.438C114.712 127.438 114.969 127.37 115.186 127.237C115.403 127.105 115.571 126.92 115.691 126.685C115.81 126.449 115.868 126.184 115.868 125.885C115.868 125.587 115.81 125.319 115.691 125.081C115.571 124.843 115.403 124.654 115.186 124.517C114.969 124.379 114.712 124.312 114.417 124.312C114.123 124.312 113.869 124.379 113.651 124.517C113.434 124.654 113.264 124.843 113.142 125.081C113.021 125.319 112.96 125.587 112.96 125.885C112.96 126.184 113.021 126.449 113.142 126.685C113.264 126.92 113.434 127.105 113.651 127.237C113.869 127.37 114.123 127.438 114.417 127.438ZM122.42 119.514H124.172V127.2H127.641V128.746H122.42V119.514ZM131.902 128.914C131.29 128.914 130.746 128.783 130.267 128.522C129.788 128.261 129.412 127.902 129.141 127.447C128.87 126.993 128.734 126.475 128.734 125.892C128.734 125.309 128.87 124.787 129.141 124.328C129.412 123.869 129.788 123.505 130.267 123.237C130.746 122.969 131.29 122.836 131.902 122.836C132.519 122.836 133.063 122.969 133.535 123.237C134.007 123.505 134.376 123.869 134.642 124.328C134.908 124.787 135.041 125.309 135.041 125.892C135.041 126.475 134.908 126.993 134.642 127.447C134.376 127.902 134.007 128.261 133.535 128.522C133.063 128.783 132.519 128.914 131.902 128.914ZM131.902 127.438C132.196 127.438 132.453 127.37 132.67 127.237C132.888 127.105 133.056 126.92 133.175 126.685C133.294 126.449 133.353 126.184 133.353 125.885C133.353 125.587 133.294 125.319 133.175 125.081C133.056 124.843 132.888 124.654 132.67 124.517C132.453 124.379 132.196 124.312 131.902 124.312C131.608 124.312 131.353 124.379 131.136 124.517C130.918 124.654 130.748 124.843 130.627 125.081C130.505 125.319 130.444 125.587 130.444 125.885C130.444 126.184 130.505 126.449 130.627 126.685C130.748 126.92 130.918 127.105 131.136 127.237C131.353 127.37 131.608 127.438 131.902 127.438ZM140.76 128.746V127.746C140.718 127.848 140.61 127.993 140.437 128.179C140.265 128.366 140.033 128.534 139.741 128.685C139.449 128.837 139.106 128.914 138.714 128.914C138.162 128.914 137.674 128.781 137.249 128.517C136.824 128.254 136.492 127.892 136.252 127.433C136.011 126.974 135.889 126.457 135.889 125.878C135.889 125.3 136.011 124.78 136.252 124.321C136.492 123.862 136.824 123.5 137.249 123.235C137.674 122.969 138.162 122.836 138.714 122.836C139.097 122.836 139.431 122.899 139.713 123.027C139.996 123.155 140.225 123.304 140.4 123.475C140.575 123.645 140.687 123.799 140.739 123.934V123.004H142.505V128.746H140.76ZM137.634 125.878C137.634 126.2 137.707 126.482 137.852 126.727C137.996 126.972 138.188 127.163 138.426 127.298C138.664 127.433 138.924 127.501 139.204 127.501C139.498 127.501 139.76 127.431 139.989 127.293C140.218 127.156 140.4 126.965 140.533 126.72C140.666 126.475 140.732 126.195 140.732 125.878C140.732 125.561 140.666 125.279 140.533 125.034C140.4 124.79 140.218 124.598 139.989 124.458C139.76 124.319 139.498 124.249 139.204 124.249C138.924 124.249 138.664 124.316 138.426 124.454C138.188 124.591 137.996 124.782 137.852 125.027C137.707 125.272 137.634 125.557 137.634 125.878ZM146.464 128.914C145.918 128.914 145.439 128.781 145.025 128.517C144.612 128.254 144.289 127.892 144.058 127.433C143.827 126.974 143.71 126.457 143.71 125.878C143.71 125.3 143.827 124.78 144.058 124.321C144.289 123.862 144.612 123.5 145.025 123.235C145.439 122.969 145.918 122.836 146.464 122.836C146.852 122.836 147.198 122.899 147.499 123.025C147.8 123.151 148.041 123.3 148.223 123.472C148.405 123.645 148.513 123.799 148.546 123.934V119.122H150.333V128.746H148.566V127.746C148.492 127.909 148.354 128.081 148.153 128.263C147.952 128.445 147.707 128.599 147.417 128.725C147.128 128.851 146.81 128.914 146.464 128.914ZM146.969 127.501C147.268 127.501 147.536 127.431 147.775 127.293C148.013 127.156 148.202 126.965 148.34 126.72C148.478 126.475 148.546 126.195 148.546 125.878C148.546 125.561 148.478 125.279 148.34 125.034C148.202 124.79 148.013 124.598 147.775 124.458C147.536 124.319 147.268 124.249 146.969 124.249C146.693 124.249 146.441 124.316 146.212 124.454C145.983 124.591 145.801 124.782 145.663 125.027C145.525 125.272 145.455 125.557 145.455 125.878C145.455 126.2 145.525 126.482 145.663 126.727C145.801 126.972 145.983 127.163 146.212 127.298C146.441 127.433 146.693 127.501 146.969 127.501ZM162.092 129.102C162.358 129.102 162.596 129.07 162.804 129.007C163.012 128.944 163.178 128.879 163.304 128.811C163.43 128.743 163.503 128.699 163.521 128.676L164.145 129.851C164.014 130.047 163.776 130.24 163.43 130.431C163.084 130.623 162.641 130.718 162.099 130.718C161.762 130.718 161.475 130.678 161.237 130.601C160.998 130.525 160.779 130.436 160.576 130.336C160.372 130.236 160.153 130.147 159.919 130.07C159.686 129.993 159.405 129.956 159.078 129.956C158.789 129.956 158.534 130.002 158.314 130.096C158.095 130.189 157.922 130.282 157.793 130.375C157.665 130.469 157.595 130.525 157.586 130.543L156.829 129.662C157.123 129.354 157.49 129.1 157.927 128.902C158.363 128.704 158.863 128.606 159.429 128.606C159.807 128.606 160.139 128.648 160.424 128.732C160.709 128.816 160.982 128.897 161.244 128.979C161.505 129.06 161.788 129.102 162.092 129.102ZM156.71 124.123C156.71 124.71 156.833 125.242 157.079 125.717C157.324 126.193 157.66 126.568 158.09 126.846C158.52 127.123 159.018 127.263 159.583 127.263C160.148 127.263 160.648 127.123 161.08 126.846C161.512 126.568 161.849 126.193 162.092 125.717C162.335 125.242 162.456 124.71 162.456 124.123C162.456 123.535 162.335 123.004 162.092 122.53C161.849 122.057 161.512 121.682 161.08 121.402C160.648 121.123 160.148 120.983 159.583 120.983C159.018 120.983 158.52 121.123 158.09 121.402C157.66 121.682 157.324 122.057 157.079 122.53C156.833 123.004 156.71 123.535 156.71 124.123ZM154.888 124.123C154.888 123.451 155.007 122.824 155.243 122.244C155.479 121.663 155.808 121.157 156.233 120.724C156.658 120.29 157.158 119.952 157.73 119.71C158.303 119.467 158.919 119.346 159.583 119.346C160.256 119.346 160.877 119.467 161.447 119.71C162.017 119.952 162.514 120.29 162.937 120.724C163.36 121.157 163.687 121.663 163.921 122.244C164.154 122.824 164.271 123.451 164.271 124.123C164.271 124.799 164.157 125.426 163.928 126.007C163.699 126.587 163.374 127.095 162.954 127.531C162.533 127.967 162.038 128.308 161.468 128.55C160.898 128.792 160.27 128.914 159.583 128.914C158.887 128.914 158.254 128.792 157.681 128.55C157.109 128.308 156.614 127.967 156.196 127.531C155.778 127.095 155.455 126.587 155.229 126.007C155.002 125.426 154.888 124.799 154.888 124.123ZM167.032 125.752C167.032 126.265 167.135 126.673 167.34 126.979C167.546 127.284 167.878 127.438 168.336 127.438C168.798 127.438 169.132 127.284 169.338 126.979C169.543 126.673 169.646 126.265 169.646 125.752V123.004H171.398V125.955C171.398 126.547 171.279 127.065 171.041 127.51C170.802 127.955 170.457 128.3 170.001 128.545C169.546 128.79 168.99 128.914 168.336 128.914C167.686 128.914 167.135 128.79 166.679 128.545C166.224 128.3 165.876 127.955 165.638 127.51C165.399 127.065 165.28 126.547 165.28 125.955V123.004H167.032V125.752ZM172.933 128.746V123.004H174.706V128.746H172.933ZM173.844 121.521C173.549 121.521 173.302 121.419 173.099 121.213C172.895 121.008 172.793 120.763 172.793 120.479C172.793 120.195 172.895 119.947 173.101 119.738C173.306 119.528 173.554 119.423 173.844 119.423C174.035 119.423 174.21 119.47 174.369 119.565C174.528 119.661 174.657 119.789 174.755 119.947C174.853 120.106 174.902 120.283 174.902 120.479C174.902 120.763 174.799 121.008 174.591 121.213C174.383 121.419 174.133 121.521 173.844 121.521ZM179.296 127.501C179.6 127.501 179.847 127.45 180.039 127.347C180.23 127.244 180.356 127.167 180.417 127.116L181.244 128.34C181.179 128.391 181.057 128.464 180.88 128.557C180.702 128.65 180.478 128.732 180.204 128.804C179.931 128.876 179.618 128.914 179.268 128.914C178.66 128.914 178.116 128.79 177.635 128.545C177.154 128.3 176.775 127.951 176.497 127.496C176.219 127.042 176.079 126.501 176.079 125.871C176.079 125.237 176.219 124.694 176.497 124.242C176.775 123.789 177.154 123.442 177.635 123.2C178.116 122.957 178.66 122.836 179.268 122.836C179.613 122.836 179.922 122.873 180.19 122.948C180.459 123.022 180.683 123.106 180.866 123.202C181.048 123.298 181.174 123.377 181.244 123.437L180.396 124.668C180.363 124.631 180.3 124.58 180.207 124.515C180.113 124.449 179.992 124.389 179.84 124.333C179.688 124.277 179.506 124.249 179.296 124.249C179.039 124.249 178.796 124.316 178.565 124.452C178.333 124.587 178.144 124.776 177.999 125.018C177.855 125.261 177.782 125.545 177.782 125.871C177.782 126.198 177.855 126.482 177.999 126.727C178.144 126.972 178.333 127.163 178.565 127.298C178.796 127.433 179.039 127.501 179.296 127.501ZM186.009 123.004H188.056L185.245 125.745L188.308 128.746H186.213L183.823 126.347V128.746H182.043V119.122H183.823V125.109L186.009 123.004Z" fill="black"/>
<path d="M148.269 77.3348C148.269 78.551 147.657 80.7982 147.025 81.8374C146.37 82.9151 145.598 83.5465 145.256 84.3504C144.946 85.078 145.154 85.4234 144.863 85.4234H134.879C134.519 85.4234 134.877 84.7467 134.066 83.6556C133.201 82.491 132.522 81.9837 132.529 80.0312C132.533 79.1717 132.53 78.3116 132.53 77.452C133.153 77.7812 134.147 77.8033 134.822 77.4545C135.053 77.3353 135.204 77.1778 135.407 77.0417C135.701 78.141 137.969 78.6624 139.006 77.6443C139.153 77.5 139.238 77.3848 139.401 77.2762C139.803 78.0344 140.612 78.437 141.456 78.5071C141.354 78.8914 140.223 79.2732 140.223 82.4928C140.223 82.7412 140.334 82.9031 140.575 82.9031C141.433 82.9031 140.519 81.1466 141.584 79.5131C141.705 79.3272 141.944 79.0789 142.126 78.9405C142.506 78.6522 142.482 78.6933 142.89 78.7745C143.307 78.8576 144.446 79.0932 144.804 79.0932C144.877 79.0932 145.039 78.965 145.039 78.6829C145.039 78.3559 144.172 78.3162 143.683 78.2191C142.64 78.0117 140.589 77.8428 140.165 77.1586C139.82 76.6019 139.838 75.8159 140.266 75.326C140.392 75.1816 140.763 74.873 140.987 74.873C141.69 74.873 144.511 75.2449 145.38 75.3528C146.758 75.5238 148.269 75.624 148.269 77.3348Z" fill="#011B94"/>
<path d="M144.98 87.4748C144.98 89.0982 143.782 89.4677 142.337 89.4677H137.404C136.642 89.4677 135.741 89.3128 135.333 88.956C134.594 88.3113 134.702 87.1638 134.702 86.244C134.702 86.1089 134.743 86.0681 134.879 86.0681H144.98V87.4748Z" fill="#011B94"/>
<path d="M146.037 74.6973C145.529 74.6973 145.073 74.6272 144.587 74.5622C144.224 74.5136 143.554 74.4042 143.16 74.4042C143.16 72.1065 143.337 69.7717 143.336 67.4878C143.336 66.8424 143.322 65.5406 143.65 65.1055C144.095 64.5161 145.813 64.2592 145.803 66.3154C145.788 69.1123 146.037 71.9388 146.037 74.6973Z" fill="#011B94"/>
<path d="M138.931 76.3971C138.931 77.022 138.123 77.5107 137.404 77.5107C136.747 77.5107 136.051 77.035 135.95 76.5002L135.674 71.8609C136.052 70.4252 138.533 70.5763 138.69 72.0072L138.931 76.3971Z" fill="#011B94"/>
<path d="M133.704 77.0418C133.521 77.0418 133.174 76.9627 133.021 76.903C132.867 76.8429 132.529 76.6828 132.529 76.5142V72.6458C132.529 72.0165 133.629 71.3643 134.606 71.921C134.945 72.1139 134.904 72.1332 134.949 72.5757L135.055 74.4621C135.052 74.899 135.197 76.0619 135.057 76.3403C134.894 76.6626 134.201 77.0418 133.704 77.0418Z" fill="#011B94"/>
<path d="M142.455 72.0596V74.287C141.403 74.287 140.859 73.8987 140.096 74.5112C139.912 74.6589 139.825 74.8656 139.577 74.9317C139.577 73.4106 139.115 71.8593 139.827 71.2541C140.85 70.3856 142.455 71.0381 142.455 72.0596Z" fill="#011B94"/>
</g>
<path fill-rule="evenodd" clip-rule="evenodd" d="M26.4795 205C26.4795 205.552 26.0315 206 25.4795 206C24.9275 206 24.4795 205.552 24.4795 205C24.4795 204.448 24.9275 204 25.4795 204C26.0315 204 26.4795 204.448 26.4795 205ZM14.4795 205C14.4795 205.552 14.0315 206 13.4795 206C12.9275 206 12.4795 205.552 12.4795 205C12.4795 204.448 12.9275 204 13.4795 204C14.0315 204 14.4795 204.448 14.4795 205ZM27.4795 199.48V202H24.4795V197.081L27.4795 199.48ZM29.1045 198.219L24.4795 194.519V192C24.4795 190.897 23.6665 190 22.6665 190H11.2915C10.2925 190 9.47949 190.897 9.47949 192V202C9.47949 202.873 9.99249 203.609 10.7005 203.882C10.5605 204.228 10.4795 204.604 10.4795 205C10.4795 206.654 11.8255 208 13.4795 208C15.1335 208 16.4795 206.654 16.4795 205C16.4795 204.647 16.4075 204.314 16.2945 204H19.4795H22.6645C22.5515 204.314 22.4795 204.647 22.4795 205C22.4795 206.654 23.8255 208 25.4795 208C27.1335 208 28.4795 206.654 28.4795 205C28.4795 204.647 28.4075 204.314 28.2945 204H28.4795C29.0325 204 29.4795 203.553 29.4795 203V199C29.4795 198.696 29.3415 198.409 29.1045 198.219Z" fill="#011B94"/>
<mask id="mask0_199_6214" style="mask-type:luminance" maskUnits="userSpaceOnUse" x="9" y="189" width="21" height="19">
<path fill-rule="evenodd" clip-rule="evenodd" d="M26.4795 205C26.4795 205.552 26.0315 206 25.4795 206C24.9275 206 24.4795 205.552 24.4795 205C24.4795 204.448 24.9275 204 25.4795 204C26.0315 204 26.4795 204.448 26.4795 205ZM14.4795 205C14.4795 205.552 14.0315 206 13.4795 206C12.9275 206 12.4795 205.552 12.4795 205C12.4795 204.448 12.9275 204 13.4795 204C14.0315 204 14.4795 204.448 14.4795 205ZM27.4795 199.48V202H24.4795V197.081L27.4795 199.48ZM29.1045 198.219L24.4795 194.519V192C24.4795 190.897 23.6665 190 22.6665 190H11.2915C10.2925 190 9.47949 190.897 9.47949 192V202C9.47949 202.873 9.99249 203.609 10.7005 203.882C10.5605 204.228 10.4795 204.604 10.4795 205C10.4795 206.654 11.8255 208 13.4795 208C15.1335 208 16.4795 206.654 16.4795 205C16.4795 204.647 16.4075 204.314 16.2945 204H19.4795H22.6645C22.5515 204.314 22.4795 204.647 22.4795 205C22.4795 206.654 23.8255 208 25.4795 208C27.1335 208 28.4795 206.654 28.4795 205C28.4795 204.647 28.4075 204.314 28.2945 204H28.4795C29.0325 204 29.4795 203.553 29.4795 203V199C29.4795 198.696 29.3415 198.409 29.1045 198.219Z" fill="white"/>
</mask>
<g mask="url(#mask0_199_6214)">
<rect x="7.5" y="187" width="24" height="24" fill="#011B94"/>
</g>
<rect x="7.5" y="211" width="349" height="16" rx="8" fill="#E5E5E5"/>
<rect x="7.5" y="211" width="16" height="16" rx="8" fill="#011B94"/>
<defs>
<clipPath id="clip0_199_6214">
<rect width="364" height="139" fill="white"/>
</clipPath>
</defs>
</svg>
