<svg width="364" height="364" viewBox="0 0 364 364" fill="none" xmlns="http://www.w3.org/2000/svg">
<path d="M182.291 299.426C246.058 299.426 297.752 296.134 297.752 292.074C297.752 288.013 246.058 284.721 182.291 284.721C118.524 284.721 66.8303 288.013 66.8303 292.074C66.8303 296.134 118.524 299.426 182.291 299.426Z" fill="#D1D3D4"/>
<path d="M295.204 241.696C300.518 266.157 282.901 283.92 282.901 283.92H158.631C158.631 283.92 141.014 266.157 146.328 241.696C151.642 217.235 189.062 203.84 200.418 193.794C211.775 183.747 207.771 166.639 189.862 153.608C171.954 140.577 147.711 132.278 148.366 104.031C148.803 85.9768 162.999 74.1832 162.999 74.1832H278.533C278.533 74.1832 292.802 85.904 293.166 104.031C293.821 132.278 269.578 140.577 251.67 153.608C233.761 166.639 229.684 183.747 241.114 193.794C252.47 203.84 289.89 217.235 295.204 241.696Z" fill="white"/>
<path d="M282.828 284.357H158.631C158.486 284.357 158.413 284.284 158.267 284.211C158.122 284.066 140.504 266.011 145.818 241.55C149.677 223.86 170.352 211.702 185.422 202.894C191.537 199.326 196.851 196.196 200.054 193.357C204.204 189.862 206.534 184.548 206.242 179.088C205.878 170.57 199.763 161.325 189.498 153.899C186.004 151.351 182.146 148.876 178.433 146.546C163.145 136.864 147.347 126.818 147.857 103.886C148.294 85.7584 162.562 73.8192 162.708 73.6736C162.781 73.6008 162.926 73.528 162.999 73.528H278.533C278.678 73.528 278.751 73.528 278.824 73.6736C278.97 73.8192 293.238 85.7584 293.675 103.886C294.185 126.818 278.387 136.864 263.099 146.546C259.386 148.876 255.528 151.351 252.034 153.899C241.769 161.398 235.726 170.57 235.29 179.088C234.998 184.548 237.328 189.79 241.478 193.357C244.681 196.196 249.995 199.254 256.11 202.894C271.18 211.702 291.855 223.86 295.714 241.55C301.028 266.011 283.41 284.066 283.265 284.211C283.119 284.357 282.974 284.357 282.828 284.357ZM158.85 283.41H282.682C284.284 281.663 299.645 264.555 294.767 241.769C291.054 224.515 270.598 212.503 255.601 203.767C249.413 200.127 244.098 196.997 240.822 194.158C236.382 190.445 233.979 184.912 234.27 179.161C234.707 170.352 240.895 160.888 251.378 153.244C254.946 150.623 258.804 148.221 262.517 145.818C277.586 136.282 293.166 126.381 292.656 104.031C292.292 87.2871 279.77 75.9304 278.314 74.6928H163.145C161.762 75.9304 149.167 87.2871 148.803 104.031C148.294 126.454 163.873 136.282 178.942 145.818C182.655 148.148 186.514 150.623 190.081 153.244C200.564 160.888 206.825 170.352 207.189 179.161C207.48 184.912 205.078 190.445 200.637 194.158C197.361 197.07 192.046 200.2 185.858 203.767C170.934 212.503 150.478 224.515 146.692 241.769C141.887 264.555 157.248 281.663 158.85 283.41Z" fill="#231F20"/>
<path d="M184.038 140.504C187.897 142.906 191.828 145.454 195.614 148.221C205.296 155.282 211.12 163.436 214.687 173.482C218.182 183.31 217.235 193.721 219.346 203.913C219.274 205.15 220.22 206.17 221.385 206.242C222.186 206.315 222.914 205.878 223.35 205.223C223.933 204.495 224.224 203.622 224.297 202.675C225.607 194.522 225.607 186.878 226.117 178.578C226.699 168.022 233.979 156.957 245.918 148.221C249.704 145.454 253.635 142.979 257.494 140.504C266.157 135.044 300.009 110.802 277.514 103.594C272.709 102.066 267.322 102.43 262.226 102.939L181.709 109.855C177.05 110.292 172.318 110.656 168.022 112.33C163.727 114.005 160.014 116.99 159.286 120.775C157.83 128.055 177.705 136.5 184.038 140.504Z" fill="#011B94"/>
<path d="M282.974 239.585C278.751 236.09 272.636 234.198 266.521 234.416C258.294 234.707 250.286 237.401 242.06 237.037C232.305 236.6 223.059 231.722 213.304 232.742C201.874 233.834 193.575 242.57 182.51 245.118C176.613 246.501 170.206 246.064 164.455 247.811C157.685 249.922 154.7 255.674 155.501 261.279C155.719 263.026 160.524 276.786 163.218 276.786H278.314C284.211 276.786 288.652 251.524 288.07 247.957C287.487 244.608 285.594 241.696 282.974 239.585Z" fill="#011B94"/>
<path d="M160.888 65.0833H280.644C283.119 65.0833 285.157 67.1216 285.157 69.5968C285.157 72.0721 283.119 74.1105 280.644 74.1105H160.888C158.413 74.1105 156.374 72.0721 156.374 69.5968C156.374 67.1216 158.413 65.0833 160.888 65.0833Z" fill="#231F20"/>
<path d="M280.644 74.5472H160.888C158.122 74.62 155.792 72.5088 155.719 69.7424C155.646 66.976 157.758 64.6464 160.524 64.5736C160.67 64.5736 160.742 64.5736 160.888 64.5736H280.644C283.41 64.5008 285.74 66.612 285.813 69.3784C285.886 72.1448 283.774 74.4744 281.008 74.5472C280.862 74.62 280.717 74.62 280.644 74.5472ZM160.888 65.52C158.631 65.52 156.811 67.34 156.811 69.5968C156.811 71.8536 158.631 73.6736 160.888 73.6736H280.644C282.901 73.6736 284.721 71.8536 284.721 69.5968C284.721 67.34 282.901 65.52 280.644 65.52H160.888Z" fill="#231F20"/>
<path d="M158.558 283.92H282.901C285.376 283.92 287.414 285.958 287.414 288.434C287.414 290.909 285.376 292.947 282.901 292.947H158.558C156.083 292.947 154.045 290.909 154.045 288.434C154.045 285.886 156.083 283.92 158.558 283.92Z" fill="#231F20"/>
<path d="M282.901 293.384H158.558C155.792 293.457 153.462 291.346 153.39 288.579C153.317 285.813 155.428 283.483 158.194 283.41C158.34 283.41 158.413 283.41 158.558 283.41H282.901C285.667 283.338 287.997 285.449 288.07 288.215C288.142 290.982 286.031 293.311 283.265 293.384C283.192 293.384 283.046 293.384 282.901 293.384ZM158.558 284.357C156.302 284.357 154.482 286.177 154.482 288.434C154.482 290.69 156.302 292.51 158.558 292.51H282.901C285.158 292.51 286.978 290.69 286.978 288.434C286.978 286.177 285.158 284.357 282.901 284.357H158.558Z" fill="#231F20"/>
<path d="M218.909 209.81C215.488 209.81 215.488 221.166 218.909 221.166C222.331 221.166 222.404 209.81 218.909 209.81Z" fill="#011B94"/>
<path d="M224.952 221.239C223.569 221.239 223.569 225.243 224.952 225.243C226.335 225.243 226.335 221.239 224.952 221.239Z" fill="#011B94"/>
<path d="M216.434 129.875C200.637 129.73 184.912 127.327 169.77 122.814C169.551 122.741 169.406 122.45 169.478 122.231C169.551 122.013 169.842 121.867 170.061 121.94C170.716 122.158 236.673 143.562 272.054 110.51C272.272 110.292 272.563 110.292 272.709 110.51C272.927 110.729 272.927 111.02 272.709 111.166C257.13 125.726 235.726 129.875 216.434 129.875Z" fill="#231F20"/>
<path d="M201.583 258.367C189.134 258.367 176.831 256.547 164.892 253.053C164.601 252.98 164.528 252.689 164.601 252.47C164.674 252.252 164.965 252.106 165.183 252.179C165.547 252.325 201.438 264.046 233.834 252.179L272.272 238.056C272.49 237.983 272.782 238.129 272.927 238.347C273 238.566 272.854 238.857 272.636 239.002L234.198 253.053C223.132 256.984 211.848 258.367 201.583 258.367Z" fill="#231F20"/>
<path d="M249.558 240.458H249.413C238.347 237.692 218.982 233.106 218.837 233.033C218.545 232.96 218.4 232.742 218.473 232.45C218.545 232.159 218.837 232.014 219.055 232.086C219.273 232.159 238.565 236.746 249.631 239.512C249.922 239.585 250.068 239.876 249.995 240.094C249.922 240.313 249.704 240.458 249.558 240.458Z" fill="#231F20"/>
<path d="M105.269 271.835L91.8009 287.56C91.8009 287.56 65.8113 272.927 66.7577 270.015C67.7041 267.103 84.5937 271.471 84.5937 271.471L92.9657 260.551" fill="white"/>
<path d="M91.8737 288.142C91.8009 288.142 91.7281 288.142 91.6553 288.07C83.7201 283.629 65.3745 272.927 66.3209 269.942C67.2673 266.958 80.0801 269.87 84.5209 270.962L92.6745 260.333C92.8201 260.114 93.1841 260.042 93.4025 260.187C93.6209 260.333 93.6937 260.697 93.5481 260.915L93.4753 260.988L85.1033 271.908C84.9577 272.054 84.7393 272.126 84.5209 272.126C76.5857 270.088 67.7769 268.85 67.2673 270.306C67.0489 271.981 79.7161 280.207 91.7281 286.978L104.905 271.544C105.123 271.326 105.415 271.326 105.633 271.471C105.851 271.69 105.851 271.981 105.706 272.199L92.2377 287.924C92.1649 288.07 92.0193 288.142 91.8737 288.142Z" fill="#231F20"/>
<path d="M148.585 122.231C147.129 120.921 145.382 119.756 143.489 119.465C141.815 119.246 140.941 119.902 139.558 120.557C138.975 120.775 138.975 121.649 138.393 121.867C137.811 122.086 136.646 121.503 135.918 121.503C132.278 121.43 128.783 122.668 126.454 125.58C124.925 127.473 124.051 129.875 123.105 132.132C119.101 142.178 113.059 152.225 103.158 156.593C112.112 162.999 123.032 167.003 133.952 166.348C139.339 166.057 144.508 164.528 149.24 162.053C152.953 160.014 159.651 155.865 160.379 151.278C161.034 146.91 158.923 140.286 157.612 136.209C155.865 130.822 152.807 126.017 148.585 122.231Z" fill="white"/>
<path d="M131.695 166.93C122.013 166.93 111.821 163.436 102.794 156.957C102.575 156.811 102.503 156.447 102.721 156.229C102.794 156.156 102.867 156.083 102.939 156.083C111.166 152.516 117.572 144.581 122.595 131.914L122.814 131.331C123.542 129.147 124.634 127.036 126.017 125.216C128.274 122.377 131.841 120.848 135.918 120.921C136.282 120.921 136.646 120.994 137.01 121.139C137.374 121.285 137.738 121.358 138.175 121.285C138.32 121.212 138.393 121.066 138.539 120.848C138.684 120.484 138.975 120.193 139.339 119.974C139.631 119.829 139.849 119.756 140.067 119.61C141.087 118.955 142.324 118.664 143.562 118.81C145.819 119.101 147.711 120.63 148.949 121.649C153.171 125.507 156.302 130.385 158.049 135.845C159.578 140.358 161.471 146.838 160.888 151.133C160.233 155.646 154.336 159.65 149.531 162.271C144.727 164.819 139.485 166.348 134.025 166.639C133.224 166.93 132.423 166.93 131.695 166.93ZM104.177 156.666C113.495 163.145 124.051 166.421 133.952 165.838C139.194 165.547 144.363 164.091 149.022 161.616C155.574 158.049 159.432 154.409 159.869 151.206C160.451 147.129 158.559 140.795 157.103 136.427C155.428 131.113 152.371 126.381 148.294 122.668C147.129 121.649 145.455 120.338 143.416 120.047C142.397 119.902 141.378 120.193 140.504 120.702C140.286 120.848 139.995 120.921 139.703 121.066C139.558 121.212 139.412 121.358 139.412 121.503C139.267 121.94 138.903 122.231 138.466 122.377C137.883 122.522 137.228 122.45 136.719 122.231C136.427 122.158 136.136 122.086 135.845 122.086C132.059 122.013 128.856 123.396 126.818 125.944C125.507 127.691 124.488 129.657 123.833 131.768L123.615 132.35C118.591 144.872 112.258 152.807 104.177 156.666Z" fill="#231F20"/>
<path d="M130.166 156.156C131.914 154.263 125.58 155.719 124.925 167.95C124.488 177.268 127.473 192.483 127.473 192.483L107.453 209.227L119.829 212.794C119.829 212.794 142.397 196.414 142.397 195.177C142.397 193.939 130.166 156.156 130.166 156.156Z" fill="white"/>
<path d="M119.829 213.158H119.683L107.307 209.591C107.162 209.518 107.016 209.373 106.943 209.227C106.943 209.082 106.943 208.863 107.089 208.79L126.891 192.265C126.454 190.154 123.979 176.467 124.415 167.95C124.852 159.141 128.347 155.428 129.948 155.064C130.239 154.918 130.603 155.064 130.822 155.355C130.967 155.646 130.895 156.083 130.676 156.302C132.933 163.145 142.834 193.939 142.834 195.177C142.834 196.414 130.458 205.587 120.12 213.158C120.047 213.158 119.902 213.158 119.829 213.158ZM108.472 208.936L119.683 212.139C127.91 206.17 140.868 196.487 141.815 195.031C141.451 193.211 134.389 171.007 129.584 156.302C128.347 157.248 125.653 160.378 125.289 168.022C124.852 177.195 127.837 192.265 127.837 192.41C127.837 192.556 127.837 192.774 127.691 192.847L108.472 208.936Z" fill="#231F20"/>
<path d="M165.329 146.037C164.601 145.454 132.059 147.493 126.527 158.34C120.994 169.187 141.087 201.947 141.087 201.947L182.219 189.644C182.146 189.571 185.131 161.47 165.329 146.037Z" fill="#011B94"/>
<path d="M149.24 147.857L151.497 155.064C151.497 155.064 151.643 158.631 146.474 159.068C141.305 159.505 139.558 156.447 139.558 156.447L135.772 142.906C135.772 142.906 141.96 136.427 138.393 129.074C141.523 132.059 146.183 132.86 150.114 130.967C150.114 130.967 152.443 137.81 153.099 141.669C153.754 145.527 149.24 147.857 149.24 147.857Z" fill="white"/>
<path d="M145.527 159.578C140.868 159.578 139.121 156.738 139.048 156.593C139.048 156.52 139.048 156.52 138.975 156.447L135.19 142.906C135.117 142.761 135.19 142.542 135.335 142.397C135.408 142.324 141.232 136.136 137.883 129.22C137.81 129.002 137.883 128.71 138.029 128.565C138.247 128.419 138.538 128.419 138.684 128.638C141.669 131.477 146.11 132.205 149.75 130.385C149.895 130.312 150.041 130.312 150.186 130.385C150.332 130.458 150.405 130.53 150.478 130.676C150.55 130.967 152.88 137.592 153.462 141.523C154.045 145.09 150.914 147.347 149.75 148.075L151.934 154.846C151.934 154.918 151.934 154.918 151.934 154.991C151.934 155.064 152.007 159.068 146.401 159.505C146.182 159.578 145.891 159.578 145.527 159.578ZM140.067 156.156C140.358 156.52 142.033 158.85 146.474 158.486C150.769 158.122 150.987 155.574 151.06 155.137L148.803 148.002C148.73 147.784 148.876 147.493 149.094 147.347C149.167 147.347 153.171 145.163 152.662 141.669C151.934 138.247 150.987 134.898 149.895 131.55C146.546 133.006 142.688 132.642 139.703 130.53C141.45 136.573 137.446 141.742 136.5 142.834L140.067 156.156Z" fill="#231F20"/>
<path d="M137.883 141.742C137.519 141.159 136.937 140.65 136.282 140.431C135.627 140.213 134.971 140.14 134.316 140.14C133.952 140.14 133.588 140.14 133.224 140.286C133.006 140.431 132.787 140.577 132.642 140.722C132.205 141.159 131.987 141.742 131.914 142.324C131.914 142.834 132.059 143.27 132.278 143.707C132.496 144.217 132.787 144.654 133.151 145.018C134.607 146.692 137.155 146.838 138.757 145.382" fill="white"/>
<path d="M136.136 146.91H135.845C134.607 146.838 133.515 146.255 132.715 145.382C132.351 144.945 132.059 144.435 131.768 143.926C131.477 143.416 131.331 142.834 131.331 142.324C131.404 141.596 131.695 140.941 132.205 140.358C132.423 140.14 132.715 139.922 133.006 139.776C133.443 139.63 133.879 139.558 134.316 139.558C135.044 139.558 135.772 139.63 136.427 139.849C137.228 140.14 137.883 140.65 138.32 141.378C138.466 141.596 138.393 141.96 138.102 142.106C137.883 142.251 137.519 142.178 137.374 141.96C137.083 141.45 136.573 141.086 135.991 140.868C135.408 140.65 134.826 140.577 134.243 140.577C133.952 140.577 133.661 140.577 133.443 140.65C133.297 140.722 133.151 140.868 133.006 141.014C132.642 141.305 132.423 141.814 132.351 142.251C132.351 142.615 132.496 143.052 132.715 143.416C132.933 143.853 133.151 144.29 133.515 144.654C134.098 145.309 134.971 145.746 135.918 145.818C136.864 145.891 137.738 145.527 138.466 144.945C138.684 144.726 139.048 144.726 139.194 144.945C139.339 145.163 139.412 145.527 139.194 145.673C138.32 146.546 137.228 146.91 136.136 146.91Z" fill="#231F20"/>
<path d="M145.163 136.354C145.163 136.354 149.022 139.121 148.658 139.994C148.294 140.868 146.547 141.014 146.547 141.014" fill="white"/>
<path d="M146.474 141.596C146.183 141.596 145.964 141.378 145.964 141.086C145.964 140.795 146.183 140.504 146.401 140.504C147.056 140.431 147.93 140.14 148.148 139.776C148.075 139.412 146.547 138.029 144.872 136.791C144.654 136.646 144.581 136.282 144.727 136.063C144.872 135.845 145.236 135.772 145.455 135.918C148.221 137.956 149.459 139.339 149.095 140.213C148.658 141.305 146.911 141.523 146.474 141.596Z" fill="#231F20"/>
<path d="M142.757 135.482C143.062 135.286 143.079 134.771 142.797 134.331C142.514 133.892 142.038 133.694 141.734 133.889C141.429 134.085 141.412 134.6 141.694 135.04C141.977 135.48 142.453 135.677 142.757 135.482Z" fill="#231F20"/>
<path d="M146.988 134.951C147.294 134.756 147.314 134.241 147.033 133.8C146.753 133.359 146.278 133.159 145.972 133.354C145.667 133.548 145.647 134.063 145.928 134.504C146.208 134.945 146.683 135.145 146.988 134.951Z" fill="#231F20"/>
<path d="M149.823 141.887C149.823 141.887 144.654 147.347 141.96 141.887H149.823Z" fill="white"/>
<path d="M145.236 144.799C145.018 144.799 144.872 144.799 144.654 144.726C143.343 144.508 142.251 143.634 141.523 142.033C141.378 141.742 141.523 141.45 141.815 141.305C142.033 141.232 142.324 141.305 142.47 141.523C143.052 142.761 143.853 143.489 144.799 143.634C146.983 143.998 149.386 141.45 149.386 141.378C149.604 141.159 149.895 141.159 150.114 141.378C150.332 141.596 150.332 141.887 150.114 142.106C150.114 142.397 147.711 144.799 145.236 144.799Z" fill="#231F20"/>
<path d="M149.24 147.857C149.24 147.857 145.454 148.949 143.416 148.439C143.416 148.439 146.11 152.298 150.55 152.152L149.24 147.857Z" fill="#231F20"/>
<path d="M150.332 152.734C145.819 152.734 143.125 148.949 142.979 148.803C142.834 148.658 142.834 148.366 142.979 148.221C143.125 148.075 143.343 147.93 143.562 148.002C145.455 148.439 149.022 147.42 149.095 147.42C149.386 147.347 149.677 147.493 149.75 147.784L151.06 152.152C151.133 152.298 151.06 152.516 150.987 152.589C150.915 152.734 150.769 152.807 150.551 152.807L150.332 152.734ZM144.727 149.094C146.11 150.478 147.857 151.424 149.823 151.642L148.876 148.512C147.493 148.876 146.11 149.022 144.727 149.094Z" fill="#231F20"/>
<path d="M182.146 189.644C182.146 189.644 182.146 210.392 179.743 219.128C172.9 243.953 122.741 283.629 122.741 283.629L111.675 272.636L142.179 228.665L105.269 271.908L93.0386 260.77L141.087 202.02L182.146 189.644Z" fill="#231F20"/>
<path d="M122.814 284.138C122.668 284.138 122.522 284.066 122.45 283.993L111.311 273C111.093 272.854 111.093 272.563 111.238 272.345L135.699 237.037L105.706 272.199C105.487 272.418 105.196 272.418 104.978 272.272L92.7473 261.134C92.5289 260.915 92.5289 260.624 92.6745 260.406L140.722 201.656C140.795 201.583 140.868 201.51 141.014 201.51L182 189.207C182.146 189.134 182.364 189.207 182.437 189.28C182.582 189.353 182.655 189.498 182.655 189.717C182.655 190.59 182.655 210.61 180.253 219.346C177.414 229.757 166.858 243.807 149.022 261.134C135.772 274.019 123.178 283.993 123.032 284.066C123.032 284.066 122.886 284.138 122.814 284.138ZM112.403 272.563L122.886 282.901C127.473 279.261 172.9 242.278 179.306 218.982C181.418 211.266 181.636 194.085 181.709 190.299L141.378 202.384L93.7665 260.624L105.269 271.107L141.814 228.301C141.96 228.082 142.324 228.01 142.542 228.228C142.761 228.374 142.834 228.738 142.615 228.956L112.403 272.563Z" fill="#231F20"/>
<path d="M111.675 272.636L103.74 281.445C103.74 281.445 90.7088 277.077 91.2184 279.552C91.728 282.027 108.763 295.859 109.637 296.15C110.51 296.442 122.741 283.629 122.741 283.629" fill="white"/>
<path d="M109.637 296.66C109.564 296.66 109.564 296.66 109.491 296.66C108.472 296.296 91.3641 282.391 90.7089 279.698C90.6361 279.334 90.7089 278.97 91.0001 278.678C92.4561 277.368 100.61 279.843 103.522 280.862L111.238 272.272C111.457 272.054 111.748 272.054 111.966 272.272C112.185 272.49 112.185 272.782 111.966 273L104.104 281.809C103.958 281.954 103.74 282.027 103.522 281.954C97.7705 279.989 92.3105 278.897 91.7281 279.406C92.2377 281.518 107.817 294.33 109.71 295.495C110.947 294.767 117.062 288.725 122.377 283.192C122.595 282.974 122.886 282.974 123.105 283.192C123.323 283.41 123.323 283.702 123.105 283.92C112.039 295.568 110.219 296.66 109.637 296.66Z" fill="#231F20"/>
<path d="M124.051 276.713C123.906 276.713 123.76 276.64 123.687 276.567C123.542 276.349 123.542 276.13 123.76 275.912C124.197 275.548 165.038 240.677 173.191 220.948C181.272 201.438 176.977 193.648 176.977 193.575C176.831 193.357 176.904 193.066 177.123 192.92C177.341 192.774 177.632 192.847 177.778 193.066C177.996 193.357 182.291 201.219 174.065 221.239C165.839 241.114 124.779 276.203 124.415 276.567C124.27 276.713 124.197 276.713 124.051 276.713Z" fill="white"/>
<path d="M145.163 211.848C145.018 211.848 144.945 211.775 144.872 211.702C144.727 211.484 144.727 211.193 144.872 211.047L155.137 199.836C155.283 199.618 155.574 199.618 155.792 199.763C155.865 199.836 155.938 199.982 155.938 200.127V208.499C155.938 208.79 155.792 209.009 155.501 209.009C155.21 209.009 154.991 208.863 154.991 208.572C154.991 208.499 154.991 208.499 154.991 208.426V201.292L145.527 211.63C145.455 211.775 145.309 211.848 145.163 211.848Z" fill="white"/>
<path d="M134.971 217.381L148.658 201.947H114.733L96.533 219.929L134.971 217.381Z" fill="white"/>
<path d="M96.5328 220.438C96.2416 220.438 96.0232 220.22 96.0232 219.929C96.0232 219.783 96.096 219.71 96.1688 219.565L114.369 201.51C114.442 201.438 114.587 201.365 114.733 201.365H148.658C148.949 201.365 149.167 201.583 149.167 201.874C149.167 202.02 149.094 202.093 149.022 202.166L135.335 217.672C135.262 217.745 135.117 217.818 135.044 217.818L96.5328 220.438ZM114.951 202.384L97.7704 219.346L134.753 216.944L147.566 202.384H114.951Z" fill="#231F20"/>
<path d="M160.306 151.278C160.306 151.278 168.678 184.766 166.348 185.858C164.018 186.95 135.117 196.196 133.515 196.851C131.914 197.506 127.982 200.346 127.327 201.874C126.672 203.403 125.944 209.446 127.327 209.082C128.71 208.718 132.132 207.917 133.224 207.334C134.316 206.752 135.845 203.549 135.845 203.549C135.845 203.549 135.699 206.679 137.155 206.024C138.611 205.369 141.232 201.874 141.232 201.874C141.232 201.874 177.705 200.637 181.272 193.284C184.839 185.931 182.874 170.134 176.977 158.049C171.08 145.964 160.888 143.853 160.306 151.278Z" fill="white"/>
<path d="M127.182 209.664C126.891 209.664 126.672 209.518 126.527 209.373C125.507 208.208 126.235 203.039 126.891 201.802C127.691 200.127 131.623 197.288 133.37 196.487C134.098 196.196 139.922 194.23 146.692 192.046C155.283 189.207 164.965 186.077 166.203 185.494C167.222 184.257 163.8 167.222 159.869 151.497C159.869 151.424 159.869 151.424 159.869 151.351C160.015 148.803 161.325 147.129 163.436 146.692C167.222 145.964 173.264 149.604 177.341 158.049C183.311 170.279 185.203 186.295 181.636 193.721C178.142 201.001 144.799 202.457 141.378 202.53C140.795 203.33 138.684 206.024 137.301 206.606C136.937 206.825 136.5 206.752 136.136 206.534C135.772 206.242 135.554 205.806 135.481 205.296C134.899 206.315 134.171 207.407 133.443 207.771C131.987 208.354 130.458 208.863 128.929 209.154L127.546 209.518C127.327 209.591 127.255 209.664 127.182 209.664ZM160.815 151.278C161.034 152.152 162.999 160.087 164.674 168.095C168.387 185.494 167.149 186.004 166.567 186.295C165.256 186.878 155.501 190.081 146.911 192.92C140.431 195.031 134.389 196.997 133.661 197.361C131.987 198.089 128.274 200.855 127.691 202.166C127.036 203.622 126.672 208.208 127.182 208.718C127.619 208.572 128.055 208.426 128.565 208.281C130.021 207.917 131.477 207.48 132.933 206.97C133.588 206.606 134.753 204.641 135.335 203.403C135.408 203.185 135.699 203.112 135.918 203.112C136.136 203.185 136.282 203.403 136.282 203.622C136.209 204.422 136.355 205.442 136.646 205.66C136.719 205.66 136.791 205.66 136.864 205.66C137.956 205.15 139.995 202.602 140.723 201.656C140.795 201.51 140.941 201.438 141.087 201.438C141.159 201.438 150.332 201.074 159.723 199.909C175.303 197.943 179.743 195.104 180.69 193.138C184.184 185.931 182.219 170.352 176.395 158.34C172.609 150.478 166.931 146.91 163.582 147.566C161.98 147.857 160.961 149.167 160.815 151.278Z" fill="#231F20"/>
<path d="M134.971 217.381C133.661 215.488 116.771 187.606 116.771 187.606L76.9497 191.537L96.4601 219.929L134.971 217.381Z" fill="white"/>
<path d="M96.5328 220.438C96.3872 220.438 96.2416 220.366 96.096 220.22L76.5856 191.828C76.5128 191.682 76.44 191.537 76.5128 191.318C76.5856 191.173 76.7312 191.027 76.8768 191.027L116.698 187.096C116.917 187.096 117.062 187.169 117.135 187.314C117.281 187.606 134.025 215.27 135.335 217.09C135.408 217.235 135.481 217.454 135.408 217.599C135.335 217.745 135.19 217.89 134.971 217.89L96.5328 220.438ZM77.896 191.974L96.824 219.492L134.17 217.017C131.331 212.576 118.3 190.954 116.553 188.188L77.896 191.974Z" fill="#231F20"/>
<path d="M110.365 205.369C109.783 204.058 108.836 202.966 107.671 202.093C106.943 201.51 106.07 201.146 105.196 201.074C104.25 201.001 103.376 201.365 102.794 202.093C102.43 202.748 102.284 203.476 102.43 204.131C102.575 205.806 103.449 207.334 104.832 208.354C107.307 210.028 112.185 209.154 110.365 205.369Z" fill="white"/>
<path d="M107.671 209.664C106.579 209.664 105.56 209.373 104.686 208.79C103.158 207.698 102.211 206.024 102.066 204.204C101.92 203.403 102.138 202.53 102.502 201.802C103.158 200.928 104.25 200.418 105.342 200.564C106.361 200.71 107.307 201.074 108.108 201.656C109.346 202.53 110.292 203.694 110.947 205.078C111.894 207.116 111.093 208.281 110.51 208.718C109.564 209.373 108.618 209.664 107.671 209.664ZM105.05 201.51C104.395 201.51 103.667 201.802 103.303 202.384C103.012 202.894 102.866 203.549 103.012 204.131C103.158 205.66 103.958 207.116 105.196 207.99C106.506 208.863 108.763 208.936 109.782 208.062C110.438 207.48 110.51 206.679 110.001 205.514C109.418 204.277 108.545 203.258 107.526 202.457C106.87 201.947 106.142 201.583 105.269 201.51H105.05Z" fill="#231F20"/>
<path d="M105.342 203.767C105.415 203.767 106.652 205.733 106.652 205.733L107.526 203.767" fill="white"/>
<path d="M106.652 206.315C106.507 206.315 106.361 206.242 106.215 206.097C105.779 205.369 105.196 204.422 105.051 204.204C104.978 204.131 104.905 203.986 104.905 203.84C104.905 203.549 105.123 203.33 105.415 203.33C105.706 203.33 105.779 203.33 106.579 204.714L107.016 203.622C107.089 203.403 107.38 203.258 107.671 203.33C107.89 203.403 108.035 203.694 107.963 203.986L107.089 205.951C107.016 206.17 106.871 206.242 106.652 206.315Z" fill="#231F20"/>
</svg>
