<svg width="364" height="364" viewBox="0 0 364 364" fill="none" xmlns="http://www.w3.org/2000/svg">
<path d="M216.944 110.299H249.857C252.597 110.295 255.244 111.29 257.303 113.098C259.362 114.906 260.69 117.403 261.039 120.12L264.679 148.811H202.151L205.791 120.12C206.14 117.408 207.464 114.915 209.516 113.107C211.569 111.3 214.209 110.302 216.944 110.299Z" fill="#D1D3D4"/>
<path d="M113.786 110.299H146.699C149.435 110.3 152.078 111.297 154.132 113.105C156.186 114.912 157.511 117.406 157.86 120.12L161.5 148.811H99.0081L102.648 120.12C102.996 117.41 104.318 114.919 106.368 113.112C108.417 111.305 111.054 110.305 113.786 110.299Z" fill="#D1D3D4"/>
<path d="M122.755 99.1099C122.755 99.1099 121.183 103.776 121.904 105.953L124.088 106.179L125.223 98.8988L122.755 99.1099Z" fill="white"/>
<path d="M124.08 106.688H124.029L121.845 106.463C121.748 106.453 121.655 106.416 121.577 106.355C121.5 106.295 121.441 106.213 121.409 106.121C120.681 103.813 122.195 99.1537 122.268 98.9571C122.298 98.8637 122.355 98.781 122.431 98.719C122.507 98.657 122.6 98.6183 122.697 98.6077L125.158 98.3747C125.236 98.3688 125.314 98.38 125.387 98.4077C125.46 98.4354 125.526 98.4788 125.58 98.5349C125.635 98.5893 125.675 98.6562 125.698 98.7298C125.721 98.8033 125.725 98.8814 125.711 98.9571L124.575 106.237C124.561 106.359 124.503 106.473 124.412 106.556C124.321 106.639 124.203 106.686 124.08 106.688ZM122.304 105.48L123.651 105.618L124.612 99.4449L123.156 99.5832C122.712 100.952 121.984 103.864 122.304 105.48Z" fill="#231F20"/>
<path d="M139.623 99.1099C139.623 99.1099 141.196 103.776 140.475 105.953L138.291 106.179L137.155 98.8988L139.623 99.1099Z" fill="white"/>
<path d="M138.32 106.688C138.199 106.688 138.082 106.645 137.99 106.566C137.898 106.487 137.837 106.379 137.818 106.259L136.682 98.979C136.672 98.9033 136.678 98.8263 136.701 98.7534C136.723 98.6804 136.762 98.6133 136.813 98.5567C136.867 98.5007 136.933 98.4572 137.006 98.4296C137.079 98.4019 137.157 98.3906 137.235 98.3966L139.696 98.6295C139.794 98.6406 139.888 98.6793 139.965 98.7411C140.042 98.8029 140.1 98.8854 140.133 98.979C140.198 99.1755 141.749 103.835 140.984 106.142C140.953 106.235 140.896 106.316 140.82 106.376C140.744 106.437 140.652 106.475 140.555 106.485L138.371 106.71L138.32 106.688ZM137.789 99.4085L138.749 105.582L140.096 105.444C140.424 103.827 139.696 100.915 139.266 99.5468L137.789 99.4085Z" fill="#231F20"/>
<path d="M148.68 147.981L151.497 127C151.497 127 140.897 121.117 137.053 120.368C135.466 120.055 123.323 120.637 123.323 120.637C123.323 120.637 107.548 126.264 107.016 127C106.739 127.386 109.098 138.014 111.384 147.981H148.68Z" fill="#001B94"/>
<path d="M137.869 120.637C137.869 120.637 135.481 127.808 133.304 131.557L133.129 131.834C131.673 134.272 130.654 136.085 130.654 136.085C129.632 134.572 128.694 133.005 127.844 131.389C126.029 127.939 124.514 124.339 123.316 120.63C123.316 120.63 125.973 119.465 131.12 119.414C135.801 119.392 137.869 120.637 137.869 120.637Z" fill="#231F20"/>
<path d="M130.654 136.602C130.571 136.6 130.49 136.579 130.416 136.539C130.343 136.5 130.28 136.444 130.232 136.376C129.201 134.849 128.253 133.267 127.393 131.637C125.568 128.154 124.041 124.523 122.828 120.782C122.793 120.663 122.802 120.536 122.855 120.423C122.907 120.31 122.998 120.221 123.112 120.171C123.229 120.12 125.922 118.962 131.12 118.912C135.925 118.861 138.051 120.142 138.145 120.2C138.242 120.262 138.316 120.354 138.355 120.462C138.395 120.57 138.398 120.687 138.364 120.797C138.262 121.088 135.932 128.077 133.748 131.819L133.581 132.103C132.125 134.505 131.12 136.318 131.113 136.333C131.071 136.409 131.01 136.474 130.936 136.519C130.862 136.565 130.778 136.591 130.691 136.595L130.654 136.602ZM123.949 120.943C125.125 124.453 126.586 127.862 128.317 131.135C129.045 132.591 129.846 133.879 130.64 135.095C131.069 134.367 131.804 133.064 132.722 131.557L132.882 131.28C134.709 128.135 136.718 122.464 137.25 120.877C135.299 120.131 133.213 119.801 131.127 119.909C128.696 119.889 126.276 120.238 123.949 120.943Z" fill="#231F20"/>
<path d="M124.787 117.426L136.478 117.463L136.274 121.925H128.019L124.008 120.004L124.787 117.426Z" fill="#231F20"/>
<path d="M136.274 122.435H128.019C127.943 122.433 127.869 122.415 127.8 122.384L123.76 120.462C123.65 120.41 123.563 120.321 123.514 120.21C123.465 120.099 123.456 119.974 123.491 119.858L124.27 117.274C124.303 117.17 124.368 117.081 124.456 117.017C124.543 116.953 124.649 116.918 124.757 116.917L136.449 116.953C136.517 116.954 136.584 116.969 136.647 116.996C136.709 117.024 136.766 117.063 136.813 117.113C136.859 117.162 136.896 117.221 136.92 117.285C136.943 117.349 136.954 117.417 136.951 117.485L136.747 121.947C136.742 122.073 136.691 122.192 136.604 122.282C136.517 122.372 136.399 122.426 136.274 122.435ZM128.128 121.416H135.779L135.939 117.972L125.165 117.936L124.626 119.734L128.128 121.416Z" fill="#231F20"/>
<path d="M125.602 106.463C125.245 103.616 120.564 102.75 120.681 106.099C120.672 107.261 121.077 108.389 121.824 109.28C122.202 109.717 122.702 110.031 123.259 110.182C123.817 110.334 124.407 110.316 124.954 110.132" fill="white"/>
<path d="M124.058 110.809C123.566 110.802 123.081 110.693 122.633 110.49C122.184 110.287 121.783 109.994 121.452 109.63C120.627 108.646 120.173 107.404 120.171 106.121C120.128 105.799 120.152 105.473 120.24 105.161C120.328 104.849 120.479 104.558 120.684 104.307C120.888 104.055 121.142 103.848 121.429 103.698C121.717 103.548 122.032 103.458 122.355 103.434C123.235 103.373 124.107 103.644 124.797 104.194C125.487 104.744 125.946 105.533 126.082 106.405C126.09 106.471 126.085 106.538 126.068 106.603C126.05 106.667 126.019 106.728 125.978 106.78C125.937 106.833 125.885 106.877 125.827 106.91C125.769 106.943 125.705 106.964 125.638 106.972C125.572 106.981 125.504 106.975 125.44 106.958C125.375 106.94 125.315 106.909 125.262 106.868C125.21 106.827 125.165 106.775 125.133 106.717C125.1 106.659 125.079 106.595 125.07 106.528C124.964 105.918 124.636 105.369 124.15 104.986C123.663 104.604 123.053 104.414 122.435 104.453C121.94 104.49 121.117 104.752 121.168 106.084C121.159 107.125 121.517 108.136 122.18 108.938C122.489 109.297 122.897 109.557 123.352 109.687C123.808 109.816 124.291 109.809 124.743 109.666C124.804 109.64 124.871 109.626 124.937 109.626C125.004 109.626 125.07 109.639 125.132 109.665C125.194 109.691 125.25 109.729 125.297 109.776C125.344 109.824 125.381 109.88 125.405 109.943C125.431 110.005 125.445 110.071 125.445 110.139C125.446 110.206 125.432 110.273 125.407 110.335C125.381 110.398 125.343 110.454 125.295 110.502C125.248 110.549 125.191 110.587 125.129 110.612C124.787 110.745 124.424 110.811 124.058 110.809Z" fill="#231F20"/>
<path d="M135.801 106.463C136.158 103.616 140.839 102.75 140.722 106.099C140.725 107.262 140.318 108.388 139.572 109.28C139.194 109.717 138.694 110.031 138.136 110.182C137.579 110.334 136.989 110.316 136.442 110.132" fill="white"/>
<path d="M137.337 110.809C136.966 110.811 136.598 110.742 136.253 110.605C136.19 110.58 136.133 110.542 136.086 110.494C136.038 110.447 136 110.39 135.974 110.328C135.949 110.266 135.936 110.199 135.936 110.131C135.936 110.064 135.95 109.997 135.976 109.935C136.001 109.873 136.038 109.817 136.084 109.769C136.131 109.721 136.187 109.683 136.249 109.658C136.311 109.632 136.377 109.619 136.444 109.619C136.511 109.619 136.577 109.633 136.638 109.659C137.09 109.802 137.573 109.809 138.029 109.68C138.485 109.55 138.892 109.29 139.201 108.931C139.861 108.127 140.219 107.117 140.213 106.077C140.257 104.745 139.434 104.483 138.939 104.446C138.321 104.406 137.71 104.596 137.224 104.979C136.738 105.362 136.41 105.911 136.303 106.521C136.295 106.587 136.273 106.652 136.24 106.71C136.207 106.768 136.162 106.819 136.109 106.86C136.056 106.9 135.995 106.93 135.931 106.948C135.866 106.965 135.798 106.97 135.732 106.961C135.666 106.953 135.601 106.931 135.543 106.898C135.485 106.864 135.434 106.82 135.393 106.767C135.353 106.714 135.322 106.653 135.305 106.589C135.288 106.524 135.283 106.456 135.292 106.39C135.431 105.519 135.892 104.731 136.583 104.183C137.275 103.635 138.146 103.365 139.026 103.427C139.349 103.451 139.664 103.541 139.952 103.691C140.239 103.841 140.493 104.048 140.697 104.299C140.902 104.551 141.053 104.841 141.141 105.153C141.229 105.465 141.253 105.792 141.21 106.113C141.209 107.397 140.755 108.64 139.929 109.622C139.599 109.984 139.199 110.276 138.754 110.48C138.309 110.684 137.827 110.796 137.337 110.809Z" fill="#231F20"/>
<path d="M125.216 120.644C127.074 121.446 129.074 121.867 131.098 121.882C134.804 122.006 135.43 121.001 135.43 121.001L135.335 119.014L135.131 114.391L134.942 110.074L126.461 109.782L126.053 113.291L125.93 114.427L125.216 120.644Z" fill="white"/>
<path d="M131.768 122.399H131.12C129.023 122.379 126.952 121.94 125.027 121.11C124.934 121.061 124.859 120.986 124.809 120.894C124.76 120.802 124.739 120.697 124.75 120.593L125.944 109.717C125.962 109.592 126.025 109.477 126.122 109.395C126.218 109.313 126.342 109.27 126.468 109.273L134.949 109.564C135.078 109.568 135.199 109.62 135.29 109.711C135.381 109.802 135.433 109.924 135.437 110.052L135.925 120.972C135.934 121.074 135.908 121.177 135.852 121.263C135.757 121.467 135.008 122.399 131.768 122.399ZM125.806 120.331C127.517 120.98 129.327 121.332 131.156 121.372C133.704 121.467 134.665 120.994 134.949 120.79L134.491 110.598L126.956 110.336L125.806 120.331Z" fill="#231F20"/>
<path d="M138.123 98.7751L137.767 109.062C137.74 109.916 137.545 110.756 137.193 111.535C136.84 112.313 136.337 113.015 135.713 113.598C135.088 114.181 134.355 114.635 133.554 114.934C132.753 115.232 131.901 115.369 131.047 115.337H130.319C128.916 115.287 127.566 114.784 126.472 113.904C125.377 113.023 124.597 111.813 124.248 110.452C124.093 109.854 124.027 109.236 124.051 108.618L124.408 98.3311C124.408 98.3311 126.017 100.442 130.618 100.399C133.208 100.413 135.77 99.8584 138.123 98.7751Z" fill="white"/>
<path d="M131.266 115.854H131.04H130.312C128.8 115.795 127.347 115.252 126.167 114.304C124.987 113.357 124.143 112.055 123.76 110.59C123.598 109.941 123.527 109.272 123.549 108.603L123.906 98.3164C123.908 98.2108 123.943 98.1087 124.008 98.0249C124.072 97.941 124.161 97.8799 124.262 97.8505C124.361 97.8165 124.468 97.8152 124.568 97.8466C124.668 97.8781 124.754 97.9407 124.816 98.0252C124.816 98.0252 126.345 99.8961 130.494 99.8961H130.618C133.127 99.9127 135.61 99.3888 137.898 98.3601C137.975 98.3139 138.063 98.2895 138.153 98.2895C138.242 98.2895 138.331 98.3139 138.408 98.3601C138.483 98.4063 138.545 98.4717 138.587 98.5497C138.63 98.6277 138.65 98.7155 138.648 98.8041L138.291 109.098C138.232 110.917 137.467 112.641 136.159 113.905C134.85 115.169 133.1 115.873 131.28 115.868L131.266 115.854ZM124.845 99.3938L124.525 108.603C124.5 109.174 124.562 109.746 124.707 110.299C125.031 111.552 125.752 112.666 126.76 113.476C127.769 114.287 129.012 114.75 130.305 114.798H131.033C132.414 114.854 133.771 114.428 134.872 113.592C135.974 112.757 136.75 111.564 137.068 110.219C137.162 109.825 137.215 109.423 137.228 109.018L137.556 99.554C135.323 100.412 132.952 100.854 130.56 100.857C127.568 100.886 125.799 100.056 124.845 99.3938Z" fill="#231F20"/>
<path d="M132.358 112.957C131.1 112.932 129.861 112.65 128.718 112.127C128.593 112.074 128.495 111.973 128.444 111.848C128.394 111.722 128.395 111.581 128.448 111.457C128.501 111.332 128.602 111.234 128.727 111.183C128.853 111.133 128.994 111.134 129.118 111.188C132.125 112.476 133.726 111.712 133.741 111.704C133.862 111.647 134.001 111.639 134.128 111.681C134.255 111.723 134.362 111.812 134.425 111.93C134.485 112.05 134.495 112.189 134.454 112.316C134.414 112.444 134.325 112.551 134.207 112.614C133.623 112.861 132.992 112.978 132.358 112.957Z" fill="#231F20"/>
<path d="M127.75 105.946C127.995 105.946 128.194 105.496 128.194 104.941C128.194 104.386 127.995 103.937 127.75 103.937C127.504 103.937 127.305 104.386 127.305 104.941C127.305 105.496 127.504 105.946 127.75 105.946Z" fill="#231F20"/>
<path d="M134.316 105.946C134.561 105.946 134.76 105.496 134.76 104.941C134.76 104.386 134.561 103.937 134.316 103.937C134.071 103.937 133.872 104.386 133.872 104.941C133.872 105.496 134.071 105.946 134.316 105.946Z" fill="#231F20"/>
<path d="M136.478 117.463C136.318 117.463 131.069 121.882 131.069 121.882L134.316 125.667L137.563 119.742L136.478 117.463Z" fill="white"/>
<path d="M134.316 126.177C134.242 126.178 134.169 126.162 134.102 126.13C134.035 126.099 133.977 126.053 133.93 125.995L130.676 122.209C130.632 122.159 130.599 122.1 130.579 122.036C130.559 121.972 130.553 121.905 130.56 121.838C130.563 121.77 130.581 121.704 130.613 121.644C130.644 121.583 130.688 121.53 130.742 121.489C136.136 116.953 136.245 116.953 136.478 116.953C136.575 116.953 136.671 116.98 136.753 117.032C136.836 117.083 136.902 117.157 136.944 117.244L138.022 119.53C138.059 119.601 138.079 119.68 138.079 119.76C138.079 119.84 138.059 119.918 138.022 119.989L134.76 125.944C134.722 126.017 134.666 126.08 134.597 126.126C134.529 126.172 134.449 126.199 134.367 126.206L134.316 126.177ZM131.768 121.94L134.2 124.772L136.966 119.727L136.238 118.235C135.408 118.941 133.311 120.659 131.768 121.94Z" fill="#231F20"/>
<path d="M124.787 117.426C124.961 117.426 131.12 121.882 131.12 121.882L127.364 125.667L123.607 119.741L124.787 117.426Z" fill="white"/>
<path d="M127.4 126.177H127.342C127.266 126.169 127.193 126.144 127.129 126.104C127.065 126.063 127.01 126.009 126.971 125.944L123.214 120.025C123.171 119.949 123.149 119.862 123.149 119.774C123.149 119.686 123.171 119.6 123.214 119.523L124.393 117.201C124.435 117.117 124.5 117.047 124.58 116.998C124.659 116.949 124.751 116.924 124.845 116.924C125.056 116.924 125.187 116.924 131.47 121.474C131.529 121.517 131.579 121.572 131.615 121.636C131.652 121.7 131.674 121.772 131.68 121.845C131.686 121.918 131.677 121.992 131.651 122.061C131.626 122.13 131.587 122.193 131.535 122.246L127.786 126.031C127.681 126.128 127.543 126.181 127.4 126.177ZM124.233 119.72L127.487 124.852L130.399 121.94C128.558 120.608 126.031 118.817 125.056 118.147L124.233 119.72Z" fill="#231F20"/>
<path d="M122.304 100.107C122.304 100.107 123.418 103.121 131.353 103.121C136.798 103.121 140.453 101.046 140.679 100.107C140.679 100.107 135.029 98.6878 131.215 98.8916C128.224 99.1299 125.249 99.5358 122.304 100.107Z" fill="#231F20"/>
<path d="M131.338 103.631C123.141 103.631 121.874 100.42 121.809 100.289C121.784 100.219 121.775 100.145 121.781 100.071C121.787 99.9966 121.809 99.9247 121.845 99.8598C121.88 99.7952 121.928 99.7393 121.988 99.6964C122.047 99.6535 122.115 99.6247 122.187 99.6123C125.161 99.0317 128.165 98.6233 131.186 98.3892C135.008 98.1708 140.555 99.554 140.795 99.6123C140.925 99.6465 141.036 99.7308 141.105 99.8467C141.173 99.9626 141.192 100.101 141.159 100.231C140.832 101.585 136.747 103.631 131.338 103.631ZM123.17 100.464C123.949 101.25 126.082 102.612 131.338 102.612C135.779 102.612 138.728 101.221 139.769 100.428C138.102 100.056 134.105 99.2483 131.244 99.4084C128.536 99.6154 125.841 99.9677 123.17 100.464Z" fill="#231F20"/>
<path d="M122.049 99.3794C122.049 99.3794 120.368 97.654 120.724 95.9796C121.081 94.3052 125.347 91.7354 129.606 91.2913C133.865 90.8472 139.019 93.0166 140.577 94.4144C142.135 95.8122 142.797 98.0544 140.577 99.3794C140.577 99.3794 130.56 97.0352 122.049 99.3794Z" fill="#231F20"/>
<path d="M122.049 99.8962C121.981 99.8961 121.913 99.8819 121.851 99.8543C121.788 99.8267 121.732 99.7865 121.685 99.7361C121.605 99.656 119.814 97.7923 120.229 95.8704C120.673 93.7883 125.384 91.2185 129.548 90.7744C134.098 90.3012 139.368 92.6381 140.919 94.0285C141.425 94.4331 141.831 94.949 142.105 95.5362C142.379 96.1234 142.514 96.7659 142.499 97.4137C142.441 97.9188 142.259 98.4017 141.969 98.8195C141.68 99.2373 141.291 99.5772 140.839 99.8089C140.783 99.8445 140.721 99.8686 140.656 99.8798C140.591 99.8911 140.525 99.8892 140.46 99.8744C140.359 99.8744 130.472 97.5812 122.18 99.8744C122.138 99.8886 122.094 99.896 122.049 99.8962ZM130.669 97.8214C133.966 97.8299 137.254 98.1713 140.482 98.8406C140.754 98.6814 140.986 98.4622 141.16 98.1998C141.334 97.9374 141.446 97.6386 141.487 97.3264C141.483 96.837 141.368 96.355 141.151 95.9163C140.934 95.4776 140.621 95.0936 140.235 94.7929C138.844 93.5481 133.85 91.3568 129.657 91.7936C125.464 92.2304 121.518 94.7056 121.227 96.0815C120.994 97.1589 121.831 98.331 122.224 98.8115C124.985 98.124 127.823 97.7913 130.669 97.8214Z" fill="#231F20"/>
<path d="M122.049 99.3793L122.29 100.107C125.169 99.5203 128.09 99.1649 131.026 99.0444C134.257 99.1322 137.477 99.4877 140.65 100.107L140.883 99.1682C137.974 98.2255 134.926 97.7873 131.87 97.8723C127.022 98.0689 123.483 98.7677 122.049 99.3793Z" fill="white"/>
<path d="M131.222 98.8988C132.159 98.8988 132.918 98.1394 132.918 97.2026C132.918 96.2658 132.159 95.5063 131.222 95.5063C130.285 95.5063 129.526 96.2658 129.526 97.2026C129.526 98.1394 130.285 98.8988 131.222 98.8988Z" fill="#001B94"/>
<path d="M131.469 104.555C131.469 104.555 133.806 109.542 132.925 109.782C132.176 109.91 131.411 109.91 130.661 109.782" fill="white"/>
<path d="M131.935 110.394C131.477 110.388 131.02 110.351 130.567 110.285C130.445 110.249 130.341 110.17 130.274 110.062C130.207 109.954 130.182 109.826 130.203 109.701C130.225 109.576 130.292 109.463 130.391 109.384C130.49 109.305 130.615 109.266 130.741 109.273C131.359 109.379 131.99 109.396 132.612 109.324C132.612 108.669 131.826 106.528 131.004 104.774C130.975 104.713 130.959 104.647 130.956 104.58C130.954 104.514 130.964 104.447 130.987 104.384C131.01 104.321 131.045 104.263 131.09 104.214C131.136 104.165 131.19 104.125 131.251 104.097C131.312 104.067 131.377 104.051 131.444 104.047C131.512 104.044 131.579 104.054 131.642 104.077C131.705 104.1 131.763 104.136 131.812 104.182C131.861 104.228 131.901 104.283 131.928 104.344C132.707 106.011 133.959 108.945 133.53 109.862C133.485 109.962 133.419 110.05 133.336 110.121C133.253 110.192 133.155 110.243 133.049 110.27C132.685 110.36 132.31 110.401 131.935 110.394Z" fill="#231F20"/>
<path d="M125.944 147.449C125.894 147.45 125.844 147.441 125.797 147.423C125.75 147.404 125.707 147.376 125.672 147.341C125.636 147.306 125.607 147.264 125.588 147.217C125.568 147.171 125.558 147.121 125.558 147.071V141.152C125.558 141.091 125.573 141.031 125.6 140.976C125.628 140.922 125.669 140.875 125.718 140.839C130.814 137.09 134.796 130.254 137.497 120.535C137.51 120.487 137.532 120.441 137.562 120.401C137.593 120.362 137.631 120.328 137.674 120.303C137.717 120.278 137.765 120.262 137.815 120.255C137.865 120.249 137.915 120.252 137.963 120.266C138.061 120.295 138.143 120.36 138.193 120.448C138.243 120.536 138.257 120.64 138.233 120.739C135.51 130.53 131.506 137.483 126.323 141.341V147.056C126.324 147.107 126.316 147.158 126.298 147.205C126.28 147.253 126.252 147.297 126.217 147.333C126.182 147.37 126.139 147.399 126.092 147.419C126.045 147.439 125.995 147.449 125.944 147.449Z" fill="#231F20"/>
<path d="M127.749 141.858C127.678 141.858 127.607 141.837 127.547 141.799C127.486 141.76 127.438 141.705 127.407 141.64C127.385 141.595 127.372 141.546 127.368 141.496C127.365 141.446 127.372 141.396 127.388 141.348C127.404 141.301 127.43 141.257 127.463 141.22C127.496 141.182 127.537 141.152 127.582 141.13C132.736 138.648 138.24 135.641 138.538 134.898C138.538 134.367 137.017 133.02 135.59 132.103C135.535 132.066 135.489 132.016 135.457 131.958C135.426 131.9 135.409 131.835 135.408 131.768C135.417 131.699 135.444 131.633 135.486 131.576C135.528 131.52 135.584 131.476 135.648 131.448C137.301 130.763 140.016 129.599 140.591 129.264C140.671 128.536 139.638 124.932 138.546 121.714C138.513 121.618 138.52 121.512 138.565 121.421C138.61 121.33 138.69 121.26 138.786 121.227C138.882 121.194 138.988 121.201 139.079 121.246C139.171 121.291 139.241 121.371 139.274 121.467C141.894 129.22 141.356 129.642 141.123 129.817C139.653 130.597 138.142 131.294 136.595 131.906C137.585 132.634 139.31 133.974 139.288 135C139.288 136.209 132.154 139.82 127.91 141.865C127.856 141.873 127.802 141.871 127.749 141.858Z" fill="#231F20"/>
<path d="M128.943 137.206C128.9 137.213 128.856 137.213 128.812 137.206C128.638 137.141 124.532 135.663 123.09 134.556C121.649 133.45 122.588 130.021 122.967 128.732C121.765 128.594 119.094 128.186 118.482 127.371C117.754 126.388 120.382 123.396 122.013 121.7C122.048 121.664 122.09 121.636 122.136 121.617C122.183 121.597 122.232 121.587 122.282 121.587C122.332 121.587 122.382 121.597 122.428 121.617C122.474 121.636 122.516 121.664 122.552 121.7C122.588 121.735 122.617 121.776 122.637 121.823C122.657 121.869 122.667 121.919 122.667 121.969C122.667 122.02 122.657 122.069 122.637 122.116C122.617 122.162 122.588 122.204 122.552 122.239C120.586 124.292 118.97 126.483 119.101 126.934C119.465 127.422 121.896 127.873 123.469 128.033C123.526 128.038 123.581 128.056 123.63 128.085C123.679 128.114 123.721 128.153 123.753 128.201C123.782 128.25 123.8 128.304 123.806 128.361C123.813 128.417 123.807 128.474 123.789 128.528C123.221 130.283 122.639 133.311 123.513 133.981C124.867 135.015 128.994 136.5 129.031 136.515C129.11 136.547 129.176 136.606 129.218 136.681C129.259 136.756 129.274 136.843 129.26 136.928C129.245 137.013 129.203 137.09 129.139 137.147C129.074 137.204 128.993 137.238 128.907 137.243L128.943 137.206Z" fill="#231F20"/>
<path d="M114.238 147.981C116.058 144.261 117.274 141.472 117.274 141.472L107.016 127C107.016 127 102.714 138.065 99.0808 147.981H114.238Z" fill="#001B94"/>
<path d="M159.09 147.981C155.45 138.065 151.497 127 151.497 127L140.897 141.472C140.897 141.472 142.12 144.261 143.933 147.981H159.09Z" fill="#001B94"/>
<path d="M112.047 136.471C111.995 136.472 111.944 136.462 111.896 136.442C111.848 136.422 111.805 136.392 111.77 136.354C111.059 135.727 110.209 135.275 109.291 135.036C108.373 134.797 107.412 134.777 106.485 134.978C106.433 135 106.377 135.01 106.321 135.007C106.265 135.005 106.211 134.99 106.161 134.963C106.112 134.937 106.069 134.9 106.035 134.855C106.002 134.81 105.979 134.758 105.968 134.703C105.957 134.648 105.958 134.592 105.972 134.537C105.985 134.483 106.011 134.432 106.046 134.389C106.082 134.346 106.126 134.311 106.177 134.287C106.228 134.263 106.283 134.25 106.339 134.25C107.39 134.02 108.481 134.044 109.521 134.322C110.561 134.599 111.519 135.121 112.316 135.845C112.352 135.88 112.38 135.922 112.399 135.968C112.418 136.014 112.428 136.064 112.428 136.114C112.428 136.164 112.418 136.214 112.399 136.26C112.38 136.306 112.352 136.348 112.316 136.384C112.241 136.447 112.144 136.478 112.047 136.471Z" fill="#231F20"/>
<path d="M146.605 136.471C146.504 136.47 146.408 136.431 146.335 136.362C146.265 136.29 146.226 136.193 146.226 136.092C146.226 135.992 146.265 135.895 146.335 135.823C147.134 135.102 148.092 134.581 149.131 134.304C150.171 134.027 151.261 134.001 152.312 134.229C152.362 134.236 152.41 134.254 152.453 134.281C152.495 134.308 152.532 134.343 152.561 134.385C152.589 134.426 152.609 134.473 152.619 134.523C152.629 134.572 152.629 134.623 152.618 134.673C152.609 134.722 152.591 134.769 152.564 134.811C152.537 134.854 152.501 134.89 152.46 134.919C152.419 134.947 152.372 134.967 152.323 134.977C152.274 134.987 152.223 134.988 152.174 134.978C151.247 134.777 150.285 134.797 149.367 135.036C148.449 135.275 147.6 135.727 146.889 136.354C146.852 136.393 146.808 136.423 146.759 136.443C146.71 136.463 146.658 136.472 146.605 136.471Z" fill="#231F20"/>
<path d="M129.533 127.509C123.705 127.515 118.087 129.684 113.767 133.597C109.448 137.51 106.736 142.888 106.157 148.687H110.904C111.466 144.143 113.669 139.961 117.1 136.929C120.53 133.897 124.951 132.223 129.529 132.223C134.108 132.223 138.529 133.897 141.959 136.929C145.389 139.961 147.593 144.143 148.155 148.687H152.88C152.301 142.893 149.593 137.519 145.28 133.607C140.967 129.695 135.356 127.522 129.533 127.509Z" fill="#231F20"/>
<path d="M138.618 148.687H120.418C120.923 146.655 122.093 144.851 123.743 143.561C125.392 142.272 127.425 141.571 129.518 141.571C131.612 141.571 133.645 142.272 135.294 143.561C136.944 144.851 138.114 146.655 138.618 148.687Z" fill="#231F20"/>
<path d="M107.679 138.167C107.743 137.765 107.935 137.393 108.226 137.108C108.516 136.822 108.891 136.637 109.295 136.58C111.574 136.034 113.921 135.823 116.262 135.954C116.742 135.954 117.325 136.107 117.448 136.566C117.473 136.755 117.443 136.948 117.362 137.121C117.281 137.294 117.152 137.439 116.99 137.541C116.07 138.114 115 138.396 113.918 138.349C114.401 138.396 114.888 138.413 115.374 138.4C115.861 138.451 116.393 138.757 116.4 139.245C116.407 139.732 115.672 140.133 115.126 140.264L113.386 140.679C113.761 140.637 114.141 140.677 114.5 140.795C114.679 140.858 114.834 140.974 114.944 141.127C115.055 141.281 115.116 141.465 115.119 141.654C115.081 141.848 114.995 142.029 114.867 142.179C114.74 142.329 114.576 142.445 114.391 142.513C113.829 142.803 113.202 142.943 112.571 142.921C112.984 142.97 113.391 143.06 113.786 143.19C113.929 143.217 114.062 143.278 114.175 143.368C114.288 143.458 114.377 143.575 114.434 143.707C114.448 143.843 114.428 143.98 114.378 144.107C114.327 144.233 114.246 144.346 114.143 144.435C112.745 145.957 108.989 146.743 107.271 145.338C105.429 143.838 107.016 139.914 107.679 138.167Z" fill="white"/>
<path d="M109.76 146.583C108.749 146.631 107.752 146.33 106.936 145.731C104.934 144.1 106.324 140.351 107.074 138.335L107.198 137.992C107.368 137.371 107.739 136.823 108.254 136.435C108.538 136.269 108.848 136.151 109.171 136.085C111.5 135.523 113.899 135.307 116.291 135.444C117.448 135.51 117.827 136.012 117.943 136.427C118.001 136.715 117.971 137.013 117.857 137.283C117.743 137.554 117.549 137.783 117.303 137.942C117.064 138.126 116.802 138.278 116.524 138.393C116.638 138.501 116.729 138.631 116.793 138.774C116.856 138.918 116.891 139.073 116.895 139.23C116.895 139.645 116.713 140.402 115.279 140.752C115.508 141.006 115.628 141.341 115.614 141.683C115.571 141.967 115.457 142.234 115.281 142.46C115.105 142.686 114.873 142.862 114.609 142.972L114.529 143.008C114.717 143.151 114.851 143.354 114.907 143.584C114.95 143.802 114.934 144.027 114.863 144.238C114.791 144.449 114.666 144.637 114.5 144.785C113.21 145.971 111.513 146.614 109.76 146.583ZM108.159 138.32L108.028 138.67C107.416 140.315 106.142 143.766 107.576 144.923C109.011 146.081 112.505 145.433 113.75 144.071C113.829 144 113.889 143.91 113.925 143.809C113.833 143.734 113.726 143.679 113.612 143.649C113.252 143.532 112.881 143.452 112.505 143.409C112.37 143.402 112.243 143.342 112.152 143.242C112.061 143.141 112.014 143.009 112.021 142.874C112.028 142.739 112.088 142.612 112.188 142.521C112.289 142.43 112.421 142.383 112.556 142.39H112.68C113.187 142.388 113.686 142.266 114.136 142.033C114.405 141.895 114.58 141.72 114.587 141.589C114.594 141.458 114.456 141.305 114.281 141.239C113.989 141.15 113.682 141.123 113.379 141.159C113.254 141.156 113.133 141.111 113.038 141.03C112.943 140.949 112.878 140.838 112.854 140.715C112.837 140.588 112.867 140.46 112.94 140.355C113.013 140.249 113.123 140.175 113.248 140.147L115.024 139.776C115.548 139.652 115.912 139.441 115.905 139.259C115.898 139.077 115.628 138.946 115.337 138.917C115.158 138.902 114.978 138.902 114.798 138.917C114.474 138.943 114.148 138.924 113.83 138.859C113.711 138.831 113.606 138.761 113.534 138.661C113.463 138.562 113.429 138.441 113.44 138.319C113.45 138.197 113.504 138.083 113.592 137.998C113.68 137.912 113.795 137.861 113.917 137.854C114.898 137.894 115.869 137.641 116.706 137.126C116.917 136.959 117.011 136.777 116.99 136.689C116.968 136.602 116.727 136.471 116.262 136.449C113.97 136.317 111.672 136.523 109.44 137.061C109.228 137.099 109.024 137.173 108.836 137.279C108.518 137.554 108.292 137.92 108.188 138.327L108.159 138.32Z" fill="#231F20"/>
<path d="M151.701 138.167C151.564 137.652 151.266 137.195 150.849 136.864C150.61 136.73 150.353 136.634 150.084 136.58C147.805 136.034 145.458 135.823 143.117 135.954C142.637 135.954 142.055 136.107 141.924 136.566C141.902 136.755 141.934 136.948 142.017 137.12C142.099 137.293 142.228 137.438 142.389 137.541C143.308 138.116 144.379 138.397 145.462 138.349C144.978 138.396 144.492 138.413 144.006 138.4C143.525 138.451 142.994 138.757 142.979 139.245C142.965 139.732 143.707 140.133 144.253 140.264L146 140.679C145.625 140.636 145.245 140.676 144.887 140.795C144.708 140.859 144.553 140.975 144.441 141.129C144.33 141.282 144.267 141.465 144.26 141.654C144.301 141.847 144.388 142.026 144.515 142.176C144.642 142.326 144.805 142.442 144.988 142.513C145.547 142.804 146.172 142.944 146.801 142.921C146.39 142.971 145.986 143.061 145.593 143.19C145.451 143.217 145.317 143.278 145.204 143.368C145.091 143.458 145.002 143.575 144.945 143.707C144.931 143.843 144.951 143.98 145.002 144.107C145.052 144.233 145.133 144.346 145.236 144.435C146.626 145.957 150.39 146.743 152.108 145.338C153.826 143.933 152.334 139.914 151.701 138.167Z" fill="white"/>
<path d="M149.611 146.583C147.86 146.612 146.164 145.968 144.872 144.785C144.707 144.636 144.583 144.448 144.511 144.237C144.44 144.027 144.424 143.802 144.464 143.584C144.527 143.355 144.662 143.153 144.85 143.008L144.77 142.972C144.503 142.866 144.27 142.691 144.093 142.464C143.916 142.238 143.803 141.968 143.766 141.683C143.751 141.341 143.871 141.006 144.1 140.752C142.644 140.402 142.47 139.645 142.484 139.23C142.487 139.073 142.52 138.919 142.583 138.775C142.645 138.631 142.735 138.501 142.848 138.393C142.573 138.277 142.313 138.125 142.077 137.942C141.83 137.783 141.636 137.554 141.522 137.283C141.408 137.013 141.378 136.715 141.436 136.427C141.552 136.012 141.931 135.51 143.088 135.444C145.478 135.311 147.874 135.526 150.201 136.085C150.526 136.151 150.838 136.269 151.126 136.435C151.64 136.823 152.011 137.371 152.181 137.992L152.305 138.335C153.033 140.351 154.438 144.1 152.443 145.731C151.624 146.33 150.625 146.631 149.611 146.583ZM145.454 143.838C145.49 143.937 145.55 144.025 145.629 144.093C146.874 145.454 150.339 146.132 151.803 144.945C153.266 143.758 151.963 140.337 151.351 138.691L151.22 138.342C151.117 137.934 150.891 137.568 150.572 137.294C150.382 137.188 150.175 137.114 149.961 137.075C147.732 136.537 145.436 136.331 143.147 136.464C142.681 136.464 142.419 136.602 142.419 136.704C142.419 136.806 142.492 136.973 142.703 137.141C143.539 137.655 144.51 137.909 145.491 137.869C145.613 137.876 145.729 137.927 145.816 138.012C145.904 138.097 145.958 138.211 145.969 138.333C145.979 138.455 145.946 138.577 145.874 138.676C145.802 138.775 145.697 138.845 145.578 138.873C145.257 138.939 144.929 138.958 144.603 138.932C144.423 138.917 144.243 138.917 144.064 138.932C143.78 138.932 143.503 139.128 143.503 139.274C143.503 139.419 143.853 139.667 144.377 139.791L146.124 140.206C146.247 140.234 146.355 140.307 146.427 140.411C146.498 140.514 146.528 140.641 146.51 140.766C146.491 140.891 146.427 141.004 146.331 141.086C146.235 141.168 146.112 141.212 145.986 141.21C145.683 141.169 145.374 141.196 145.083 141.29C144.916 141.363 144.77 141.523 144.777 141.64C144.785 141.756 144.959 141.946 145.236 142.084C145.72 142.329 146.259 142.45 146.801 142.433C146.867 142.429 146.933 142.439 146.995 142.46C147.057 142.482 147.114 142.516 147.163 142.56C147.211 142.604 147.251 142.657 147.279 142.717C147.307 142.776 147.323 142.841 147.325 142.906C147.338 143.039 147.297 143.17 147.212 143.273C147.128 143.375 147.006 143.44 146.874 143.452C146.498 143.495 146.127 143.576 145.768 143.693C145.513 143.758 145.462 143.831 145.454 143.838Z" fill="#231F20"/>
<path d="M294.629 241.893H69.3641C67.3055 241.893 65.6367 243.561 65.6367 245.62V263.172C65.6367 265.231 67.3055 266.899 69.3641 266.899H294.629C296.688 266.899 298.356 265.231 298.356 263.172V245.62C298.356 243.561 296.688 241.893 294.629 241.893Z" fill="#231F20"/>
<path d="M286.373 230.463H77.6267V262.466H286.373V230.463Z" fill="#231F20"/>
<path d="M70.616 254.8H101.432V297.097C101.432 298.351 101.185 299.593 100.705 300.752C100.225 301.911 99.5217 302.964 98.6347 303.851C97.7478 304.738 96.6949 305.441 95.536 305.921C94.3772 306.401 93.1352 306.648 91.8809 306.648H80.1601C78.9039 306.647 77.6603 306.399 76.5004 305.916C75.3406 305.434 74.2872 304.728 73.4007 303.838C72.5141 302.948 71.8118 301.892 71.334 300.73C70.8562 299.568 70.6122 298.324 70.616 297.068V254.8Z" fill="#231F20"/>
<path d="M262.568 254.8H293.384V297.097C293.384 298.351 293.137 299.593 292.657 300.752C292.177 301.911 291.473 302.964 290.587 303.851C289.7 304.738 288.647 305.441 287.488 305.921C286.329 306.401 285.087 306.648 283.833 306.648H272.112C270.858 306.648 269.616 306.401 268.457 305.921C267.298 305.441 266.245 304.738 265.358 303.851C264.471 302.964 263.768 301.911 263.288 300.752C262.808 299.593 262.561 298.351 262.561 297.097V254.8H262.568Z" fill="#231F20"/>
<path d="M109.2 260.071H254.8V274.005C254.8 275.53 254.194 276.993 253.116 278.071C252.037 279.15 250.574 279.756 249.049 279.756H114.981C113.455 279.756 111.992 279.15 110.914 278.071C109.835 276.993 109.229 275.53 109.229 274.005V260.071H109.2Z" fill="#231F20"/>
<path d="M280.688 254.392H83.3125V275.33H280.688V254.392Z" fill="#231F20"/>
<path d="M296.492 198.577C295.131 192.432 287.283 187.89 287.283 187.89H287.225V81.6816C287.225 58.9461 256.525 57.8978 181.942 57.8978C107.358 57.8978 76.6584 58.968 76.6584 81.6816V187.89H76.5929C76.5929 187.89 68.7523 192.432 67.3837 198.577C66.015 204.721 67.3837 238.486 67.3837 238.486L114.798 241.893H249.078L296.492 238.486C296.492 238.486 297.861 204.714 296.492 198.577ZM275.468 148.687H88.9834C88.0286 148.688 87.084 148.49 86.2107 148.104C85.3374 147.718 84.5547 147.153 83.9133 146.445C83.2719 145.738 82.7859 144.904 82.4867 143.997C82.1876 143.091 82.082 142.131 82.1766 141.181L86.8722 93.6208C87.0432 91.9325 87.8334 90.3673 89.0904 89.2272C90.3474 88.0872 91.9821 87.4531 93.679 87.4474H270.765C272.462 87.4515 274.098 88.085 275.355 89.2254C276.613 90.3657 277.402 91.9318 277.572 93.6208L282.275 141.181C282.368 142.131 282.262 143.09 281.962 143.996C281.663 144.902 281.177 145.736 280.535 146.443C279.894 147.15 279.112 147.715 278.239 148.101C277.366 148.488 276.422 148.687 275.468 148.687Z" fill="#001B94"/>
<path d="M114.798 242.424L67.3474 239.01C67.2229 238.999 67.1064 238.944 67.0194 238.854C66.9324 238.765 66.8808 238.647 66.8742 238.522C66.8233 237.139 65.5274 204.619 66.8742 198.482C68.1628 192.658 74.8822 188.348 76.1344 187.562V81.6743C76.1344 58.3128 106.71 57.381 181.927 57.381C257.144 57.381 287.72 58.3128 287.72 81.6743V187.562C288.98 188.326 295.685 192.658 296.973 198.482C298.342 204.619 297.046 237.139 296.973 238.522C296.97 238.648 296.919 238.768 296.832 238.858C296.744 238.948 296.626 239.002 296.5 239.01L249.122 242.424H114.798ZM67.8789 238.056L114.835 241.434H249.085L296.005 238.056C296.158 234.008 297.243 204.357 296.005 198.744C294.76 193.138 287.742 188.807 287.087 188.414C286.986 188.379 286.898 188.316 286.833 188.232C286.769 188.148 286.73 188.046 286.723 187.94V81.6743C286.723 70.8199 279.443 64.8648 262.466 61.7563C245.489 58.6477 218.327 58.4002 181.949 58.4002C145.571 58.4002 118.497 58.6404 101.425 61.7563C84.3535 64.8721 77.1681 70.8199 77.1681 81.6743V187.882C77.1671 188.001 77.1253 188.116 77.0498 188.207C76.9742 188.298 76.8695 188.361 76.7532 188.385C75.8505 188.938 69.1019 193.204 67.8861 198.686C66.634 204.306 67.7041 233.957 67.8789 238.005V238.056Z" fill="#231F20"/>
<path d="M121.795 174.72H242.206C244.046 174.72 245.81 175.451 247.111 176.752C248.413 178.053 249.144 179.818 249.144 181.658V241.914H114.857V181.629C114.864 179.794 115.599 178.037 116.899 176.742C118.199 175.447 119.96 174.72 121.795 174.72Z" fill="#001B94"/>
<path d="M249.144 242.424H114.857C114.722 242.422 114.594 242.368 114.498 242.273C114.403 242.178 114.349 242.049 114.347 241.914V184.402C114.357 181.702 115.434 179.116 117.343 177.206C119.252 175.297 121.839 174.22 124.539 174.21H239.432C242.132 174.22 244.719 175.297 246.628 177.206C248.538 179.116 249.615 181.702 249.624 184.402V241.914C249.623 242.044 249.572 242.169 249.483 242.263C249.394 242.357 249.273 242.415 249.144 242.424ZM115.366 241.405H248.634V184.41C248.632 181.97 247.662 179.63 245.937 177.905C244.211 176.18 241.872 175.21 239.432 175.208H124.568C122.128 175.21 119.789 176.18 118.064 177.905C116.338 179.63 115.368 181.97 115.366 184.41V241.405Z" fill="#231F20"/>
<path d="M99.8816 227.566H74.256C73.721 227.567 73.191 227.462 72.6964 227.258C72.2018 227.054 71.7524 226.754 71.3737 226.376C70.995 225.998 70.6946 225.549 70.4897 225.055C70.2847 224.561 70.1792 224.031 70.1792 223.496V206.657C70.1792 206.078 70.4093 205.523 70.8189 205.113C71.2285 204.703 71.784 204.473 72.3632 204.473H97.8432C98.3317 204.476 98.8051 204.643 99.1878 204.946C99.5705 205.25 99.8404 205.673 99.9544 206.148L103.849 222.608C103.991 223.204 103.995 223.824 103.861 224.421C103.727 225.018 103.459 225.577 103.076 226.056C102.693 226.534 102.207 226.918 101.653 227.18C101.1 227.441 100.494 227.573 99.8816 227.566Z" fill="#231F20"/>
<path d="M96.7804 207.211H73.812V222.331H96.7804V207.211Z" fill="#D1D3D4"/>
<path d="M114.857 212.955C114.75 212.953 114.647 212.918 114.561 212.856C114.475 212.793 114.411 212.706 114.376 212.605C114.325 212.452 108.88 196.807 100.275 191.733C91.6698 186.659 76.8695 188.37 76.7166 188.392C76.6502 188.4 76.5828 188.395 76.5183 188.377C76.4538 188.359 76.3935 188.329 76.3407 188.287C76.288 188.246 76.2439 188.195 76.211 188.137C76.1781 188.078 76.1569 188.014 76.1488 187.948C76.1407 187.881 76.1457 187.814 76.1636 187.749C76.1815 187.685 76.212 187.625 76.2532 187.572C76.2945 187.519 76.3457 187.475 76.404 187.442C76.4622 187.409 76.5264 187.388 76.5929 187.38C77.2117 187.3 91.8809 185.596 100.792 190.86C109.702 196.123 115.119 211.622 115.352 212.277C115.374 212.341 115.385 212.408 115.381 212.474C115.378 212.541 115.361 212.607 115.332 212.667C115.303 212.728 115.262 212.782 115.211 212.826C115.161 212.87 115.102 212.904 115.039 212.925C114.98 212.943 114.918 212.953 114.857 212.955Z" fill="#231F20"/>
<path d="M264.118 227.566H289.744C290.279 227.567 290.809 227.462 291.304 227.258C291.798 227.054 292.248 226.754 292.626 226.376C293.005 225.998 293.305 225.549 293.51 225.055C293.715 224.561 293.821 224.031 293.821 223.496V206.657C293.821 206.078 293.591 205.523 293.181 205.113C292.772 204.703 292.216 204.473 291.637 204.473H266.208C265.719 204.476 265.246 204.643 264.863 204.946C264.481 205.25 264.211 205.673 264.097 206.148L260.202 222.608C260.061 223.199 260.056 223.815 260.187 224.409C260.319 225.002 260.583 225.558 260.959 226.035C261.336 226.512 261.816 226.898 262.363 227.163C262.911 227.428 263.511 227.566 264.118 227.566Z" fill="#231F20"/>
<path d="M267.22 222.338H290.188V207.218H267.22V222.338Z" fill="#D1D3D4"/>
<path d="M249.143 212.955C249.088 212.962 249.032 212.962 248.976 212.955C248.912 212.933 248.854 212.9 248.803 212.855C248.753 212.811 248.712 212.757 248.683 212.697C248.654 212.636 248.637 212.571 248.633 212.504C248.63 212.437 248.64 212.37 248.663 212.307C248.881 211.651 254.283 196.152 263.223 190.889C272.163 185.625 286.803 187.329 287.422 187.409C287.556 187.425 287.678 187.495 287.761 187.601C287.845 187.708 287.882 187.843 287.866 187.977C287.849 188.111 287.78 188.233 287.674 188.317C287.567 188.4 287.432 188.437 287.298 188.421C287.152 188.421 272.352 186.681 263.74 191.763C255.128 196.844 249.704 212.452 249.624 212.576C249.595 212.682 249.532 212.776 249.446 212.844C249.359 212.912 249.253 212.951 249.143 212.955Z" fill="#231F20"/>
<path d="M239.017 181.177H124.408V233.368H239.017V181.177Z" fill="#001B94"/>
<path d="M239.017 233.87H124.408C124.273 233.87 124.143 233.816 124.048 233.721C123.952 233.625 123.898 233.496 123.898 233.36V181.177C123.898 181.042 123.952 180.913 124.048 180.817C124.143 180.722 124.273 180.668 124.408 180.668H239.017C239.152 180.668 239.282 180.722 239.377 180.817C239.473 180.913 239.527 181.042 239.527 181.177V233.36C239.527 233.496 239.473 233.625 239.377 233.721C239.282 233.816 239.152 233.87 239.017 233.87ZM124.918 232.851H238.486V181.687H124.918V232.851Z" fill="#231F20"/>
<path d="M141.123 233.87C140.988 233.87 140.858 233.816 140.763 233.721C140.667 233.625 140.613 233.496 140.613 233.36V181.177C140.613 181.042 140.667 180.913 140.763 180.817C140.858 180.722 140.988 180.668 141.123 180.668C141.258 180.668 141.388 180.722 141.483 180.817C141.579 180.913 141.632 181.042 141.632 181.177V233.36C141.632 233.496 141.579 233.625 141.483 233.721C141.388 233.816 141.258 233.87 141.123 233.87Z" fill="#231F20"/>
<path d="M161.42 233.87C161.284 233.87 161.155 233.816 161.059 233.721C160.964 233.625 160.91 233.496 160.91 233.36V181.177C160.91 181.042 160.964 180.913 161.059 180.817C161.155 180.722 161.284 180.668 161.42 180.668C161.555 180.668 161.684 180.722 161.78 180.817C161.875 180.913 161.929 181.042 161.929 181.177V233.36C161.929 233.496 161.875 233.625 161.78 233.721C161.684 233.816 161.555 233.87 161.42 233.87Z" fill="#231F20"/>
<path d="M181.716 233.87C181.581 233.87 181.451 233.816 181.356 233.721C181.26 233.625 181.207 233.496 181.207 233.36V181.177C181.207 181.042 181.26 180.913 181.356 180.817C181.451 180.722 181.581 180.668 181.716 180.668C181.851 180.668 181.981 180.722 182.076 180.817C182.172 180.913 182.226 181.042 182.226 181.177V233.36C182.226 233.496 182.172 233.625 182.076 233.721C181.981 233.816 181.851 233.87 181.716 233.87Z" fill="#231F20"/>
<path d="M202.005 233.87C201.87 233.87 201.741 233.816 201.645 233.721C201.55 233.625 201.496 233.496 201.496 233.36V181.177C201.496 181.042 201.55 180.913 201.645 180.817C201.741 180.722 201.87 180.668 202.005 180.668C202.141 180.668 202.27 180.722 202.366 180.817C202.461 180.913 202.515 181.042 202.515 181.177V233.36C202.515 233.496 202.461 233.625 202.366 233.721C202.27 233.816 202.141 233.87 202.005 233.87Z" fill="#231F20"/>
<path d="M222.302 233.87C222.167 233.87 222.038 233.816 221.942 233.721C221.846 233.625 221.793 233.496 221.793 233.36V181.177C221.793 181.042 221.846 180.913 221.942 180.817C222.038 180.722 222.167 180.668 222.302 180.668C222.437 180.668 222.567 180.722 222.663 180.817C222.758 180.913 222.812 181.042 222.812 181.177V233.36C222.812 233.496 222.758 233.625 222.663 233.721C222.567 233.816 222.437 233.87 222.302 233.87Z" fill="#231F20"/>
<path d="M239.017 191.406H124.408C124.273 191.406 124.143 191.352 124.048 191.257C123.952 191.161 123.898 191.031 123.898 190.896C123.898 190.761 123.952 190.631 124.048 190.536C124.143 190.44 124.273 190.387 124.408 190.387H239.017C239.084 190.387 239.15 190.4 239.212 190.425C239.274 190.451 239.33 190.489 239.377 190.536C239.425 190.583 239.462 190.639 239.488 190.701C239.514 190.763 239.527 190.829 239.527 190.896C239.527 190.963 239.514 191.029 239.488 191.091C239.462 191.153 239.425 191.209 239.377 191.257C239.33 191.304 239.274 191.341 239.212 191.367C239.15 191.393 239.084 191.406 239.017 191.406Z" fill="#231F20"/>
<path d="M239.017 196.866H124.408C124.273 196.866 124.143 196.812 124.048 196.717C123.952 196.621 123.898 196.491 123.898 196.356C123.898 196.221 123.952 196.091 124.048 195.996C124.143 195.9 124.273 195.847 124.408 195.847H239.017C239.084 195.847 239.15 195.86 239.212 195.885C239.274 195.911 239.33 195.949 239.377 195.996C239.425 196.043 239.462 196.099 239.488 196.161C239.514 196.223 239.527 196.289 239.527 196.356C239.527 196.423 239.514 196.489 239.488 196.551C239.462 196.613 239.425 196.669 239.377 196.717C239.33 196.764 239.274 196.801 239.212 196.827C239.15 196.853 239.084 196.866 239.017 196.866Z" fill="#231F20"/>
<path d="M239.017 202.326H124.408C124.273 202.326 124.143 202.272 124.048 202.176C123.952 202.081 123.898 201.951 123.898 201.816C123.898 201.681 123.952 201.551 124.048 201.456C124.143 201.36 124.273 201.307 124.408 201.307H239.017C239.152 201.307 239.282 201.36 239.377 201.456C239.473 201.551 239.527 201.681 239.527 201.816C239.527 201.951 239.473 202.081 239.377 202.176C239.282 202.272 239.152 202.326 239.017 202.326Z" fill="#231F20"/>
<path d="M239.017 207.778H124.408C124.341 207.778 124.275 207.765 124.213 207.74C124.151 207.714 124.095 207.677 124.048 207.629C124 207.582 123.963 207.526 123.937 207.464C123.912 207.402 123.898 207.336 123.898 207.269C123.898 207.202 123.912 207.136 123.937 207.074C123.963 207.012 124 206.956 124.048 206.909C124.095 206.861 124.151 206.824 124.213 206.798C124.275 206.772 124.341 206.759 124.408 206.759H239.017C239.152 206.759 239.282 206.813 239.377 206.909C239.473 207.004 239.527 207.134 239.527 207.269C239.527 207.404 239.473 207.534 239.377 207.629C239.282 207.725 239.152 207.778 239.017 207.778Z" fill="#231F20"/>
<path d="M239.017 213.238H124.408C124.341 213.238 124.275 213.225 124.213 213.2C124.151 213.174 124.095 213.137 124.048 213.089C124 213.042 123.963 212.986 123.937 212.924C123.912 212.862 123.898 212.796 123.898 212.729C123.898 212.662 123.912 212.596 123.937 212.534C123.963 212.472 124 212.416 124.048 212.368C124.095 212.321 124.151 212.284 124.213 212.258C124.275 212.232 124.341 212.219 124.408 212.219H239.017C239.152 212.219 239.282 212.273 239.377 212.368C239.473 212.464 239.527 212.594 239.527 212.729C239.527 212.864 239.473 212.994 239.377 213.089C239.282 213.185 239.152 213.238 239.017 213.238Z" fill="#231F20"/>
<path d="M239.017 218.691H124.408C124.341 218.691 124.275 218.678 124.213 218.652C124.151 218.627 124.095 218.589 124.048 218.542C124 218.494 123.963 218.438 123.937 218.376C123.912 218.315 123.898 218.248 123.898 218.181C123.898 218.115 123.912 218.048 123.937 217.986C123.963 217.925 124 217.868 124.048 217.821C124.095 217.774 124.151 217.736 124.213 217.711C124.275 217.685 124.341 217.672 124.408 217.672H239.017C239.152 217.672 239.282 217.726 239.377 217.821C239.473 217.917 239.527 218.046 239.527 218.181C239.527 218.317 239.473 218.446 239.377 218.542C239.282 218.637 239.152 218.691 239.017 218.691Z" fill="#231F20"/>
<path d="M239.017 224.151H124.408C124.341 224.151 124.275 224.138 124.213 224.112C124.151 224.087 124.095 224.049 124.048 224.002C124 223.955 123.963 223.898 123.937 223.837C123.912 223.775 123.898 223.708 123.898 223.642C123.898 223.575 123.912 223.508 123.937 223.447C123.963 223.385 124 223.329 124.048 223.281C124.095 223.234 124.151 223.196 124.213 223.171C124.275 223.145 124.341 223.132 124.408 223.132H239.017C239.152 223.132 239.282 223.186 239.377 223.281C239.473 223.377 239.527 223.506 239.527 223.642C239.527 223.777 239.473 223.906 239.377 224.002C239.282 224.097 239.152 224.151 239.017 224.151Z" fill="#231F20"/>
<path d="M239.017 227.565H124.408V233.368H239.017V227.565Z" fill="#231F20"/>
<path d="M239.017 181.177H124.408V186.98H239.017V181.177Z" fill="#231F20"/>
<path d="M170.003 142.113C169.924 142.113 169.845 142.095 169.775 142.06C169.704 142.024 169.642 141.973 169.595 141.909C169.553 141.855 169.522 141.793 169.504 141.727C169.486 141.66 169.481 141.591 169.491 141.523C169.501 141.455 169.524 141.39 169.559 141.331C169.595 141.272 169.641 141.221 169.697 141.181L229.32 96.2197C229.374 96.1796 229.435 96.1503 229.5 96.1337C229.564 96.1171 229.632 96.1135 229.698 96.1229C229.764 96.1324 229.828 96.1548 229.886 96.1889C229.943 96.223 229.994 96.2681 230.034 96.3216C230.074 96.3752 230.103 96.4361 230.12 96.5009C230.136 96.5658 230.14 96.6332 230.131 96.6995C230.121 96.7657 230.099 96.8294 230.065 96.887C230.03 96.9446 229.985 96.9949 229.932 97.0351L170.316 142.011C170.227 142.081 170.116 142.117 170.003 142.113Z" fill="#D1D3D4"/>
<path d="M182 149.699C181.73 149.699 181.471 149.591 181.279 149.4C181.088 149.209 180.981 148.95 180.981 148.679V87.4546C180.981 87.1843 181.088 86.9251 181.279 86.7339C181.471 86.5428 181.73 86.4354 182 86.4354C182.27 86.4354 182.53 86.5428 182.721 86.7339C182.912 86.9251 183.019 87.1843 183.019 87.4546V148.679C183.019 148.95 182.912 149.209 182.721 149.4C182.53 149.591 182.27 149.699 182 149.699Z" fill="#231F20"/>
<path d="M287.225 82.1839H76.6585C76.5234 82.1839 76.3938 82.1302 76.2982 82.0346C76.2026 81.939 76.1489 81.8094 76.1489 81.6743C76.1489 81.5391 76.2026 81.4095 76.2982 81.3139C76.3938 81.2184 76.5234 81.1647 76.6585 81.1647H287.225C287.36 81.1647 287.49 81.2184 287.586 81.3139C287.681 81.4095 287.735 81.5391 287.735 81.6743C287.735 81.8094 287.681 81.939 287.586 82.0346C287.49 82.1302 287.36 82.1839 287.225 82.1839Z" fill="#231F20"/>
<path d="M65.411 98.4475H57.7015C55.9766 98.4475 54.5784 99.8458 54.5784 101.571V133.53C54.5784 135.255 55.9766 136.653 57.7015 136.653H65.411C67.1359 136.653 68.5341 135.255 68.5341 133.53V101.571C68.5341 99.8458 67.1359 98.4475 65.411 98.4475Z" fill="#231F20"/>
<path d="M64.1515 137.155H58.9681C57.6732 137.153 56.4318 136.638 55.5161 135.722C54.6004 134.807 54.0852 133.565 54.0833 132.27V102.823C54.0852 101.528 54.6004 100.286 55.5161 99.3707C56.4318 98.4551 57.6732 97.9398 58.9681 97.9379H64.1661C65.461 97.9398 66.7024 98.4551 67.6181 99.3707C68.5337 100.286 69.049 101.528 69.0509 102.823V132.27C69.05 132.913 68.9225 133.549 68.6758 134.142C68.429 134.735 68.0679 135.274 67.6129 135.728C67.158 136.181 66.6181 136.541 66.0242 136.786C65.4303 137.031 64.7939 137.156 64.1515 137.155ZM58.9681 98.9498C57.9422 98.9517 56.959 99.3606 56.2342 100.087C55.5095 100.813 55.1025 101.797 55.1025 102.823V132.27C55.1044 133.295 55.5123 134.277 56.2368 135.002C56.9613 135.726 57.9435 136.134 58.9681 136.136H64.1661C65.1932 136.136 66.1783 135.728 66.9047 135.002C67.631 134.275 68.039 133.29 68.039 132.263V102.823C68.039 101.796 67.631 100.81 66.9047 100.084C66.1783 99.3578 65.1932 98.9498 64.1661 98.9498H58.9681Z" fill="#231F20"/>
<path d="M76.6586 85.7074H74.1543V100.486H76.6586V85.7074Z" fill="#231F20"/>
<path d="M76.6584 101.003H74.1541C74.0196 101.001 73.891 100.947 73.7959 100.851C73.7007 100.756 73.6464 100.628 73.6445 100.493V85.7074C73.6464 85.5735 73.701 85.4458 73.7963 85.3518C73.8917 85.2578 74.0202 85.2051 74.1541 85.2051H76.6584C76.7917 85.2051 76.9194 85.258 77.0136 85.3522C77.1078 85.4464 77.1608 85.5742 77.1608 85.7074V100.464C77.1647 100.533 77.1547 100.601 77.1313 100.666C77.1079 100.731 77.0717 100.79 77.0247 100.841C76.9778 100.891 76.9211 100.931 76.8582 100.959C76.7952 100.987 76.7273 101.002 76.6584 101.003ZM74.6637 99.9835H76.1197V86.217H74.6637V99.9835Z" fill="#231F20"/>
<path d="M61.5525 101.629C61.3553 101.639 61.1581 101.608 60.9729 101.54C60.7878 101.471 60.6186 101.365 60.4756 101.229C60.3325 101.093 60.2187 100.929 60.1411 100.747C60.0634 100.566 60.0234 100.37 60.0237 100.173C60.0151 99.0515 60.2281 97.9396 60.6505 96.9009C61.073 95.8623 61.6965 94.9173 62.4853 94.1204C63.2741 93.3235 64.2126 92.6903 65.2469 92.2572C66.2812 91.8242 67.3909 91.5998 68.5122 91.5969H74.1542C74.5596 91.5969 74.9485 91.758 75.2352 92.0447C75.5219 92.3314 75.683 92.7203 75.683 93.1257C75.683 93.5312 75.5219 93.92 75.2352 94.2067C74.9485 94.4935 74.5596 94.6545 74.1542 94.6545H68.5122C67.0731 94.6545 65.6928 95.2257 64.6745 96.2426C63.6563 97.2595 63.0832 98.639 63.0813 100.078C63.0776 100.484 62.9161 100.873 62.6307 101.163C62.3454 101.452 61.9588 101.619 61.5525 101.629Z" fill="#231F20"/>
<path d="M298.589 136.646H306.299C308.024 136.646 309.422 135.247 309.422 133.523V101.563C309.422 99.8385 308.024 98.4402 306.299 98.4402H298.589C296.865 98.4402 295.466 99.8385 295.466 101.563V133.523C295.466 135.247 296.865 136.646 298.589 136.646Z" fill="#231F20"/>
<path d="M305.032 137.155H299.834C298.539 137.153 297.298 136.638 296.382 135.722C295.466 134.807 294.951 133.565 294.949 132.27V102.823C294.951 101.528 295.466 100.286 296.382 99.3707C297.298 98.4551 298.539 97.9398 299.834 97.9379H305.032C306.327 97.9398 307.568 98.4551 308.484 99.3707C309.4 100.286 309.915 101.528 309.917 102.823V132.27C309.915 133.565 309.4 134.807 308.484 135.722C307.568 136.638 306.327 137.153 305.032 137.155ZM299.834 98.9498C298.807 98.9498 297.822 99.3578 297.096 100.084C296.369 100.81 295.961 101.796 295.961 102.823V132.27C295.961 133.298 296.369 134.283 297.096 135.009C297.822 135.735 298.807 136.143 299.834 136.143H305.032C306.058 136.141 307.041 135.732 307.766 135.006C308.491 134.28 308.898 133.296 308.898 132.27V102.823C308.898 101.797 308.491 100.813 307.766 100.087C307.041 99.3606 306.058 98.9517 305.032 98.9498H299.834Z" fill="#231F20"/>
<path d="M287.342 100.493H289.846V85.7148H287.342V100.493Z" fill="#231F20"/>
<path d="M289.846 101.003H287.342C287.208 101.001 287.08 100.946 286.986 100.851C286.892 100.756 286.839 100.627 286.839 100.493V85.7074C286.839 85.5742 286.892 85.4464 286.986 85.3522C287.081 85.258 287.208 85.2051 287.342 85.2051H289.846C289.98 85.2051 290.108 85.2578 290.204 85.3518C290.299 85.4458 290.354 85.5735 290.356 85.7074V100.464C290.359 100.533 290.348 100.602 290.323 100.667C290.299 100.732 290.262 100.791 290.215 100.841C290.167 100.891 290.11 100.931 290.047 100.959C289.983 100.987 289.915 101.002 289.846 101.003ZM287.851 99.9835H289.307V86.217H287.851V99.9835Z" fill="#231F20"/>
<path d="M302.448 101.629C302.25 101.639 302.053 101.608 301.868 101.54C301.683 101.471 301.514 101.365 301.371 101.229C301.228 101.093 301.114 100.929 301.036 100.747C300.959 100.566 300.919 100.37 300.919 100.173C300.927 99.453 300.794 98.7387 300.525 98.071C300.256 97.4033 299.858 96.7954 299.353 96.2824C298.848 95.7694 298.246 95.3615 297.583 95.0821C296.92 94.8027 296.208 94.6574 295.488 94.6545H289.846C289.44 94.6545 289.052 94.4935 288.765 94.2067C288.478 93.92 288.317 93.5312 288.317 93.1257C288.317 92.7203 288.478 92.3314 288.765 92.0447C289.052 91.758 289.44 91.5969 289.846 91.5969H295.488C297.738 91.5969 299.896 92.4902 301.488 94.0806C303.079 95.6709 303.974 97.8281 303.976 100.078C303.973 100.484 303.811 100.873 303.526 101.163C303.241 101.452 302.854 101.619 302.448 101.629Z" fill="#231F20"/>
<path d="M244.244 176.489C244.169 176.489 244.094 176.471 244.026 176.439C243.958 176.406 243.899 176.358 243.851 176.3C243.806 176.248 243.772 176.188 243.751 176.122C243.731 176.057 243.723 175.988 243.73 175.92C243.737 175.852 243.758 175.786 243.791 175.726C243.824 175.666 243.87 175.614 243.924 175.572L279.793 146.452C279.845 146.408 279.906 146.376 279.971 146.356C280.037 146.336 280.106 146.33 280.173 146.338C280.241 146.345 280.307 146.366 280.367 146.399C280.426 146.433 280.479 146.478 280.521 146.532C280.566 146.584 280.599 146.644 280.62 146.709C280.641 146.775 280.648 146.843 280.641 146.912C280.635 146.98 280.614 147.046 280.581 147.106C280.547 147.166 280.502 147.218 280.448 147.26L244.579 176.38C244.485 176.457 244.366 176.496 244.244 176.489Z" fill="#231F20"/>
<path d="M120.12 176.489C120.003 176.491 119.889 176.449 119.8 176.373L83.9313 147.253C83.877 147.211 83.8317 147.158 83.7984 147.098C83.7651 147.039 83.7444 146.972 83.7376 146.904C83.7308 146.836 83.738 146.767 83.7588 146.702C83.7796 146.637 83.8135 146.576 83.8585 146.525C83.9004 146.471 83.9526 146.425 84.0123 146.392C84.0719 146.359 84.1376 146.338 84.2055 146.33C84.2734 146.323 84.3422 146.329 84.4076 146.349C84.4731 146.368 84.5339 146.401 84.5865 146.444L120.455 175.564C120.509 175.606 120.555 175.659 120.588 175.719C120.621 175.778 120.642 175.845 120.649 175.913C120.656 175.981 120.648 176.05 120.628 176.115C120.607 176.18 120.573 176.241 120.528 176.292C120.48 176.354 120.418 176.404 120.347 176.438C120.276 176.473 120.199 176.49 120.12 176.489Z" fill="#231F20"/>
<path d="M224.69 133.785C224.611 133.784 224.534 133.765 224.463 133.729C224.392 133.694 224.331 133.643 224.282 133.581C224.24 133.527 224.209 133.465 224.191 133.399C224.173 133.332 224.169 133.263 224.178 133.195C224.188 133.127 224.211 133.062 224.246 133.003C224.282 132.944 224.329 132.893 224.384 132.853L270.976 98.0252C271.03 97.9818 271.092 97.9498 271.158 97.9313C271.225 97.9129 271.294 97.9083 271.363 97.9178C271.431 97.9274 271.496 97.9509 271.555 97.9869C271.614 98.0229 271.665 98.0707 271.704 98.1272C271.747 98.1811 271.778 98.2431 271.796 98.3094C271.814 98.3757 271.818 98.4449 271.808 98.5129C271.799 98.5809 271.776 98.6462 271.74 98.705C271.705 98.7639 271.658 98.8149 271.602 98.8552L225.01 133.683C224.919 133.754 224.806 133.79 224.69 133.785Z" fill="#D1D3D4"/>
<path d="M275.468 149.699H88.9836C87.8866 149.699 86.8017 149.469 85.7986 149.025C84.7956 148.581 83.8966 147.931 83.1595 147.119C82.4224 146.306 81.8635 145.349 81.5187 144.307C81.174 143.266 81.051 142.164 81.1576 141.072L85.9042 93.5189C86.0894 91.5758 86.994 89.7721 88.4405 88.4616C89.887 87.1511 91.771 86.4285 93.7229 86.4355H270.765C272.717 86.4301 274.6 87.1534 276.046 88.4635C277.492 89.7737 278.397 91.5765 278.584 93.5189L283.287 141.072C283.396 142.164 283.274 143.266 282.931 144.308C282.587 145.35 282.029 146.308 281.293 147.121C280.556 147.934 279.657 148.583 278.654 149.027C277.65 149.471 276.565 149.7 275.468 149.699ZM93.6865 88.4739C92.2377 88.4666 90.8382 88.9996 89.7613 89.9689C88.6843 90.9381 88.0074 92.2739 87.8625 93.7155L83.1596 141.268C83.0801 142.08 83.1718 142.898 83.4287 143.672C83.6856 144.445 84.1019 145.156 84.6509 145.759C85.1998 146.361 85.8691 146.842 86.6154 147.169C87.3618 147.497 88.1686 147.664 88.9836 147.66H275.468C276.28 147.659 277.083 147.488 277.825 147.158C278.567 146.829 279.232 146.347 279.777 145.745C280.322 145.143 280.735 144.434 280.989 143.663C281.244 142.892 281.335 142.077 281.256 141.268L276.553 93.7155C276.409 92.2802 275.737 90.9494 274.668 89.9811C273.598 89.0127 272.208 88.4757 270.765 88.4739H93.6865Z" fill="#231F20"/>
<path d="M158.318 111.595C158.243 111.595 158.168 111.578 158.1 111.545C158.032 111.513 157.972 111.465 157.925 111.406C157.881 111.354 157.848 111.293 157.828 111.228C157.808 111.163 157.801 111.094 157.807 111.026C157.814 110.959 157.835 110.893 157.867 110.833C157.9 110.773 157.944 110.72 157.998 110.678L175.798 96.3799C175.85 96.3353 175.91 96.3019 175.976 96.2817C176.042 96.2615 176.111 96.2549 176.179 96.2624C176.247 96.2699 176.313 96.2913 176.373 96.3253C176.432 96.3593 176.484 96.4051 176.526 96.46C176.57 96.5121 176.603 96.5726 176.623 96.6378C176.643 96.7029 176.65 96.7715 176.643 96.8394C176.636 96.9073 176.616 96.9731 176.583 97.033C176.551 97.0929 176.506 97.1456 176.453 97.188L158.653 111.493C158.557 111.565 158.438 111.601 158.318 111.595Z" fill="#D1D3D4"/>
<path d="M94.0796 113.816C93.9999 113.815 93.9215 113.795 93.8507 113.758C93.7798 113.722 93.7186 113.669 93.6719 113.604C93.6304 113.55 93.6002 113.488 93.5828 113.422C93.5655 113.356 93.5614 113.287 93.5709 113.219C93.5804 113.151 93.6032 113.086 93.638 113.027C93.6729 112.969 93.719 112.917 93.7738 112.876L113.43 98.1781C113.483 98.1379 113.544 98.1087 113.609 98.0921C113.674 98.0755 113.741 98.0718 113.808 98.0813C113.874 98.0908 113.938 98.1132 113.995 98.1473C114.053 98.1814 114.103 98.2265 114.143 98.28C114.183 98.3335 114.213 98.3945 114.229 98.4593C114.246 98.5241 114.25 98.5916 114.24 98.6578C114.231 98.7241 114.208 98.7878 114.174 98.8454C114.14 98.903 114.095 98.9533 114.041 98.9934L94.3854 113.699C94.2987 113.77 94.1915 113.811 94.0796 113.816Z" fill="#D1D3D4"/>
</svg>
