<svg width="168" height="168" viewBox="0 0 168 168" fill="none" xmlns="http://www.w3.org/2000/svg">
<rect x="0.5" y="0.5" width="167" height="167" rx="83.5" fill="#CCCCCC"/>
<rect x="0.5" y="0.5" width="167" height="167" rx="83.5" stroke="#1A1A1A"/>
<path fill-rule="evenodd" clip-rule="evenodd" d="M95.6667 82.3333H85.6667V72.3333C85.6667 71.4117 84.92 70.6667 84 70.6667C83.08 70.6667 82.3334 71.4117 82.3334 72.3333V82.3333H72.3334C71.4134 82.3333 70.6667 83.0783 70.6667 84C70.6667 84.9217 71.4134 85.6667 72.3334 85.6667H82.3334V95.6667C82.3334 96.5883 83.08 97.3333 84 97.3333C84.92 97.3333 85.6667 96.5883 85.6667 95.6667V85.6667H95.6667C96.5867 85.6667 97.3334 84.9217 97.3334 84C97.3334 83.0783 96.5867 82.3333 95.6667 82.3333" fill="#1A1A1A"/>
<mask id="mask0_199_7116" style="mask-type:luminance" maskUnits="userSpaceOnUse" x="70" y="70" width="28" height="28">
<path fill-rule="evenodd" clip-rule="evenodd" d="M95.6667 82.3333H85.6667V72.3333C85.6667 71.4117 84.92 70.6667 84 70.6667C83.08 70.6667 82.3334 71.4117 82.3334 72.3333V82.3333H72.3334C71.4134 82.3333 70.6667 83.0783 70.6667 84C70.6667 84.9217 71.4134 85.6667 72.3334 85.6667H82.3334V95.6667C82.3334 96.5883 83.08 97.3333 84 97.3333C84.92 97.3333 85.6667 96.5883 85.6667 95.6667V85.6667H95.6667C96.5867 85.6667 97.3334 84.9217 97.3334 84C97.3334 83.0783 96.5867 82.3333 95.6667 82.3333" fill="white"/>
</mask>
<g mask="url(#mask0_199_7116)">
<rect x="64" y="64" width="40" height="40" fill="#1A1A1A"/>
</g>
</svg>
