<svg width="25" height="24" viewBox="0 0 25 24" fill="none" xmlns="http://www.w3.org/2000/svg">
<path fill-rule="evenodd" clip-rule="evenodd" d="M15.3334 11H13.3334V9C13.3334 8.45 12.8834 8 12.3334 8C11.7834 8 11.3334 8.45 11.3334 9V11H9.33337C8.78337 11 8.33337 11.45 8.33337 12C8.33337 12.55 8.78337 13 9.33337 13H11.3334V15C11.3334 15.55 11.7834 16 12.3334 16C12.8834 16 13.3334 15.55 13.3334 15V13H15.3334C15.8834 13 16.3334 12.55 16.3334 12C16.3334 11.45 15.8834 11 15.3334 11ZM12.3334 20C7.92237 20 4.33337 16.411 4.33337 12C4.33337 7.589 7.92237 4 12.3334 4C16.7444 4 20.3334 7.589 20.3334 12C20.3334 16.411 16.7444 20 12.3334 20ZM12.3334 2C6.81937 2 2.33337 6.486 2.33337 12C2.33337 17.514 6.81937 22 12.3334 22C17.8474 22 22.3334 17.514 22.3334 12C22.3334 6.486 17.8474 2 12.3334 2Z" fill="#1A1A1A"/>
<mask id="mask0_224_1871" style="mask-type:luminance" maskUnits="userSpaceOnUse" x="2" y="2" width="21" height="20">
<path fill-rule="evenodd" clip-rule="evenodd" d="M15.3334 11H13.3334V9C13.3334 8.45 12.8834 8 12.3334 8C11.7834 8 11.3334 8.45 11.3334 9V11H9.33337C8.78337 11 8.33337 11.45 8.33337 12C8.33337 12.55 8.78337 13 9.33337 13H11.3334V15C11.3334 15.55 11.7834 16 12.3334 16C12.8834 16 13.3334 15.55 13.3334 15V13H15.3334C15.8834 13 16.3334 12.55 16.3334 12C16.3334 11.45 15.8834 11 15.3334 11ZM12.3334 20C7.92237 20 4.33337 16.411 4.33337 12C4.33337 7.589 7.92237 4 12.3334 4C16.7444 4 20.3334 7.589 20.3334 12C20.3334 16.411 16.7444 20 12.3334 20ZM12.3334 2C6.81937 2 2.33337 6.486 2.33337 12C2.33337 17.514 6.81937 22 12.3334 22C17.8474 22 22.3334 17.514 22.3334 12C22.3334 6.486 17.8474 2 12.3334 2Z" fill="white"/>
</mask>
<g mask="url(#mask0_224_1871)">
<rect x="0.333374" width="24" height="24" fill="#1A1A1A"/>
</g>
</svg>
