<svg width="25" height="24" viewBox="0 0 25 24" fill="none" xmlns="http://www.w3.org/2000/svg">
<path fill-rule="evenodd" clip-rule="evenodd" d="M15.5 11H13.5V9C13.5 8.45 13.05 8 12.5 8C11.95 8 11.5 8.45 11.5 9V11H9.5C8.95 11 8.5 11.45 8.5 12C8.5 12.55 8.95 13 9.5 13H11.5V15C11.5 15.55 11.95 16 12.5 16C13.05 16 13.5 15.55 13.5 15V13H15.5C16.05 13 16.5 12.55 16.5 12C16.5 11.45 16.05 11 15.5 11ZM12.5 20C8.089 20 4.5 16.411 4.5 12C4.5 7.589 8.089 4 12.5 4C16.911 4 20.5 7.589 20.5 12C20.5 16.411 16.911 20 12.5 20ZM12.5 2C6.986 2 2.5 6.486 2.5 12C2.5 17.514 6.986 22 12.5 22C18.014 22 22.5 17.514 22.5 12C22.5 6.486 18.014 2 12.5 2Z" fill="white"/>
<mask id="mask0_199_5994" style="mask-type:luminance" maskUnits="userSpaceOnUse" x="2" y="2" width="21" height="20">
<path fill-rule="evenodd" clip-rule="evenodd" d="M15.5 11H13.5V9C13.5 8.45 13.05 8 12.5 8C11.95 8 11.5 8.45 11.5 9V11H9.5C8.95 11 8.5 11.45 8.5 12C8.5 12.55 8.95 13 9.5 13H11.5V15C11.5 15.55 11.95 16 12.5 16C13.05 16 13.5 15.55 13.5 15V13H15.5C16.05 13 16.5 12.55 16.5 12C16.5 11.45 16.05 11 15.5 11ZM12.5 20C8.089 20 4.5 16.411 4.5 12C4.5 7.589 8.089 4 12.5 4C16.911 4 20.5 7.589 20.5 12C20.5 16.411 16.911 20 12.5 20ZM12.5 2C6.986 2 2.5 6.486 2.5 12C2.5 17.514 6.986 22 12.5 22C18.014 22 22.5 17.514 22.5 12C22.5 6.486 18.014 2 12.5 2Z" fill="white"/>
</mask>
<g mask="url(#mask0_199_5994)">
<rect x="0.5" width="24" height="24" fill="white"/>
</g>
</svg>
