<svg width="32" height="32" viewBox="0 0 32 32" fill="none" xmlns="http://www.w3.org/2000/svg">
<path fill-rule="evenodd" clip-rule="evenodd" d="M25.3333 14.6666H9.51325L14.3573 8.85329C14.8293 8.28796 14.7519 7.44663 14.1866 6.97596C13.6199 6.50396 12.7799 6.58129 12.3093 7.14663L5.64259 15.1466C5.59059 15.2093 5.56392 15.2826 5.52525 15.352C5.49325 15.408 5.45459 15.456 5.43059 15.5173C5.37059 15.6706 5.33459 15.832 5.33459 15.9946C5.33459 15.996 5.33325 15.9986 5.33325 16C5.33325 16.0013 5.33459 16.004 5.33459 16.0053C5.33459 16.168 5.37059 16.3293 5.43059 16.4826C5.45459 16.544 5.49325 16.592 5.52525 16.648C5.56392 16.7173 5.59059 16.7906 5.64259 16.8533L12.3093 24.8533C12.5733 25.1693 12.9519 25.3333 13.3333 25.3333C13.6346 25.3333 13.9373 25.232 14.1866 25.024C14.7519 24.5533 14.8293 23.712 14.3573 23.1466L9.51325 17.3333H25.3333C26.0693 17.3333 26.6666 16.736 26.6666 16C26.6666 15.264 26.0693 14.6666 25.3333 14.6666Z" fill="#1A1A1A"/>
<mask id="mask0_199_6329" style="mask-type:luminance" maskUnits="userSpaceOnUse" x="5" y="6" width="22" height="20">
<path fill-rule="evenodd" clip-rule="evenodd" d="M25.3333 14.6666H9.51325L14.3573 8.85329C14.8293 8.28796 14.7519 7.44663 14.1866 6.97596C13.6199 6.50396 12.7799 6.58129 12.3093 7.14663L5.64259 15.1466C5.59059 15.2093 5.56392 15.2826 5.52525 15.352C5.49325 15.408 5.45459 15.456 5.43059 15.5173C5.37059 15.6706 5.33459 15.832 5.33459 15.9946C5.33459 15.996 5.33325 15.9986 5.33325 16C5.33325 16.0013 5.33459 16.004 5.33459 16.0053C5.33459 16.168 5.37059 16.3293 5.43059 16.4826C5.45459 16.544 5.49325 16.592 5.52525 16.648C5.56392 16.7173 5.59059 16.7906 5.64259 16.8533L12.3093 24.8533C12.5733 25.1693 12.9519 25.3333 13.3333 25.3333C13.6346 25.3333 13.9373 25.232 14.1866 25.024C14.7519 24.5533 14.8293 23.712 14.3573 23.1466L9.51325 17.3333H25.3333C26.0693 17.3333 26.6666 16.736 26.6666 16C26.6666 15.264 26.0693 14.6666 25.3333 14.6666Z" fill="white"/>
</mask>
<g mask="url(#mask0_199_6329)">
<rect width="32" height="32" fill="#1A1A1A"/>
</g>
</svg>
