<svg width="32" height="32" viewBox="0 0 32 32" fill="none" xmlns="http://www.w3.org/2000/svg">
<path fill-rule="evenodd" clip-rule="evenodd" d="M21.3334 21.3333C21.3334 22.0667 20.7334 22.6667 20.0001 22.6667C19.2667 22.6667 18.6667 22.0667 18.6667 21.3333V16C18.6667 15.2667 19.2667 14.6667 20.0001 14.6667C20.7334 14.6667 21.3334 15.2667 21.3334 16V21.3333ZM13.3334 5.77066C13.3334 5.56399 13.6187 5.33332 14.0001 5.33332H18.0001C18.3814 5.33332 18.6667 5.56399 18.6667 5.77066V7.99999H13.3334V5.77066ZM13.3334 21.3333C13.3334 22.0667 12.7334 22.6667 12.0001 22.6667C11.2667 22.6667 10.6667 22.0667 10.6667 21.3333V16C10.6667 15.2667 11.2667 14.6667 12.0001 14.6667C12.7334 14.6667 13.3334 15.2667 13.3334 16V21.3333ZM28.0001 7.99999H26.6667H21.3334V5.77066C21.3334 4.05866 19.8387 2.66666 18.0001 2.66666H14.0001C12.1614 2.66666 10.6667 4.05866 10.6667 5.77066V7.99999H5.33341H4.00008C3.26675 7.99999 2.66675 8.59999 2.66675 9.33332C2.66675 10.0667 3.26675 10.6667 4.00008 10.6667H5.33341V25.3333C5.33341 27.5387 7.12808 29.3333 9.33341 29.3333H22.6667C24.8721 29.3333 26.6667 27.5387 26.6667 25.3333V10.6667H28.0001C28.7334 10.6667 29.3334 10.0667 29.3334 9.33332C29.3334 8.59999 28.7334 7.99999 28.0001 7.99999V7.99999Z" fill="#E11C1C"/>
<mask id="mask0_199_6977" style="mask-type:luminance" maskUnits="userSpaceOnUse" x="2" y="2" width="28" height="28">
<path fill-rule="evenodd" clip-rule="evenodd" d="M21.3334 21.3333C21.3334 22.0667 20.7334 22.6667 20.0001 22.6667C19.2667 22.6667 18.6667 22.0667 18.6667 21.3333V16C18.6667 15.2667 19.2667 14.6667 20.0001 14.6667C20.7334 14.6667 21.3334 15.2667 21.3334 16V21.3333ZM13.3334 5.77066C13.3334 5.56399 13.6187 5.33332 14.0001 5.33332H18.0001C18.3814 5.33332 18.6667 5.56399 18.6667 5.77066V7.99999H13.3334V5.77066ZM13.3334 21.3333C13.3334 22.0667 12.7334 22.6667 12.0001 22.6667C11.2667 22.6667 10.6667 22.0667 10.6667 21.3333V16C10.6667 15.2667 11.2667 14.6667 12.0001 14.6667C12.7334 14.6667 13.3334 15.2667 13.3334 16V21.3333ZM28.0001 7.99999H26.6667H21.3334V5.77066C21.3334 4.05866 19.8387 2.66666 18.0001 2.66666H14.0001C12.1614 2.66666 10.6667 4.05866 10.6667 5.77066V7.99999H5.33341H4.00008C3.26675 7.99999 2.66675 8.59999 2.66675 9.33332C2.66675 10.0667 3.26675 10.6667 4.00008 10.6667H5.33341V25.3333C5.33341 27.5387 7.12808 29.3333 9.33341 29.3333H22.6667C24.8721 29.3333 26.6667 27.5387 26.6667 25.3333V10.6667H28.0001C28.7334 10.6667 29.3334 10.0667 29.3334 9.33332C29.3334 8.59999 28.7334 7.99999 28.0001 7.99999V7.99999Z" fill="white"/>
</mask>
<g mask="url(#mask0_199_6977)">
<rect width="32" height="32" fill="#E11C1C"/>
</g>
</svg>
