<svg width="2159" height="2159" viewBox="0 0 2159 2159" fill="none" xmlns="http://www.w3.org/2000/svg">
<path d="M1974.49 998.485L1769.51 793.515C1767.26 791.264 1764.21 790 1761.03 790H1486C1479.37 790 1474 795.373 1474 802V1500C1474 1506.63 1479.37 1512 1486 1512H1966C1972.63 1512 1978 1506.63 1978 1500V1006.97C1978 1003.79 1976.74 1000.74 1974.49 998.485Z" fill="#61AFF6"/>
<path d="M176 479V580V1499.5C176 1506.13 181.373 1511.5 188 1511.5H1462C1468.63 1511.5 1474 1506.13 1474 1499.5V479C1474 472.373 1468.63 467 1462 467H188C181.373 467 176 472.373 176 479Z" fill="#FFC06C"/>
<path d="M1069 1150H1119" stroke="black" stroke-width="48" stroke-linecap="round"/>
<path d="M632 792V484C632 477.373 637.373 472 644 472H923.5C930.127 472 935.5 477.373 935.5 484V792C935.5 798.627 930.127 804 923.5 804H644C637.373 804 632 798.627 632 792Z" fill="#FF4C4C" stroke="black" stroke-width="48" stroke-linecap="round"/>
<path d="M1286.5 1396V479.5C1286.5 472.873 1291.87 467.5 1298.5 467.5H1459.5C1466.13 467.5 1471.5 472.873 1471.5 479.5V1396C1471.5 1402.63 1466.13 1408 1459.5 1408H1298.5C1291.87 1408 1286.5 1402.63 1286.5 1396Z" fill="#EDA558"/>
<path d="M176 580V479C176 472.373 181.373 467 188 467H1462C1468.63 467 1474 472.373 1474 479V1499.5C1474 1506.13 1468.63 1511.5 1462 1511.5H188C181.373 1511.5 176 1506.13 176 1499.5V703" stroke="black" stroke-width="48" stroke-linecap="round"/>
<path d="M188 1411L1462 1411C1468.63 1411 1474 1416.37 1474 1423L1474 1493.5C1474 1500.13 1468.63 1505.5 1462 1505.5L188 1505.5C181.373 1505.5 176 1500.13 176 1493.5L176 1423C176 1416.37 181.373 1411 188 1411Z" fill="#358FD9" stroke="black" stroke-width="48" stroke-linecap="round"/>
<path d="M1069 1270L1331 1270" stroke="black" stroke-width="48" stroke-linecap="round"/>
<path d="M1231 1150H1331" stroke="black" stroke-width="48" stroke-linecap="round"/>
<path d="M1785.49 999.485L1599.49 813.485C1591.93 805.926 1597.28 793 1607.97 793H1767.03C1770.21 793 1773.26 794.264 1775.51 796.515L1978.49 999.485C1980.74 1001.74 1982 1004.79 1982 1007.97V1499.5C1982 1506.13 1976.63 1511.5 1970 1511.5H1801C1794.37 1511.5 1789 1506.13 1789 1499.5V1007.97C1789 1004.79 1787.74 1001.74 1785.49 999.485Z" fill="#399AEA"/>
<path d="M1733.03 906.5H1563.5C1556.87 906.5 1551.5 911.873 1551.5 918.5V1162C1551.5 1168.63 1556.87 1174 1563.5 1174H1870.5C1877.13 1174 1882.5 1168.63 1882.5 1162V1055.97C1882.5 1052.79 1881.24 1049.74 1878.99 1047.49L1741.51 910.015C1739.26 907.764 1736.21 906.5 1733.03 906.5Z" fill="#33D8DD"/>
<path d="M1361 1511.5H1972C1978.63 1511.5 1984 1506.13 1984 1499.5V1006.47C1984 1003.29 1982.74 1000.24 1980.49 997.985L1775.51 793.015C1773.26 790.764 1770.21 789.5 1767.03 789.5H1480M1563.5 1174H1870.5C1877.13 1174 1882.5 1168.63 1882.5 1162V1055.97C1882.5 1052.79 1881.24 1049.74 1878.99 1047.49L1741.51 910.015C1739.26 907.764 1736.21 906.5 1733.03 906.5H1563.5C1556.87 906.5 1551.5 911.873 1551.5 918.5V1162C1551.5 1168.63 1556.87 1174 1563.5 1174Z" stroke="black" stroke-width="48" stroke-linecap="round"/>
<rect x="347" y="1356" width="312" height="312" rx="156" fill="#3D6687"/>
<rect x="347" y="1356" width="312" height="312" rx="156" stroke="black" stroke-width="48"/>
<circle cx="503" cy="1512" r="62" fill="#CCCBCA" stroke="black" stroke-width="48"/>
<rect x="1570" y="1356" width="312" height="312" rx="156" fill="#3D6687"/>
<rect x="1570" y="1356" width="312" height="312" rx="156" stroke="black" stroke-width="48"/>
<circle cx="1726" cy="1512" r="62" fill="#CCCBCA" stroke="black" stroke-width="48"/>
</svg>
