<svg width="240" height="240" viewBox="0 0 240 240" fill="none" xmlns="http://www.w3.org/2000/svg">
<path d="M120 186.624C158.704 186.624 190.08 155.248 190.08 116.544C190.08 77.84 158.704 46.4641 120 46.4641C81.2958 46.4641 49.9199 77.84 49.9199 116.544C49.9199 155.248 81.2958 186.624 120 186.624Z" fill="white"/>
<path d="M120 186.912C81.168 186.912 49.632 155.328 49.632 116.544C49.632 77.7601 81.168 46.1281 120 46.1281C158.832 46.1281 190.368 77.7121 190.368 116.496C190.368 155.28 158.832 186.912 120 186.912ZM120 46.8001C81.552 46.8001 50.304 78.0961 50.304 116.496C50.304 154.896 81.552 186.24 120 186.24C158.448 186.24 189.696 154.944 189.696 116.544C189.696 78.1441 158.448 46.8001 120 46.8001Z" fill="#D1D3D4"/>
<path d="M177.6 170.928C177.6 170.928 170.304 153.744 168.432 147.024C166.56 140.304 166.992 132.96 166.992 132.96L161.808 106.56C161.808 106.56 125.376 87.84 114.624 81.36C103.872 74.88 90.864 64.8 87.072 67.008C83.28 69.216 83.9521 74.16 88.4161 79.104C90.2401 81.12 92.736 83.232 94.272 85.44C95.52 87.264 97.0561 92.928 95.5681 94.944C93.7921 97.344 89.0401 89.856 86.5441 92.208C85.2481 93.456 84.9601 97.92 87.6001 101.76C88.6081 103.248 91.0081 105.504 92.4001 106.656C96.0481 109.776 96.8161 112.224 99.6961 116.016C102.672 119.904 100.416 114.096 100.176 118.608C99.8881 124.032 99.1201 130.56 100.656 135.888C103.104 144.384 117.552 154.944 123.84 160.32C130.128 165.696 126.96 184.08 126.96 184.08L177.6 170.928Z" fill="white"/>
<path d="M126.912 184.416C126.816 184.416 126.768 184.368 126.72 184.32C126.624 184.224 126.576 184.128 126.624 184.032C126.672 183.84 129.696 165.792 123.6 160.608C122.592 159.744 121.296 158.688 119.952 157.584C112.944 151.872 102.384 143.232 100.32 136.032C98.976 131.472 99.36 126.048 99.648 121.248C99.696 120.384 99.744 119.52 99.792 118.656C99.792 118.128 99.888 117.6 100.032 117.12C99.84 116.928 99.6 116.64 99.36 116.304C98.4 115.008 97.68 113.904 96.96 112.848C95.616 110.832 94.512 109.056 92.112 106.992C91.728 106.704 88.56 103.92 87.264 102C84.48 97.968 84.816 93.408 86.256 92.016C87.696 90.624 89.808 92.112 91.632 93.456C92.352 94.032 93.12 94.512 93.936 94.944C94.752 95.28 95.088 95.04 95.28 94.752C96.624 92.928 95.232 87.456 93.984 85.632C92.88 84.144 91.632 82.752 90.24 81.456C89.472 80.736 88.8 80.016 88.176 79.296C85.296 76.128 83.952 72.96 84.336 70.368C84.576 68.832 85.536 67.488 86.88 66.72C89.904 64.944 97.584 69.936 106.464 75.744C109.248 77.568 112.128 79.44 114.816 81.072C125.424 87.504 161.616 106.08 161.952 106.272C162.048 106.32 162.096 106.416 162.144 106.512L167.328 132.912C167.328 132.96 167.328 132.96 167.328 133.008C167.328 133.056 166.896 140.352 168.768 146.928C170.64 153.504 177.888 170.64 177.936 170.784C177.984 170.88 177.984 170.976 177.936 171.072C177.888 171.168 177.792 171.216 177.696 171.264L127.008 184.464L126.912 184.416ZM100.608 117.6C100.512 117.936 100.512 118.272 100.464 118.656C100.416 119.52 100.368 120.384 100.32 121.248C100.032 126 99.696 131.376 100.944 135.792C102.96 142.8 113.424 151.344 120.336 157.008C121.68 158.112 122.976 159.168 123.984 160.032C129.792 165.024 127.776 180.48 127.296 183.6L177.072 170.64C176.016 168.144 169.776 153.168 168 147.024C166.176 140.592 166.512 133.536 166.56 132.912L161.424 106.704C158.88 105.408 124.656 87.792 114.384 81.552C111.696 79.92 108.816 78.048 106.032 76.224C98.064 71.04 89.856 65.664 87.168 67.2C85.968 67.872 85.104 69.072 84.912 70.416C84.576 72.768 85.872 75.792 88.608 78.768C89.232 79.44 89.952 80.16 90.672 80.88C92.064 82.176 93.36 83.616 94.512 85.152C95.76 86.976 97.44 92.832 95.808 95.04C95.328 95.712 94.608 95.808 93.648 95.424C92.784 94.992 91.968 94.464 91.2 93.888C89.52 92.64 87.792 91.344 86.688 92.352C85.584 93.36 85.152 97.68 87.792 101.472C88.8 102.96 91.248 105.216 92.544 106.32C94.992 108.432 96.144 110.208 97.488 112.32C98.16 113.376 98.88 114.48 99.84 115.728C100.08 116.016 100.272 116.256 100.416 116.4C100.464 116.4 100.512 116.352 100.608 116.352C100.992 116.352 101.328 116.64 101.424 117.024C101.52 117.264 101.424 117.504 101.232 117.648C101.088 117.888 100.896 117.84 100.608 117.6Z" fill="#231F20"/>
<path d="M141.888 149.904H94.848C92.928 149.904 91.392 148.368 91.392 146.448V45.888C91.392 43.968 92.928 42.432 94.848 42.432H141.888C143.808 42.432 145.344 43.968 145.344 45.888V146.496C145.344 148.368 143.76 149.904 141.888 149.904Z" fill="white"/>
<path d="M141.888 150.24H94.848C92.784 150.24 91.056 148.56 91.056 146.448V45.8879C91.056 43.8239 92.736 42.1439 94.848 42.0959H141.888C143.952 42.0959 145.68 43.7759 145.68 45.8879V146.496C145.68 148.56 143.952 150.24 141.888 150.24ZM94.848 42.7679C93.12 42.7679 91.776 44.1599 91.776 45.8879V146.448C91.776 148.176 93.168 149.568 94.848 149.568H141.888C143.616 149.568 145.008 148.176 145.008 146.448V45.8879C145.008 44.1599 143.616 42.7679 141.888 42.7679H94.848Z" fill="#231F20"/>
<path d="M142.368 52.1279H94.1281V134.832H142.368V52.1279Z" fill="#001B94"/>
<path d="M122.4 146.928H113.232C111.888 146.928 110.784 145.824 110.784 144.48V140.976C110.784 139.632 111.888 138.528 113.232 138.528H122.4C123.744 138.528 124.848 139.632 124.848 140.976V144.48C124.848 145.872 123.744 146.928 122.4 146.928ZM113.232 139.2C112.272 139.2 111.456 140.016 111.456 140.976V144.48C111.456 145.44 112.272 146.256 113.232 146.256H122.4C123.36 146.256 124.176 145.44 124.176 144.48V140.976C124.176 140.016 123.36 139.2 122.4 139.2H113.232Z" fill="#D1D3D4"/>
<path d="M128.064 47.568H114.336C114.144 47.568 114 47.424 114 47.232C114 47.04 114.144 46.896 114.336 46.896H128.064C128.256 46.896 128.4 47.04 128.4 47.232C128.4 47.424 128.256 47.568 128.064 47.568Z" fill="#D1D3D4"/>
<path d="M112.416 47.424H110.592C110.4 47.424 110.256 47.28 110.256 47.088C110.256 46.896 110.4 46.752 110.592 46.752H112.416C112.608 46.752 112.752 46.896 112.752 47.088C112.752 47.28 112.608 47.424 112.416 47.424Z" fill="#D1D3D4"/>
<path d="M101.136 97.0079C101.28 98.8319 100.176 100.56 98.304 101.52C96.144 102.48 93.744 102.624 91.488 101.856C90.192 101.472 89.04 100.8 87.984 99.9359C86.208 98.4479 85.152 96.4319 85.392 94.5599C85.776 91.5359 89.76 89.6159 93.792 90.0959C97.632 90.4799 100.896 94.3679 101.136 97.0079Z" fill="white"/>
<path d="M94.56 102.672C93.504 102.672 92.4 102.528 91.392 102.192C90.048 101.76 88.848 101.088 87.792 100.176C85.872 98.5439 84.864 96.4319 85.104 94.5119C85.488 91.3919 89.424 89.2319 93.888 89.7119C97.824 90.1439 101.28 94.0319 101.52 96.9599C101.664 98.9279 100.512 100.752 98.496 101.76C97.248 102.384 95.904 102.672 94.56 102.672ZM92.592 90.3359C89.04 90.3359 86.016 92.1599 85.728 94.6079C85.536 96.2879 86.448 98.2079 88.176 99.6959C89.184 100.512 90.336 101.184 91.584 101.568C93.744 102.288 96.096 102.192 98.16 101.232C99.936 100.368 100.944 98.7359 100.8 97.0559C100.608 94.7039 97.584 90.8639 93.792 90.4319C93.408 90.3359 92.976 90.3359 92.592 90.3359Z" fill="#231F20"/>
<path d="M100.416 110.592C101.184 111.696 101.424 113.088 101.04 114.384C100.704 115.152 100.224 115.824 99.648 116.352C98.016 117.888 95.808 118.944 93.6 118.656C92.256 118.368 91.008 117.792 89.904 116.976C87.936 115.632 86.064 113.952 85.44 111.696C84.528 108.432 86.88 103.584 90.72 104.112C93.936 104.448 98.736 108 100.416 110.592Z" fill="white"/>
<path d="M94.4159 119.04C94.1279 119.04 93.8399 119.04 93.5519 118.992C92.1599 118.704 90.8639 118.128 89.7119 117.264C87.1199 115.488 85.6799 113.76 85.1039 111.792C84.5759 109.584 85.1039 107.232 86.5919 105.504C87.5999 104.256 89.1839 103.584 90.7679 103.776C94.0319 104.208 98.9759 107.808 100.704 110.496C101.52 111.696 101.76 113.232 101.376 114.624C101.04 115.44 100.56 116.16 99.8879 116.736C98.2079 118.176 96.2879 119.04 94.4159 119.04ZM90.2399 104.352C89.0399 104.352 87.8879 104.928 87.1199 105.888C85.7759 107.472 85.2959 109.584 85.7759 111.552C86.3039 113.376 87.6479 115.008 90.0959 116.688C91.1519 117.504 92.3519 118.032 93.6479 118.32C95.5199 118.608 97.6319 117.792 99.4079 116.112C99.9839 115.632 100.416 115.008 100.752 114.288C101.088 113.088 100.896 111.792 100.176 110.784C98.5439 108.288 93.7919 104.784 90.7199 104.4C90.5759 104.352 90.3839 104.352 90.2399 104.352Z" fill="#231F20"/>
<path d="M98.544 121.152C99.312 121.68 99.936 122.352 100.368 123.12C101.328 124.896 100.992 127.248 99.792 128.832C98.496 130.416 96.576 131.424 94.56 131.568C92.16 131.856 89.712 131.136 87.888 129.504C86.064 127.872 85.296 125.376 85.776 122.976C87.216 116.832 94.704 118.32 98.544 121.152Z" fill="white"/>
<path d="M93.552 131.952C91.392 131.952 89.28 131.184 87.648 129.744C85.728 128.016 84.912 125.424 85.44 122.88C85.92 120.816 87.12 119.424 88.896 118.752C91.92 117.648 96.144 118.944 98.736 120.816C99.504 121.344 100.176 122.064 100.656 122.88C101.616 124.848 101.376 127.248 100.032 128.976C98.688 130.656 96.72 131.664 94.56 131.856C94.224 131.952 93.888 131.952 93.552 131.952ZM91.392 119.04C90.624 119.04 89.856 119.136 89.088 119.424C87.504 120 86.496 121.248 86.064 123.072C85.584 125.328 86.352 127.728 88.08 129.264C89.856 130.8 92.16 131.52 94.464 131.232C96.432 131.088 98.208 130.128 99.456 128.64C100.656 127.104 100.896 125.04 100.032 123.312C99.6 122.592 99.024 121.92 98.304 121.44C96.288 119.952 93.888 119.136 91.392 119.04Z" fill="#231F20"/>
<path d="M174 156.288L169.056 145.824L121.536 162.24L124.608 173.712L174 156.288Z" fill="#001B94"/>
<path d="M121.104 169.248L173.52 152.256L188.496 179.856L130.176 197.568L121.104 169.248Z" fill="#231F20"/>
<path d="M130.176 197.904C130.032 197.904 129.888 197.808 129.84 197.664L120.768 169.344C120.72 169.152 120.816 168.96 120.96 168.912L173.376 151.872C173.52 151.824 173.712 151.872 173.76 152.016L188.688 179.616C188.784 179.76 188.736 180 188.544 180.048C188.544 180.048 188.496 180.048 188.496 180.096L130.176 197.808C130.224 197.904 130.224 197.904 130.176 197.904ZM121.536 169.488L130.368 197.136L187.968 179.664L173.376 152.64L121.536 169.488Z" fill="#231F20"/>
<path d="M166.944 134.544C166.944 134.544 166.608 105.744 163.248 100.032C159.888 94.32 149.28 70.272 146.448 70.128C143.616 69.984 140.688 78.624 143.184 86.352C144.624 90.912 146.784 95.232 149.568 99.12C149.568 99.12 142.224 105.504 147.744 126.72" fill="white"/>
<path d="M166.944 134.88C166.752 134.88 166.608 134.736 166.608 134.544C166.608 134.256 166.224 105.744 162.96 100.176C161.904 98.4 160.224 94.944 158.208 90.912C154.464 83.28 148.176 70.56 146.352 70.416C145.68 70.368 145.104 70.944 144.72 71.424C142.656 74.112 141.552 80.496 143.424 86.208C144.864 90.72 147.024 94.992 149.76 98.88C149.904 99.024 149.856 99.216 149.712 99.36C149.664 99.408 142.608 105.936 148.032 126.624C148.08 126.816 147.984 127.008 147.792 127.056C147.6 127.104 147.408 127.008 147.36 126.816C142.32 107.52 147.84 100.416 149.04 99.12C146.352 95.232 144.24 90.96 142.8 86.496C140.88 80.592 142.032 73.92 144.192 71.088C144.864 70.224 145.632 69.744 146.352 69.792C148.368 69.888 152.784 78.528 158.736 90.672C160.704 94.704 162.432 98.16 163.44 99.888C166.8 105.6 167.184 133.392 167.184 134.592C167.28 134.736 167.136 134.88 166.944 134.88Z" fill="#231F20"/>
<path d="M170.496 172.944C172.458 172.944 174.048 171.354 174.048 169.392C174.048 167.43 172.458 165.84 170.496 165.84C168.534 165.84 166.944 167.43 166.944 169.392C166.944 171.354 168.534 172.944 170.496 172.944Z" fill="white"/>
<path d="M127.776 49.824H65.472C62.208 49.824 59.568 52.464 59.568 55.728V87.072C59.568 90.336 62.208 92.976 65.472 92.976H118.272L126.96 104.064V93.024H127.728C130.992 93.024 133.632 90.384 133.632 87.12V55.776C133.632 52.464 131.04 49.824 127.776 49.824Z" fill="white"/>
<path d="M127.008 104.352C126.912 104.352 126.816 104.304 126.768 104.208L118.176 93.2639H65.4721C62.0161 93.2639 59.2321 90.4799 59.2321 87.0239V55.6799C59.2321 52.2239 62.0161 49.4399 65.4721 49.4399H127.776C131.232 49.4399 134.016 52.2239 134.016 55.6799V87.0239C134.016 90.4799 131.232 93.2639 127.776 93.2639H127.344V104.016C127.344 104.16 127.248 104.304 127.104 104.352C127.056 104.352 127.008 104.352 127.008 104.352ZM65.4721 50.1599C62.4001 50.1599 59.9041 52.6559 59.9041 55.7279V87.0719C59.9041 90.1439 62.4001 92.6399 65.4721 92.6399H118.272C118.368 92.6399 118.464 92.6879 118.56 92.7839L126.672 103.056V92.9759C126.672 92.7839 126.816 92.6399 127.008 92.6399H127.776C130.848 92.6399 133.344 90.1439 133.344 87.0719V55.7279C133.344 52.6559 130.848 50.1599 127.776 50.1599H65.4721Z" fill="#231F20"/>
<path d="M89.952 60.5759H103.344C104.688 60.5759 105.792 61.6799 105.792 63.0239V69.7919C105.792 71.1359 104.688 72.2399 103.344 72.2399H89.952C88.608 72.2399 87.504 71.1359 87.504 69.7919V63.0239C87.504 61.6799 88.56 60.5759 89.952 60.5759Z" fill="#001B94"/>
<path d="M101.184 63.36H92.0641C91.3441 63.36 90.7201 62.736 90.7201 62.016V58.368C90.6241 55.104 93.2161 52.368 96.4801 52.272C99.7441 52.176 102.48 54.768 102.576 58.032C102.576 58.128 102.576 58.272 102.576 58.368V62.016C102.528 62.736 101.952 63.36 101.184 63.36ZM93.4081 60.672H99.8401V58.368C99.8881 56.592 98.5441 55.104 96.7201 55.008C94.9441 54.96 93.4561 56.304 93.3601 58.128C93.3601 58.224 93.3601 58.272 93.3601 58.368L93.4081 60.672Z" fill="#001B94"/>
<path d="M96.624 66.3359C97.5783 66.3359 98.352 65.5622 98.352 64.6079C98.352 63.6535 97.5783 62.8799 96.624 62.8799C95.6697 62.8799 94.896 63.6535 94.896 64.6079C94.896 65.5622 95.6697 66.3359 96.624 66.3359Z" fill="#231F20"/>
<path d="M97.104 64.944H96.144V69.024H97.104V64.944Z" fill="#231F20"/>
<path d="M124.944 85.9199H68.0161C66.8161 85.9199 65.8561 84.9599 65.8561 83.7599V77.7119C65.8561 76.5119 66.8161 75.5519 68.0161 75.5519H124.944C126.144 75.5519 127.104 76.5119 127.104 77.7119V83.7599C127.104 84.9119 126.144 85.9199 124.944 85.9199ZM68.0161 76.2239C67.2001 76.2239 66.5281 76.8959 66.5281 77.7119V83.7599C66.5281 84.5759 67.2001 85.2479 68.0161 85.2479H124.944C125.76 85.2479 126.432 84.5759 126.432 83.7599V77.7119C126.432 76.8959 125.76 76.2239 124.944 76.2239H68.0161Z" fill="#D1D3D4"/>
<path d="M72.0001 81.0239L72.7681 82.0319L71.9041 82.6079L71.1361 81.5999L70.4161 82.5599L69.6001 81.9839L70.3681 81.0239L69.1681 80.5919L69.5041 79.6319L70.7041 80.0639V78.8639H71.7121V80.0639L72.9121 79.6799L73.2481 80.5919L72.0001 81.0239Z" fill="#231F20"/>
<path d="M77.5201 81.024L78.2881 82.032L77.4241 82.608L76.6561 81.6L75.9361 82.56L75.1201 81.984L75.8881 81.024L74.6881 80.64L75.0241 79.68L76.2241 80.112V78.912H77.2321V80.112L78.4321 79.728L78.7681 80.688L77.5201 81.024Z" fill="#231F20"/>
<path d="M83.0401 81.0239L83.8081 82.0319L82.9441 82.6079L82.1761 81.5999L81.4081 82.5599L80.5921 81.9839L81.3601 81.0239L80.1121 80.5919L80.4481 79.6319L81.6481 80.0639V78.8639H82.6561V80.0639L83.8561 79.6799L84.1921 80.5919L83.0401 81.0239Z" fill="#231F20"/>
<path d="M88.5601 81.024L89.3281 82.032L88.4641 82.608L87.6961 81.6L86.9281 82.56L86.1121 81.984L86.8801 81.024L85.6801 80.64L86.0161 79.68L87.2161 80.112V78.912H88.2241V80.112L89.4241 79.728L89.7121 80.688L88.5601 81.024Z" fill="#231F20"/>
<path d="M94.128 81.024L94.896 82.032L94.032 82.608L93.264 81.6L92.544 82.56L91.68 81.984L92.448 81.024L91.248 80.64L91.584 79.68L92.784 80.112V78.912H93.84V80.112L95.04 79.728L95.376 80.64L94.128 81.024Z" fill="#231F20"/>
</svg>
