<svg width="240" height="240" viewBox="0 0 240 240" fill="none" xmlns="http://www.w3.org/2000/svg">
<path d="M86.88 184.608C73.2 177.888 60.72 171.936 45.792 167.184C53.52 162.048 53.952 148.896 55.248 139.728C59.424 110.208 88.704 91.392 111.456 75.84C113.376 74.496 115.344 73.248 117.408 72.096C119.808 70.8 126.528 66.768 128.304 70.512C129.984 74.064 125.808 80.592 123.696 83.184C125.088 81.12 126.624 79.152 128.304 77.328C128.88 76.704 129.504 76.032 130.368 75.84C131.904 75.504 133.344 76.944 133.584 78.48C133.824 80.016 133.152 81.552 132.48 82.944C130.8 86.304 128.64 89.424 126.192 92.256C127.872 90.384 134.064 83.28 133.92 90.432C133.824 94.944 131.904 99.264 128.688 102.384C130.128 101.136 131.664 99.984 133.296 99.024C133.776 98.64 134.352 98.496 134.928 98.592C135.552 98.784 135.888 99.504 136.032 100.176C137.04 104.784 134.496 108.048 132.768 111.984C131.424 115.056 130.608 117.936 128.88 120.912C122.592 131.616 115.92 142.08 108.72 152.208C106.8 154.8 86.976 184.656 86.88 184.608Z" fill="white"/>
<path d="M86.928 184.992C86.88 184.992 86.784 184.944 86.736 184.944C72.384 177.936 60.24 172.176 45.696 167.52L44.976 167.28L45.6 166.848C52.128 162.528 53.376 152.064 54.384 143.712C54.576 142.272 54.72 140.928 54.912 139.632C58.944 111.12 86.496 92.352 108.624 77.328L111.264 75.504C113.184 74.16 115.2 72.912 117.264 71.76L117.792 71.472C120.048 70.224 124.272 67.92 126.912 68.784C127.68 69.024 128.304 69.6 128.64 70.32C129.552 72.288 128.88 74.928 127.776 77.328L128.016 77.04C128.64 76.368 129.312 75.648 130.224 75.456C130.944 75.312 131.712 75.456 132.336 75.888C133.152 76.464 133.728 77.376 133.92 78.384C134.16 80.016 133.488 81.6 132.768 83.088C131.904 84.816 130.896 86.496 129.84 88.08C131.04 87.168 132.144 86.688 132.96 87.024C133.776 87.36 134.256 88.512 134.208 90.432C134.112 93.84 133.056 97.104 131.136 99.936C131.712 99.504 132.336 99.12 132.96 98.736C133.584 98.352 134.208 98.064 134.88 98.256C135.552 98.448 135.984 99.072 136.224 100.128C137.088 103.92 135.6 106.752 134.064 109.776C133.68 110.544 133.248 111.36 132.912 112.176C132.432 113.232 132 114.288 131.616 115.344C130.896 117.312 130.032 119.28 128.976 121.104C122.16 132.72 115.536 142.944 108.816 152.448C107.904 153.696 102.72 161.52 97.632 169.104C94.992 173.088 92.352 177.024 90.384 179.952L87.984 183.504C87.264 184.752 87.072 184.992 86.928 184.992ZM46.56 167.04C60.768 171.648 72.72 177.264 86.784 184.128C87.744 182.784 92.4959 175.632 97.152 168.672C102.192 161.088 107.424 153.264 108.336 152.016C115.056 142.56 121.632 132.336 128.448 120.768C129.456 118.944 130.32 117.072 131.04 115.104C131.424 114.048 131.856 112.992 132.336 111.888C132.72 111.072 133.104 110.256 133.536 109.44C135.024 106.512 136.416 103.776 135.6 100.272C135.504 99.744 135.216 99.12 134.736 98.928C134.256 98.88 133.776 99.024 133.392 99.312C131.76 100.272 130.272 101.376 128.832 102.624L128.352 102.096C131.568 99.024 133.392 94.8 133.488 90.384C133.536 88.8 133.248 87.888 132.672 87.648C131.664 87.264 129.552 88.848 126.432 92.352L126.384 92.4V92.448L125.856 91.968V91.92C128.304 89.136 130.416 86.064 132.096 82.752C132.768 81.36 133.392 79.92 133.2 78.48C133.056 77.664 132.624 76.944 131.952 76.464C131.52 76.128 130.944 76.032 130.416 76.128C129.696 76.272 129.12 76.896 128.544 77.472C127.584 78.528 126.624 79.68 125.76 80.832C124.848 82.272 124.08 83.232 123.984 83.328L123.408 82.896C124.032 81.984 124.656 81.12 125.328 80.304C127.296 77.232 129.216 73.104 128.016 70.608C127.776 70.032 127.296 69.6 126.672 69.408C124.368 68.64 120.144 70.944 118.128 72.048L117.6 72.336C115.584 73.488 113.568 74.736 111.696 76.08L109.008 77.904C86.976 92.88 59.616 111.504 55.632 139.728C55.44 141.024 55.296 142.368 55.104 143.76C54.096 152.112 52.848 162.336 46.56 167.04Z" fill="#231F20"/>
<path d="M23.616 186L46.608 158.112L94.032 179.04L80.064 209.856L23.616 186Z" fill="#231F20"/>
<path d="M83.136 189.312C83.088 189.312 83.04 189.312 82.992 189.264L42.864 170.496C42.672 170.4 42.624 170.208 42.672 170.016C42.768 169.824 42.96 169.776 43.152 169.824L83.28 188.544C83.472 188.64 83.52 188.832 83.472 189.024C83.376 189.264 83.28 189.312 83.136 189.312Z" fill="white"/>
<path d="M191.52 41.76H145.008V76.08H191.52V41.76Z" fill="white"/>
<path d="M191.904 76.416H144.672V41.376H191.904V76.416ZM145.392 75.744H191.184V42.144H145.392V75.744Z" fill="#D1D3D4"/>
<path d="M184.224 52.656C184.08 52.896 183.936 53.088 183.792 53.28C178.464 58.608 173.088 63.984 167.712 69.312C167.184 69.84 166.752 69.84 166.176 69.312C163.152 66.192 160.128 63.12 157.152 60C156.768 59.712 156.672 59.136 157.008 58.752C157.056 58.656 157.152 58.608 157.248 58.56L159.504 56.544C159.792 56.16 160.368 56.112 160.704 56.448C160.752 56.496 160.8 56.544 160.848 56.592L166.176 62.016C166.752 62.592 167.136 62.592 167.712 62.016L180.192 49.584C180.72 49.056 181.152 49.056 181.68 49.584C182.4 50.304 183.072 50.976 183.792 51.696C183.936 51.888 184.08 52.08 184.224 52.272V52.656Z" fill="#001B94"/>
<path d="M144.576 95.28C144.384 95.28 144.192 95.136 144.192 94.896C144.192 94.656 144.336 94.512 144.576 94.512C148.656 94.128 151.824 92.496 154.08 89.616C159.216 83.04 157.632 72.48 157.584 72C157.536 71.808 157.68 71.616 157.872 71.616C158.064 71.568 158.256 71.712 158.304 71.904C158.352 72.384 159.984 83.232 154.656 90.048C152.304 93.072 148.944 94.8 144.672 95.232L144.576 95.28Z" fill="#D1D3D4"/>
<path d="M57.0719 36.96L111.792 23.472C113.088 23.136 114.432 23.952 114.768 25.248L142.8 139.056C143.136 140.352 142.32 141.696 141.024 142.032L86.3039 155.52C85.0079 155.856 83.6639 155.04 83.3279 153.744L55.2959 39.888C54.9599 38.592 55.7759 37.248 57.0719 36.96Z" fill="white"/>
<path d="M85.68 155.952C84.384 155.952 83.28 155.088 82.944 153.84L54.96 39.984C54.576 38.496 55.488 36.96 57.024 36.576L111.744 23.088C113.232 22.704 114.768 23.616 115.152 25.152L143.184 138.96C143.376 139.68 143.232 140.448 142.848 141.072C142.464 141.696 141.84 142.176 141.12 142.32L86.4 155.808C86.112 155.904 85.92 155.952 85.68 155.952ZM112.416 23.76C112.272 23.76 112.08 23.76 111.936 23.808L57.216 37.296C56.112 37.584 55.392 38.688 55.68 39.792L83.664 153.6C83.952 154.704 85.056 155.376 86.208 155.136L140.928 141.648C142.032 141.36 142.752 140.256 142.464 139.152L114.432 25.344C114.192 24.432 113.376 23.76 112.416 23.76Z" fill="#231F20"/>
<path d="M113.681 34.3721L60.4547 47.4731L82.9169 138.732L136.143 125.631L113.681 34.3721Z" fill="#001B94"/>
<path d="M96.3839 79.4401H96.2879L95.9519 79.3441C89.6639 78.1921 84.4799 75.4561 80.5439 71.2801C78.5759 69.2161 76.9919 66.8161 75.8399 64.1761C75.2159 62.7841 74.7359 61.2961 74.3999 59.7601L74.3519 59.7121V59.5201C74.3519 59.3761 74.4959 59.2321 74.6399 59.1841C75.0239 59.0401 75.3599 58.8481 75.7439 58.6561C77.6159 57.6001 78.8639 56.2561 79.4399 54.5281C79.9199 53.1841 79.9199 51.7441 79.4879 50.4001L79.3919 50.0641L79.6799 49.9201L81.9359 48.9601C82.8959 48.5281 83.8559 48.1441 84.7679 47.7121C86.7359 46.8481 88.7999 46.2721 90.9119 46.0321C92.4479 45.8881 94.0319 45.7441 95.4719 45.6481H95.5679C96.3359 45.6001 97.1039 45.5521 97.9199 45.4561H98.2079L98.3519 46.0321C98.4479 46.4161 98.5919 46.8481 98.7359 47.1841C99.4559 48.8161 100.8 50.1121 102.48 50.7361C103.776 51.2161 105.168 51.4081 106.56 51.3121H106.608C106.704 51.3121 106.848 51.3121 106.944 51.3601L107.232 51.5041L107.184 51.6481C107.184 51.6961 107.184 51.7441 107.232 51.7441C107.904 54.1921 108.144 56.6881 108 59.2321C107.616 66.0961 104.736 72.0961 99.4079 77.1361C98.8319 77.6641 98.2559 78.1921 97.6799 78.6721L97.1039 79.1521L96.8639 79.3441L96.3839 79.4401ZM75.0719 59.7601C75.4079 61.2001 75.8399 62.5921 76.4639 63.9361C77.6159 66.4801 79.1519 68.7841 81.0719 70.8001C84.9119 74.8801 89.9999 77.5201 96.0959 78.6721C96.1919 78.6721 96.2879 78.7201 96.3839 78.7201L96.5279 78.6241L97.1039 78.1441C97.6799 77.6641 98.2559 77.1841 98.8319 76.6561C104.016 71.7601 106.8 65.9041 107.184 59.2321C107.328 56.8321 107.088 54.3841 106.464 52.0801C106.176 52.0801 105.936 52.0801 105.696 52.0801C104.496 52.0801 103.296 51.8881 102.144 51.4561C100.32 50.7361 98.8319 49.3441 98.0159 47.5201C97.8239 47.0881 97.6799 46.7041 97.5839 46.2241C96.9119 46.2721 96.2399 46.3201 95.5679 46.3681H95.5199C94.0799 46.4641 92.4959 46.6081 91.0079 46.7521C88.9439 46.9921 86.9759 47.5681 85.0559 48.3841C84.0959 48.7681 83.1839 49.2001 82.2719 49.5841L80.2559 50.4481C80.6399 51.8401 80.5919 53.3281 80.0639 54.7201C79.3919 56.6401 78.0959 58.0801 76.0319 59.2321C75.6959 59.4241 75.3599 59.6161 75.0719 59.7601Z" fill="white"/>
<path d="M104.688 138.048L116.544 135.12C117.36 134.928 118.176 135.408 118.368 136.224L119.76 141.84C119.952 142.656 119.472 143.472 118.656 143.664L106.8 146.592C105.984 146.784 105.168 146.304 104.976 145.488L103.584 139.872C103.392 139.104 103.92 138.288 104.688 138.048Z" fill="white"/>
<path d="M106.464 147.024C105.6 147.024 104.832 146.448 104.64 145.584L103.248 139.968C103.008 138.96 103.632 137.952 104.592 137.712L116.448 134.784C117.456 134.544 118.464 135.168 118.704 136.128L120.096 141.744C120.336 142.752 119.76 143.76 118.752 144L106.896 146.928C106.752 146.976 106.608 147.024 106.464 147.024ZM116.928 135.456C116.832 135.456 116.736 135.456 116.64 135.504L104.784 138.432C104.496 138.48 104.256 138.672 104.064 138.96C103.92 139.2 103.872 139.536 103.92 139.824L105.312 145.44C105.456 146.064 106.08 146.448 106.704 146.304L118.56 143.376C119.184 143.232 119.568 142.608 119.424 141.984L118.032 136.368C117.936 135.84 117.456 135.456 116.928 135.456Z" fill="#D1D3D4"/>
<path d="M86.592 114.288L121.92 105.6C123.648 105.168 125.424 106.224 125.856 108L127.344 114.048C127.776 115.776 126.72 117.552 124.944 117.984L89.616 126.672C87.888 127.104 86.112 126.048 85.68 124.272L84.192 118.224C83.76 116.496 84.816 114.72 86.592 114.288Z" fill="white"/>
<path d="M118.792 79.4125L77.124 89.6685L78.971 97.1723L120.639 86.9164L118.792 79.4125Z" fill="white"/>
<path d="M82.848 93.7921C83.5638 93.7921 84.144 93.2118 84.144 92.4961C84.144 91.7803 83.5638 91.2001 82.848 91.2001C82.1322 91.2001 81.552 91.7803 81.552 92.4961C81.552 93.2118 82.1322 93.7921 82.848 93.7921Z" fill="#001B94"/>
<path d="M87.552 92.592C88.2677 92.592 88.848 92.0118 88.848 91.296C88.848 90.5802 88.2677 90 87.552 90C86.8362 90 86.256 90.5802 86.256 91.296C86.256 92.0118 86.8362 92.592 87.552 92.592Z" fill="#001B94"/>
<path d="M92.3519 91.44C93.0677 91.44 93.6479 90.8598 93.6479 90.144C93.6479 89.4283 93.0677 88.848 92.3519 88.848C91.6361 88.848 91.0559 89.4283 91.0559 90.144C91.0559 90.8598 91.6361 91.44 92.3519 91.44Z" fill="#001B94"/>
<path d="M97.056 90.288C97.7718 90.288 98.352 89.7078 98.352 88.992C98.352 88.2763 97.7718 87.696 97.056 87.696C96.3402 87.696 95.76 88.2763 95.76 88.992C95.76 89.7078 96.3402 90.288 97.056 90.288Z" fill="#001B94"/>
<path d="M121.766 91.6111L80.0981 101.867L81.9451 109.371L123.613 99.115L121.766 91.6111Z" fill="white"/>
<path d="M85.824 105.984C86.5397 105.984 87.12 105.404 87.12 104.688C87.12 103.972 86.5397 103.392 85.824 103.392C85.1082 103.392 84.528 103.972 84.528 104.688C84.528 105.404 85.1082 105.984 85.824 105.984Z" fill="#001B94"/>
<path d="M90.576 104.832C91.2918 104.832 91.872 104.252 91.872 103.536C91.872 102.82 91.2918 102.24 90.576 102.24C89.8603 102.24 89.28 102.82 89.28 103.536C89.28 104.252 89.8603 104.832 90.576 104.832Z" fill="#001B94"/>
<path d="M95.328 103.632C96.0437 103.632 96.624 103.052 96.624 102.336C96.624 101.62 96.0437 101.04 95.328 101.04C94.6122 101.04 94.032 101.62 94.032 102.336C94.032 103.052 94.6122 103.632 95.328 103.632Z" fill="#001B94"/>
<path d="M100.08 102.48C100.796 102.48 101.376 101.9 101.376 101.184C101.376 100.468 100.796 99.8881 100.08 99.8881C99.3642 99.8881 98.7839 100.468 98.7839 101.184C98.7839 101.9 99.3642 102.48 100.08 102.48Z" fill="#001B94"/>
<path d="M100.74 56.4586L82.1903 61.0244L85.1042 72.8628L103.654 68.297L100.74 56.4586Z" fill="white"/>
<path d="M86.4959 60.336C86.3519 60.336 86.2079 60.24 86.1599 60.048L85.4879 57.312C84.7679 54.384 86.5439 51.408 89.4719 50.688C92.3999 49.968 95.3759 51.744 96.0959 54.672L96.7679 57.408C96.8159 57.6 96.7199 57.792 96.4799 57.84C96.2399 57.888 96.0959 57.792 96.0479 57.552L95.3759 54.816C94.7519 52.272 92.1599 50.688 89.6159 51.36C87.0719 51.984 85.4879 54.528 86.1119 57.072C86.1119 57.072 86.1119 57.072 86.1119 57.12L86.7839 59.856C86.8319 60.048 86.7359 60.24 86.5439 60.288L86.4959 60.336Z" fill="white"/>
<path d="M92.496 64.704C93.5299 64.704 94.368 63.8658 94.368 62.832C94.368 61.7981 93.5299 60.96 92.496 60.96C91.4621 60.96 90.624 61.7981 90.624 62.832C90.624 63.8658 91.4621 64.704 92.496 64.704Z" fill="#001B94"/>
<path d="M93.6 67.632C93.456 67.632 93.312 67.536 93.264 67.344L92.256 63.216C92.208 63.024 92.304 62.832 92.544 62.784C92.784 62.736 92.928 62.832 92.976 63.072L93.984 67.2C94.032 67.392 93.936 67.584 93.696 67.632H93.6Z" fill="#001B94"/>
<path d="M75.552 38.208C75.36 38.208 75.168 38.064 75.168 37.872C75.168 37.68 75.264 37.536 75.456 37.536L91.344 33.648C91.536 33.6 91.728 33.696 91.776 33.936C91.824 34.128 91.728 34.32 91.488 34.368L75.6 38.304C75.6 38.208 75.6 38.208 75.552 38.208Z" fill="#D1D3D4"/>
<path d="M92.832 33.9361C92.64 33.9361 92.448 33.7921 92.448 33.6001C92.448 33.4081 92.544 33.2641 92.736 33.2641L95.52 32.5921C95.712 32.5441 95.904 32.6401 96 32.8321C96.048 33.0241 95.952 33.2161 95.76 33.3121H95.712L92.928 33.9841L92.832 33.9361Z" fill="#D1D3D4"/>
<path d="M53.376 152.496C53.376 152.496 59.376 102.384 65.28 96.9121C72.24 90.3841 78.624 85.9681 79.776 89.7121C80.928 93.4561 82.032 99.6481 72.48 106.608L73.872 119.04C73.872 119.04 83.28 125.52 78.384 145.968" fill="white"/>
<path d="M53.3759 152.88C53.1359 152.88 52.9919 152.688 52.9919 152.496C53.2319 150.432 59.0879 102.192 64.9439 96.7201C71.7119 90.4321 76.2719 87.5521 78.5759 88.1281C79.2959 88.3201 79.8719 88.8961 80.0639 89.6641C80.9279 92.0641 81.0239 94.6561 80.4479 97.1041C79.5359 100.512 76.9919 103.776 72.8159 106.848L74.1599 118.896C75.3599 119.808 83.2799 126.768 78.6719 146.112C78.6239 146.304 78.4319 146.448 78.2399 146.4C78.0479 146.352 77.9039 146.16 77.9519 145.968C80.4479 135.504 79.1039 128.88 77.5679 125.088C75.8879 121.056 73.6319 119.424 73.5839 119.376L73.4399 119.28V119.136L71.9999 106.512L72.1919 106.368C81.0719 99.8881 80.6879 94.1281 79.3439 89.8561C79.2479 89.3761 78.8639 88.9441 78.3839 88.8001C76.4159 88.2721 71.8079 91.2481 65.4719 97.2001C59.7599 102.528 53.8079 152.064 53.7119 152.544C53.7599 152.736 53.5679 152.88 53.3759 152.88Z" fill="#231F20"/>
<path d="M200.112 176.16C200.112 176.16 182.256 141.024 168.816 125.184C166.992 123.024 164.64 122.64 163.008 123.792C161.04 125.136 160.992 129.552 160.992 129.552C160.992 129.552 155.904 126.576 153.456 127.2C151.008 127.824 150.72 131.712 150.72 131.712C150.72 131.712 145.248 129.936 143.04 131.856C140.832 133.776 140.64 137.28 140.64 137.28C140.64 137.28 111.936 114.192 108.768 112.224C105.6 110.256 99.9359 113.76 102.72 117.84C104.448 120.384 118.992 134.832 123.648 139.44C128.304 144.048 139.248 156.48 140.496 160.176C141.744 163.872 142.752 168.048 135.312 168.528C127.872 169.008 121.2 170.352 117.936 173.136C114.672 175.92 112.512 180.096 114.144 180.912C115.776 181.728 142.128 178.704 152.112 182.784C162.096 186.864 175.152 201.792 175.152 201.792L200.112 176.16Z" fill="white"/>
<path d="M175.152 202.32L174.912 202.032C174.768 201.888 161.808 187.152 152.016 183.12C145.152 180.336 130.368 180.912 121.488 181.248C116.688 181.44 114.576 181.488 114 181.248C113.568 181.008 113.28 180.624 113.232 180.096C113.04 178.368 115.008 175.104 117.696 172.848C120.672 170.352 126.576 168.768 135.264 168.192C137.952 168 139.632 167.328 140.448 166.176C141.456 164.688 140.832 162.432 140.16 160.32C138.96 156.768 128.304 144.528 123.408 139.728C118.416 134.832 104.16 120.624 102.432 118.08C101.232 116.352 101.376 114.48 102.72 113.04C104.064 111.6 106.944 110.736 108.96 111.984C111.888 113.808 136.32 133.392 140.352 136.608C140.496 135.456 140.976 133.056 142.752 131.568C144.768 129.84 149.04 130.848 150.384 131.232C150.528 130.128 151.152 127.392 153.312 126.864C155.472 126.336 159.264 128.208 160.608 128.976C160.704 127.68 161.088 124.656 162.768 123.504C164.688 122.208 167.232 122.784 169.056 124.992C182.4 140.688 200.208 175.68 200.4 176.016L200.496 176.256L200.304 176.448L175.152 202.32ZM133.392 180.24C140.544 180.24 147.936 180.672 152.304 182.448C161.472 186.192 173.328 199.152 175.2 201.264L199.632 176.112C198.048 173.04 181.2 140.4 168.48 125.472C166.896 123.6 164.736 123.072 163.104 124.128C161.328 125.328 161.232 129.504 161.232 129.552V130.176L160.704 129.888C160.656 129.84 155.712 127.008 153.408 127.584C151.248 128.112 150.96 131.712 150.96 131.76L150.912 132.24L150.48 132.096C150.432 132.096 145.2 130.368 143.136 132.192C141.072 134.016 140.976 137.376 140.976 137.376V138.096L140.4 137.616C140.112 137.376 111.648 114.528 108.528 112.608C106.8 111.552 104.4 112.272 103.2 113.568C102.048 114.768 102 116.256 102.96 117.696C104.688 120.192 119.088 134.544 123.84 139.248C128.208 143.568 139.488 156.192 140.784 160.128C141.552 162.432 142.224 164.832 141.024 166.608C140.112 168 138.24 168.768 135.264 168.96C126.72 169.536 120.96 171.072 118.128 173.472C115.44 175.728 113.76 178.752 113.904 180.048C113.904 180.288 114.048 180.528 114.24 180.624C114.672 180.816 117.936 180.72 121.392 180.576C124.848 180.384 129.072 180.192 133.392 180.24Z" fill="#231F20"/>
<path d="M197.52 165.984L161.232 195.6L179.232 222.192L221.088 187.44L197.52 165.984Z" fill="#231F20"/>
<path d="M168.528 200.64C168.336 200.64 168.192 200.496 168.192 200.256C168.192 200.16 168.24 200.064 168.336 199.968L200.16 175.584C200.304 175.44 200.544 175.488 200.688 175.632C200.832 175.776 200.784 176.016 200.64 176.16L168.816 200.496C168.72 200.592 168.624 200.64 168.528 200.64Z" fill="white"/>
</svg>
