<svg width="25" height="24" viewBox="0 0 25 24" fill="none" xmlns="http://www.w3.org/2000/svg">
<path fill-rule="evenodd" clip-rule="evenodd" d="M15.3333 11H13.3333V9C13.3333 8.45 12.8833 8 12.3333 8C11.7833 8 11.3333 8.45 11.3333 9V11H9.33325C8.78325 11 8.33325 11.45 8.33325 12C8.33325 12.55 8.78325 13 9.33325 13H11.3333V15C11.3333 15.55 11.7833 16 12.3333 16C12.8833 16 13.3333 15.55 13.3333 15V13H15.3333C15.8833 13 16.3333 12.55 16.3333 12C16.3333 11.45 15.8833 11 15.3333 11ZM12.3333 20C7.92225 20 4.33325 16.411 4.33325 12C4.33325 7.589 7.92225 4 12.3333 4C16.7443 4 20.3333 7.589 20.3333 12C20.3333 16.411 16.7443 20 12.3333 20ZM12.3333 2C6.81925 2 2.33325 6.486 2.33325 12C2.33325 17.514 6.81925 22 12.3333 22C17.8473 22 22.3333 17.514 22.3333 12C22.3333 6.486 17.8473 2 12.3333 2Z" fill="white"/>
<mask id="mask0_417_1014" style="mask-type:luminance" maskUnits="userSpaceOnUse" x="2" y="2" width="21" height="20">
<path fill-rule="evenodd" clip-rule="evenodd" d="M15.3333 11H13.3333V9C13.3333 8.45 12.8833 8 12.3333 8C11.7833 8 11.3333 8.45 11.3333 9V11H9.33325C8.78325 11 8.33325 11.45 8.33325 12C8.33325 12.55 8.78325 13 9.33325 13H11.3333V15C11.3333 15.55 11.7833 16 12.3333 16C12.8833 16 13.3333 15.55 13.3333 15V13H15.3333C15.8833 13 16.3333 12.55 16.3333 12C16.3333 11.45 15.8833 11 15.3333 11ZM12.3333 20C7.92225 20 4.33325 16.411 4.33325 12C4.33325 7.589 7.92225 4 12.3333 4C16.7443 4 20.3333 7.589 20.3333 12C20.3333 16.411 16.7443 20 12.3333 20ZM12.3333 2C6.81925 2 2.33325 6.486 2.33325 12C2.33325 17.514 6.81925 22 12.3333 22C17.8473 22 22.3333 17.514 22.3333 12C22.3333 6.486 17.8473 2 12.3333 2Z" fill="white"/>
</mask>
<g mask="url(#mask0_417_1014)">
<rect x="0.333252" width="24" height="24" fill="white"/>
</g>
</svg>
